<svg xmlns="http://www.w3.org/2000/svg" viewBox="0 0 480.059 480.059"><path d="M480.029 372.006l-.113-145.965c-.04-18.778-15.26-33.987-34.039-34.012-16.526-.021-30.672 11.847-33.523 28.125l-18.875 106.969a30.55 30.55 0 0 0-21.66 5.344l-64.391 45.293a7.985 7.985 0 0 0-3.398 6.543v87.727a8 8 0 0 0 8 8h80a8 8 0 0 0 8-8v-10.121l52.668-33.535a67.684 67.684 0 0 0 27.331-56.368zm-36.09 42.976l-56.207 35.785a8.008 8.008 0 0 0-3.703 6.75v6.512h-64v-75.574l60.992-42.902c6.642-4.667 15.81-3.066 20.476 3.576 4.563 6.495 3.146 15.44-3.203 20.205l-43.066 32.297 9.602 12.797 43.066-32.297c13.562-10.174 16.308-29.415 6.134-42.977a30.598 30.598 0 0 0-2.85-3.285 31.993 31.993 0 0 0-2.59-2.32l19.52-110.613c1.73-9.811 11.087-16.363 20.898-14.632a18.039 18.039 0 0 1 14.906 17.753l.114 145.957a51.562 51.562 0 0 1-20.089 42.968zM172.63 377.76l-64.391-45.293a30.555 30.555 0 0 0-21.66-5.344L67.704 220.154c-3.266-18.514-20.922-30.875-39.436-27.609C12.01 195.413.154 209.532.141 226.041L.029 372.014a67.723 67.723 0 0 0 27.496 56.469l52.504 33.426v10.121a8 8 0 0 0 8 8h80a8 8 0 0 0 8-8v-87.727a7.989 7.989 0 0 0-3.399-6.543zm-12.601 86.269h-64v-6.512a8.008 8.008 0 0 0-3.703-6.75l-56.043-35.676a51.596 51.596 0 0 1-20.254-43.07l.113-145.965c.007-9.963 8.089-18.034 18.051-18.027a18.039 18.039 0 0 1 17.753 14.906l19.519 110.613c-.905.726-1.769 1.5-2.59 2.32-11.988 11.988-11.988 31.424 0 43.412a30.71 30.71 0 0 0 3.285 2.85l43.066 32.297 9.602-12.797-43.066-32.297c-6.492-4.873-7.804-14.086-2.931-20.578 4.765-6.348 13.71-7.766 20.205-3.203l60.992 42.902v75.575zM240.029.029h-.504l.504 16c9.791-.001 19.559.934 29.172 2.793l3.055-15.703a169.307 169.307 0 0 0-32.227-3.09zM206.759 3.326a166.708 166.708 0 0 0-31.484 9.641l6.172 14.758a151.11 151.11 0 0 1 28.461-8.711l-3.149-15.688zM347.564 275.451a153.044 153.044 0 0 1-23.012 18.926l8.914 13.289a169.437 169.437 0 0 0 25.418-20.902l-11.32-11.313zM303.798 12.561l-6.078 14.797a152.264 152.264 0 0 1 26.301 13.965l8.852-13.328a167.744 167.744 0 0 0-29.075-15.434zM392.029 168.029a153.5 153.5 0 0 1-2.887 29.645l15.695 3.102a169.48 169.48 0 0 0 3.191-32.746v-.68l-15.999.679zM358.384 48.798L347.111 60.15a153.361 153.361 0 0 1 19.004 22.953l13.258-8.953a169.243 169.243 0 0 0-20.989-25.352zM298.318 308.455a151.169 151.169 0 0 1-28.481 8.652l3.117 15.695a167.204 167.204 0 0 0 31.504-9.574l-6.14-14.773zM395.029 103.111l-14.758 6.188a151.312 151.312 0 0 1 8.75 28.457l15.68-3.172a167.523 167.523 0 0 0-9.672-31.473zM380.513 226.17a152.244 152.244 0 0 1-14.051 26.262l13.305 8.891a168.44 168.44 0 0 0 15.527-29.027l-14.781-6.126zM240.029 320.029a153.142 153.142 0 0 1-29.488-2.859l-3.086 15.703a169.531 169.531 0 0 0 32.574 3.156h.168l-.168-16zM113.767 252.685l-13.281 8.93a169.44 169.44 0 0 0 20.938 25.395l11.297-11.328a153.118 153.118 0 0 1-18.954-22.997zM146.294 28.584a168.925 168.925 0 0 0-25.375 20.965l11.344 11.281a152.881 152.881 0 0 1 22.969-18.973l-8.938-13.273zM75.15 135.631a169.544 169.544 0 0 0-3.121 32.398v.336l16-.336a153.48 153.48 0 0 1 2.824-29.336l-15.703-3.062zM100.091 75.037a168 168 0 0 0-15.469 29.059l14.797 6.094a151.448 151.448 0 0 1 13.992-26.285l-13.32-8.868zM90.978 197.986l-15.688 3.137a167.103 167.103 0 0 0 9.606 31.496l14.766-6.156a151.327 151.327 0 0 1-8.684-28.477zM155.771 294.564l-8.883 13.305a168.142 168.142 0 0 0 29.043 15.5l6.109-14.789a151.796 151.796 0 0 1-26.269-14.016zM360.029 136.029c0-24.559-15.258-50.895-40.434-55.344-2.432-27.295-25.13-48.319-52.531-48.656a52.57 52.57 0 0 0-27.035 7.457 52.57 52.57 0 0 0-27.035-7.457c-28.278.408-51.65 22.17-54.07 50.348-23.378 7.35-39.18 29.148-38.895 53.652a56.993 56.993 0 0 0 9.801 32 56.993 56.993 0 0 0-9.801 32c0 24.559 15.258 50.895 40.434 55.344 2.432 27.295 25.13 48.319 52.531 48.656a52.57 52.57 0 0 0 27.035-7.457 52.57 52.57 0 0 0 27.035 7.457c28.278-.408 51.65-22.17 54.07-50.348 23.378-7.35 39.18-29.148 38.895-53.652a56.993 56.993 0 0 0-9.801-32 56.998 56.998 0 0 0 9.801-32zm-128-32c0 8.837-7.163 16-16 16s-16-7.163-16-16h-16c.02 17.665 14.335 31.98 32 32a31.624 31.624 0 0 0 16-4.452v151.006a36.686 36.686 0 0 1-19.035 5.446c-18.763-.417-34.313-14.669-36.361-33.324 16.988-4.706 26.944-22.292 22.237-39.28-3.838-13.854-16.465-23.433-30.841-23.396v16c8.837 0 16 7.163 16 16s-7.163 16-16 16c-19.141 0-32-20.684-32-40a40.887 40.887 0 0 1 9.918-26.766 7.989 7.989 0 0 0 0-10.469 40.887 40.887 0 0 1-9.918-26.766c-.355-19.183 13.173-35.828 32.023-39.402a8.76 8.76 0 0 0 6.598-8.598c-.423-21.621 16.725-39.509 38.344-40a36.677 36.677 0 0 1 19.035 5.446v50.555zm102.082 69.235a40.887 40.887 0 0 1 9.918 26.766c.355 19.183-13.173 35.828-32.023 39.402a8.76 8.76 0 0 0-6.598 8.598c.423 21.621-16.725 39.509-38.344 40a36.677 36.677 0 0 1-19.035-5.446V192.03c0-8.837 7.163-16 16-16s16 7.163 16 16h16c-.02-17.665-14.335-31.98-32-32a31.624 31.624 0 0 0-16 4.452V53.475a36.686 36.686 0 0 1 19.035-5.446c18.762.417 34.313 14.669 36.361 33.324-16.988 4.706-26.944 22.292-22.237 39.28 3.838 13.854 16.465 23.433 30.841 23.396v-16c-8.837 0-16-7.163-16-16s7.163-16 16-16c19.141 0 32 20.684 32 40a40.887 40.887 0 0 1-9.918 26.766 7.987 7.987 0 0 0 0 10.469z"/></svg>