<svg xmlns="http://www.w3.org/2000/svg" viewBox="0 0 512 512"><path d="M467.76 88.1a10.052 10.052 0 0 0-7.071-2.931c-2.64 0-5.21 1.061-7.081 2.931a10.05 10.05 0 0 0-2.92 7.07c0 2.63 1.061 5.211 2.92 7.071a10.1 10.1 0 0 0 7.081 2.93c2.63 0 5.201-1.069 7.071-2.93 1.86-1.86 2.92-4.44 2.92-7.071 0-2.64-1.06-5.211-2.92-7.07zM238.071 323.626a10.05 10.05 0 0 0-7.071-2.931 10.06 10.06 0 0 0-7.081 2.931 10.05 10.05 0 0 0-2.92 7.07c0 2.63 1.061 5.21 2.92 7.071a10.1 10.1 0 0 0 7.081 2.93c2.63 0 5.201-1.069 7.071-2.93 1.86-1.86 2.92-4.44 2.92-7.071a10.038 10.038 0 0 0-2.92-7.07z"/><path d="M491.983 121.313c-2.73-4.802-8.838-6.48-13.637-3.75-4.801 2.73-6.48 8.836-3.749 13.637 29.706 52.238 20.738 118.438-21.81 160.985l-7.583 7.583a37.448 37.448 0 0 0-8.537-13.182L333.911 183.831a69.099 69.099 0 0 0 18.38-13.168l19.708-19.709c3.905-3.905 3.905-10.238 0-14.143-3.906-3.905-10.237-3.905-14.144 0l-19.708 19.709c-9.259 9.258-21.568 14.357-34.661 14.357h-39.397a10.007 10.007 0 0 0-7.072 2.929l-30.16 30.16c-8.956 8.957-23.529 8.957-32.485 0-8.957-8.956-8.957-23.529 0-32.485l68.856-68.855C305.307 60.546 371 51.292 422.975 80.122c4.83 2.677 10.918.936 13.597-3.895 2.679-4.83.935-10.918-3.895-13.597-28.668-15.899-62.444-22.262-95.112-17.911-30.572 4.071-58.555 16.872-81.493 37.184-28.179-24.981-64.052-38.642-102.032-38.642-41.146 0-79.828 16.023-108.923 45.117S0 156.157 0 197.302c0 41.146 16.023 79.828 45.117 108.923l3.769 3.769a10.003 10.003 0 0 0 2.153 1.626c.669 8.652 4.294 17.116 10.897 23.718 7.349 7.348 16.997 11.02 26.648 11.02.501 0 1.003-.016 1.504-.036-.02.506-.037 1.012-.037 1.521 0 10.066 3.92 19.53 11.038 26.648 7.349 7.348 16.997 11.021 26.648 11.02.501 0 1.003-.016 1.504-.036-.02.506-.037 1.012-.037 1.521 0 10.066 3.92 19.53 11.039 26.648 7.348 7.347 16.998 11.02 26.648 11.02.507 0 1.014-.016 1.521-.036-.406 10.151 3.251 20.437 10.984 28.171 7.119 7.118 16.583 11.038 26.648 11.038 10.067 0 19.531-3.92 26.648-11.038l13.977-13.978 18.879 18.877c7.118 7.119 16.582 11.039 26.648 11.039 10.066 0 19.53-3.92 26.648-11.038 7.826-7.826 11.482-18.267 10.972-28.537a38.3 38.3 0 0 0 1.887.049c9.651 0 19.303-3.673 26.65-11.021 7.729-7.729 11.386-18.007 10.984-28.153.506.02 1.012.037 1.521.037 10.066 0 19.53-3.92 26.648-11.038 7.729-7.729 11.386-18.007 10.984-28.153.506.02 1.012.037 1.521.037 10.066 0 19.53-3.92 26.648-11.038a37.473 37.473 0 0 0 8.173-12.248 9.99 9.99 0 0 0 2.697-1.913l19.394-19.394c48.901-48.891 59.203-124.973 25.06-185.014zM88.585 326.374a17.57 17.57 0 0 1-12.506-5.18 17.57 17.57 0 0 1-5.18-12.505c0-4.723 1.839-9.165 5.18-12.505l17.234-17.234a17.567 17.567 0 0 1 12.506-5.18c4.723 0 9.165 1.839 12.505 5.18 6.896 6.896 6.896 18.115 0 25.01l-17.234 17.235a17.57 17.57 0 0 1-12.505 5.179zm26.65 33.975a17.567 17.567 0 0 1-5.18-12.505c0-4.724 1.839-9.165 5.18-12.505l17.235-17.235v-.001a17.57 17.57 0 0 1 12.505-5.18c4.723 0 9.165 1.839 12.505 5.18 6.896 6.896 6.896 18.115 0 25.01l-17.234 17.235c-6.897 6.895-18.119 6.895-25.011.001zm39.153 39.153a17.567 17.567 0 0 1-5.18-12.505c0-4.724 1.839-9.165 5.18-12.505l17.235-17.235v-.001a17.57 17.57 0 0 1 12.505-5.18c4.724 0 9.165 1.839 12.505 5.18 6.896 6.897 6.896 18.116 0 25.011l-17.235 17.235c-6.895 6.896-18.114 6.896-25.01 0zm81.399 21.92l-17.235 17.236a17.57 17.57 0 0 1-12.505 5.18 17.567 17.567 0 0 1-12.505-5.18c-6.896-6.897-6.896-18.116 0-25.011l17.235-17.235v-.001a17.57 17.57 0 0 1 12.505-5.18c4.723 0 9.165 1.839 12.505 5.18a17.567 17.567 0 0 1 5.18 12.505 17.56 17.56 0 0 1-5.18 12.506zm186.736-95.683a17.567 17.567 0 0 1-12.505 5.18 17.565 17.565 0 0 1-12.505-5.18l-41.627-41.627-.005-.005-39.15-39.15c-3.906-3.905-10.237-3.905-14.144 0-3.905 3.905-3.905 10.238 0 14.143l80.782 80.78c6.896 6.897 6.896 18.116 0 25.011a17.567 17.567 0 0 1-12.505 5.18 17.565 17.565 0 0 1-12.505-5.18l-80.782-80.781c-3.906-3.904-10.237-3.904-14.144 0-3.905 3.905-3.905 10.238 0 14.144l39.146 39.145.009.01 41.628 41.626c6.896 6.897 6.896 18.117.001 25.012-6.897 6.896-18.118 6.896-25.011 0l-41.628-41.628a9.985 9.985 0 0 0-2.556-1.847l-11.873-11.873c-3.906-3.904-10.237-3.904-14.144 0-3.905 3.905-3.905 10.238 0 14.144l55.702 55.7c6.896 6.897 6.896 18.116 0 25.011a17.567 17.567 0 0 1-12.505 5.18 17.565 17.565 0 0 1-12.505-5.18l-21.196-21.195a37.678 37.678 0 0 0 2.469-13.444c0-10.066-3.92-19.53-11.038-26.648-7.119-7.118-16.583-11.038-26.648-11.038-.509 0-1.015.017-1.521.037.401-10.146-3.255-20.424-10.984-28.153-7.119-7.118-16.583-11.038-26.648-11.038-.509 0-1.015.017-1.521.037.402-10.146-3.255-20.424-10.984-28.153-7.119-7.118-16.583-11.038-26.648-11.038-.509 0-1.015.017-1.521.037.402-10.146-3.255-20.424-10.984-28.153-14.694-14.694-38.605-14.693-53.299 0L61.94 282.039a37.668 37.668 0 0 0-5.549 7.071C32.9 264.159 20.006 231.722 20.006 197.3c0-35.803 13.942-69.464 39.26-94.78 25.316-25.316 58.978-39.259 94.78-39.259 32.536 0 63.302 11.516 87.644 32.618l-61.457 61.457c-8.116 8.117-12.586 18.908-12.586 30.386 0 11.479 4.47 22.27 12.586 30.387 8.378 8.377 19.383 12.566 30.387 12.566s22.009-4.188 30.387-12.566l27.232-27.232h35.253c2.911 0 5.79-.199 8.634-.552l110.403 110.401c6.889 6.899 6.889 18.119-.006 25.013z"/></svg>