<svg xmlns="http://www.w3.org/2000/svg" viewBox="0 0 512 512"><path d="M107.972 291.258a10.063 10.063 0 0 0-7.073-2.932 10.079 10.079 0 0 0-7.073 2.932 10.075 10.075 0 0 0-2.931 7.072c0 2.642 1.071 5.213 2.931 7.083 1.861 1.861 4.442 2.921 7.073 2.921s5.213-1.06 7.073-2.921a10.101 10.101 0 0 0 2.931-7.083c0-2.631-1.07-5.212-2.931-7.072zM202.317 291.258a10.077 10.077 0 0 0-7.073-2.932 10.079 10.079 0 0 0-7.073 2.932 10.075 10.075 0 0 0-2.931 7.072 10.1 10.1 0 0 0 2.931 7.083c1.861 1.861 4.442 2.921 7.073 2.921s5.213-1.06 7.073-2.921a10.12 10.12 0 0 0 2.931-7.083c0-2.631-1.07-5.212-2.931-7.072zM183.966 346.195c-5.338-1.43-10.821 1.746-12.248 7.083-2.859 10.702-12.582 18.178-23.646 18.178-11.063 0-20.786-7.476-23.646-18.178-1.426-5.339-6.909-8.515-12.248-7.083-5.338 1.427-8.509 6.909-7.083 12.248 5.194 19.443 22.867 33.023 42.978 33.023 20.11 0 37.783-13.58 42.977-33.023 1.425-5.338-1.747-10.822-7.084-12.248zM256.121 39.995c-5.526 0-10.005 4.479-10.005 10.005v63.514c0 5.526 4.479 10.005 10.005 10.005 5.526 0 10.005-4.479 10.005-10.005V50c0-5.526-4.479-10.005-10.005-10.005zM263.198 141.795a10.04 10.04 0 0 0-7.073-2.931 10.063 10.063 0 0 0-7.083 2.931c-1.861 1.861-2.921 4.442-2.921 7.073s1.061 5.213 2.921 7.073a10.103 10.103 0 0 0 7.083 2.931c2.631 0 5.213-1.07 7.073-2.931s2.931-4.442 2.931-7.073-1.071-5.212-2.931-7.073zM195.152 130.95l-25.542-25.52c-3.908-3.905-10.244-3.903-14.149.006-3.905 3.909-3.903 10.243.006 14.149l25.542 25.521a9.97 9.97 0 0 0 7.071 2.927 9.979 9.979 0 0 0 7.078-2.933c3.905-3.91 3.903-10.244-.006-14.15zM356.801 105.456c-3.909-3.906-10.244-3.903-14.149.005l-27.155 27.177c-3.906 3.909-3.903 10.244.005 14.149a9.967 9.967 0 0 0 7.071 2.928 9.972 9.972 0 0 0 7.077-2.933l27.155-27.177c3.907-3.909 3.904-10.244-.004-14.149z"/><path d="M506.938 285.54c-21.132-78.867-102.486-125.836-181.351-104.702-27.068 7.253-50.981 21.674-69.659 41.643-27.946-29.764-66.622-46.621-107.856-46.621C66.425 175.86 0 242.286 0 323.933s66.425 148.072 148.072 148.072c41.273 0 80.011-16.909 107.967-46.745 27.682 29.351 66.721 46.694 107.906 46.694 12.649 0 25.505-1.637 38.29-5.062C481.1 445.759 528.07 364.404 506.938 285.54zM148.072 451.995c-70.615 0-128.063-57.449-128.063-128.063 0-70.614 57.448-128.063 128.063-128.063 36.555 0 70.791 15.319 95.088 42.282a151.31 151.31 0 0 0-7.484 11.676c-19.776 34.253-25.029 74.157-14.792 112.36 4.697 17.533 12.371 33.487 22.332 47.469-24.302 26.998-58.576 42.339-95.144 42.339zm248.984-4.431c-68.207 18.271-138.568-22.347-156.844-90.554-8.853-33.041-4.31-67.553 12.793-97.176a129.955 129.955 0 0 1 10.51-15.509c.166-.191.32-.389.47-.59 16.93-21.203 40.082-36.415 66.78-43.569a127.824 127.824 0 0 1 33.116-4.378c56.536 0 108.415 37.785 123.727 94.931 18.278 68.208-22.345 138.568-90.552 156.845z"/><path d="M334.605 304.249c-3.096-11.558-15.014-18.444-26.577-15.345-11.558 3.098-18.441 15.019-15.344 26.577 1.198 4.47 5.24 7.419 9.658 7.419.856 0 1.729-.111 2.595-.344 5.338-1.431 8.505-6.915 7.074-12.253-.241-.9.295-1.83 1.195-2.071a1.672 1.672 0 0 1 1.283.169c.276.16.638.468.788 1.026 1.43 5.337 6.914 8.506 12.253 7.074 5.339-1.429 8.505-6.914 7.075-12.252zM425.169 279.982a21.563 21.563 0 0 0-10.111-13.177 21.559 21.559 0 0 0-16.466-2.167 21.55 21.55 0 0 0-13.176 10.11 21.556 21.556 0 0 0-2.168 16.467c1.198 4.47 5.24 7.418 9.658 7.418a10.043 10.043 0 0 0 2.596-.344c5.337-1.431 8.504-6.916 7.074-12.254-.149-.558.009-1.005.169-1.282s.467-.638 1.026-.787c.558-.149 1.007.01 1.283.169s.637.467.787 1.026c1.43 5.337 6.914 8.505 12.253 7.074 5.338-1.43 8.505-6.915 7.075-12.253zM416.404 342.76c-1.431-5.337-6.917-8.506-12.254-7.075a10.004 10.004 0 0 0-7.074 12.253c3.404 12.705-4.163 25.812-16.868 29.216a23.696 23.696 0 0 1-18.101-2.383c-5.519-3.187-9.466-8.33-11.114-14.485-1.431-5.337-6.916-8.508-12.254-7.074-5.337 1.431-8.504 6.916-7.074 12.253 3.033 11.318 10.291 20.777 20.438 26.635 6.758 3.902 14.26 5.896 21.861 5.896 3.811 0 7.646-.5 11.425-1.514 23.361-6.26 37.274-30.361 31.015-53.722z"/></svg>