<svg height="346.667" viewBox="0 0 260 260" width="346.667" xmlns="http://www.w3.org/2000/svg"><path d="m127.9 7.7c0 .5-.1 8.1-.1 17.1 0 11.1-.4 16.5-1.2 16.8-.7.3-1.1 5.7-1.1 17.4.1 9.4-.2 17-.5 17.1-.3 0-4.3.1-9 .2l-8.5.2-.1 3c-.2 4.8-1.5 30.2-2 40-.3 4.9-.7 12.7-.9 17.2s-.6 8.7-1 9.3c-.3.5-.1 1 .5 1s.8.5.4 1.2c-.4.6-.8 5.7-1 11.4-.1 5.6-.4 10.6-.6 11.1-.3.4-.4 4.1-.4 8.1.2 8.6-.3 9.1-8.1 8.7-2.9-.1-5.3.2-5.3.7s-.7.5-1.7 0-3-.8-4.5-.7c-2.5.2-2.6-.1-3-4.8-.1-2.7 0-5.1.5-5.4.4-.2.5-.9.2-1.4-.4-.5-.6-6.6-.5-13.6v-20.3-12.5c0-5.2-1.4-8.8-2.7-7-.5.6-13.5 1-35.3 1h-34.5v5.7c-.1 3.2.3 5.8.8 5.8.6 0 .6.5 0 1.2-1.1 1.5-1.1 16.7 0 18.5.4.6.3 1.4-.2 1.8-.7.3-.7 1.5-.1 2.9.5 1.3.6 2.7.2 3.1-1 1-.9 20.5.2 20.5.4 0 .4.6-.1 1.2-1.1 1.5-1.1 16.7 0 18.5.4.6.3 1.4-.2 1.8-.7.3-.7 1.5-.1 3 .5 1.3.6 2.6.2 2.9-.5.3-.7 4.4-.7 9.3.1 4.8 0 9.3-.2 9.9-.3.7-1.9 1.1-3.9.9l-3.4-.3v29.7h260l-.3-14.7-.2-14.7-6.5-.1c-10.5-.2-10.1-.1-9.1-2.7.5-1.2.5-3.1.1-4.2s-.5-2.4-.2-2.9c.8-1.4.9-4.9.1-7.9-.4-1.5-.4-2.7.1-2.7.6 0 .6-.9.1-2.3-.5-1.3-.5-3-.1-3.8.5-.8.5-2.1.1-2.8-.5-.7-.5-2.7-.1-4.5.4-1.7.4-4 0-5.1s-.5-2.4-.2-2.9c.8-1.4.9-4.9.1-7.9-.4-1.5-.4-2.7.1-2.7.6 0 .6-.9.1-2.3-.5-1.3-.5-3-.1-3.8.5-.8.5-2.1.1-2.8-.5-.7-.5-2.8-.1-4.7.5-1.9.4-3.7-.1-4s-.6-1.1-.2-1.7c1.4-2.2 1-4.9-.8-5.5-1-.4-12.3-.6-25.1-.5-27.2.2-26.3.1-25.5.9.3.4.2 1.5-.3 2.5-.6 1-.6 2-.2 2.3 1 .6.9 8.7-.1 10.3-.4.6-.4 1.4.1 1.7 1 .6.9 8.6-.1 10.3-.4.6-.4 1.4.1 1.7 1 .6.9 8.6-.1 10.3-.4.6-.4 1.4.1 1.7 1 .6.9 8.6-.1 10.3-.4.6-.4 1.4.1 1.7.4.2.8 3.1.7 6.3v5.8l-9.1.3c-6.9.2-9.1 0-9.1-1 0-.7-.4-8.7-.8-17.8-.3-9.1-.9-21-1.1-26.5-.7-17.5-1.4-31.7-1.9-42.5-.3-5.8-.5-11.1-.5-11.8v-2.5c0-.6-.2-6.4-.5-12.7-.4-6.3-.7-15-.8-19.3-.2-8.4-.1-8.2-6.7-8.7-3.7-.2-4.2-.2-7.7.4-1.8.3-3.5 0-4.1-.7-.5-.7-.8-8.1-.8-16.5.1-9.6-.2-15.6-.9-16-3.8-2.4-5.1 0-4.8 8.3.4 8.2.4 8.4 0 13.5-.1 2.5.1 5.1.6 5.7.6.9.5 1.3-.2 1.3s-.9.5-.6 1c.4.6.2 1.6-.3 2.3-.9 1-3.6 1.3-10.3.8-1.5-.1-1.7-2.1-1.7-17.2 0-9.7-.4-17.4-1-17.8-.5-.3-.9-7.7-.8-17.4.1-9.2-.2-16.7-.6-16.7-.5 0-.8.3-.9.7z"/><path d="m146.1 25c0 9.3.2 17 .4 17 .3 0 .9-1 1.6-2.1.6-1.2.7-1.9.2-1.6-.4.3-.8-6.2-.7-14.4 0-8.3-.3-15.2-.7-15.5-.4-.2-.8 7.2-.8 16.6z"/></svg>