<svg viewBox="0 0 256 256" xmlns="http://www.w3.org/2000/svg"><g fill="none" fill-rule="evenodd"><path d="M82.918 116H54.082c-2.807 0-5.082-2.306-5.082-5.151v-.875c0-2.845 2.275-5.151 5.082-5.151h9.593V69.177h-7.867c-2.808 0-5.083-2.306-5.083-5.15v-.876C50.725 60.308 53 58 55.808 58h13.811c2.806 0 5.083 2.308 5.083 5.151v41.672h8.216c2.806 0 5.082 2.306 5.082 5.15v.876c0 2.845-2.276 5.151-5.082 5.151" fill="#fff"/><g fill="#606060"><path d="M140.812 181.965c0 1.805-.517 3.006-1.727 4.013-.51.422-2.702 1.797-9.673 1.797-6.94 0-9.051-1.341-9.533-1.753-1.185-1.011-1.692-2.223-1.692-4.057v-17.668c0-.376.057-.67.1-.984 2.451 2 6.555 3.316 11.213 3.316 4.616 0 8.68-1.295 11.14-3.266.046.318.172.57.172.934zm11.188 0v-25.926c0-4.88-1.835-9.146-5.313-12.345-3.445-3.159-9.096-4.694-17.275-4.694-3.857 0-7.044.342-9.755 1.044-2.98.782-5.337 1.88-7.212 3.38-2.036 1.624-3.502 3.654-4.354 6.027-.725 2.019-1.091 4.234-1.091 6.588v25.926c0 2.353.366 4.57 1.091 6.583.852 2.382 2.323 4.412 4.354 6.028 1.875 1.498 4.238 2.606 7.212 3.38 2.692.702 5.879 1.044 9.755 1.044 8.175 0 13.817-1.516 17.254-4.63 3.49-3.166 5.334-7.454 5.334-12.405zM79.812 181.965c0 1.805-.517 3.006-1.727 4.013-.509.422-2.702 1.797-9.673 1.797-6.94 0-9.051-1.341-9.533-1.753-1.185-1.011-1.692-2.223-1.692-4.057v-17.668c0-.376.057-.67.1-.984 2.452 2 6.555 3.316 11.213 3.316 4.616 0 8.681-1.295 11.14-3.266.046.318.172.57.172.934zm5.875-38.271C82.242 140.535 76.59 139 68.412 139c-3.856 0-7.044.342-9.754 1.044-2.979.782-5.338 1.88-7.213 3.38-2.035 1.624-3.502 3.654-4.354 6.027-.725 2.019-1.091 4.234-1.091 6.588v25.926c0 2.353.366 4.57 1.091 6.583.852 2.382 2.323 4.412 4.354 6.028 1.875 1.498 4.238 2.606 7.213 3.38 2.69.702 5.88 1.044 9.754 1.044 8.175 0 13.818-1.516 17.254-4.63 3.491-3.166 5.334-7.454 5.334-12.405v-25.926c0-4.88-1.835-9.146-5.313-12.345zM196.812 99.965c0 1.805-.519 3.006-1.728 4.013-.51.422-2.702 1.797-9.674 1.797-6.938 0-9.05-1.341-9.531-1.753-1.185-1.011-1.692-2.223-1.692-4.057V82.297c0-.376.057-.67.1-.984 2.451 2 6.555 3.316 11.213 3.316 4.616 0 8.68-1.295 11.14-3.266.046.318.172.57.172.934zm5.875-38.271C199.242 58.535 193.59 57 185.41 57c-3.855 0-7.043.342-9.753 1.044-2.98.782-5.337 1.882-7.212 3.38-2.036 1.624-3.502 3.654-4.354 6.027-.725 2.019-1.091 4.234-1.091 6.588v25.926c0 2.353.366 4.57 1.091 6.583.852 2.382 2.322 4.412 4.354 6.028 1.875 1.498 4.237 2.607 7.212 3.38 2.69.702 5.879 1.044 9.753 1.044 8.176 0 13.82-1.516 17.256-4.63 3.49-3.166 5.334-7.454 5.334-12.405V74.039c0-4.88-1.835-9.146-5.313-12.345z"/></g><path d="M143.918 116h-28.836c-2.807 0-5.082-2.306-5.082-5.151v-.875c0-2.845 2.275-5.151 5.082-5.151h9.593V69.177h-7.868c-2.807 0-5.082-2.306-5.082-5.15v-.876c0-2.843 2.275-5.151 5.082-5.151h9.898c4.967 0 8.995 4.084 8.995 9.12v37.703h8.218c2.806 0 5.082 2.306 5.082 5.15v.876c0 2.845-2.276 5.151-5.082 5.151M204.918 199h-28.836c-2.807 0-5.082-2.306-5.082-5.152v-.874c0-2.845 2.275-5.151 5.082-5.151h9.593v-35.646h-7.868c-2.807 0-5.082-2.306-5.082-5.15v-.876c0-2.843 2.275-5.151 5.082-5.151h9.898c4.967 0 8.995 4.082 8.995 9.12v37.703h8.218c2.806 0 5.082 2.306 5.082 5.15v.875c0 2.846-2.276 5.152-5.082 5.152" fill="#fff"/></g></svg>
