<svg width="140" height="140" xmlns="http://www.w3.org/2000/svg"><g fill="#FFF" fill-rule="evenodd"><path d="M23.32 9.328a4.664 4.664 0 0 1 4.665-4.664h102.612a4.664 4.664 0 0 1 4.664 4.664v55.97h-55.97v4.665h55.97v4.664a4.664 4.664 0 0 1-4.664 4.664H79.291v4.664h10.044l5.248 13.993H79.29v4.664h25.653v-4.664h-5.38l-5.247-13.993h36.28a9.329 9.329 0 0 0 9.328-9.328V9.328A9.329 9.329 0 0 0 130.597 0H27.985a9.329 9.329 0 0 0-9.328 9.328v27.985h4.664V9.328z"/><path d="M2.332 139.925H55.97c.619 0 1.21-.247 1.649-.683l16.325-16.325c.194-.198.353-.429.466-.683.033-.073.052-.142.077-.218.067-.195.108-.399.122-.605 0-.05.027-.093.027-.142v-76.96a2.331 2.331 0 0 0-2.332-2.331H2.332A2.331 2.331 0 0 0 0 44.31v93.283a2.331 2.331 0 0 0 2.332 2.332zm55.97-7.961V123.6h8.363l-8.363 8.363zM4.664 46.642h65.299v72.295H55.97a2.331 2.331 0 0 0-2.332 2.332v13.992H4.664v-88.62z" fill-rule="nonzero"/><path d="M9.328 51.306h9.329v4.664H9.328zM9.328 60.634h9.329V65.3H9.328zM69.963 30.317h37.313v4.664H69.963zM79.291 41.978h18.657v4.664H79.29zM88.62 18.657h37.313v4.664H88.619zM102.612 41.978h23.32v4.664h-23.32zM79.291 53.638h27.985v4.664H79.291zM111.94 53.638h13.993v4.664H111.94zM111.94 30.317h13.993v4.664H111.94zM69.963 18.657h13.992v4.664H69.963z"/><path d="M50.175 83.622a2.33 2.33 0 0 0 0-3.997l-10.53-6.318v-3.344h1.167a8.162 8.162 0 1 0 0-16.325h-6.997a8.162 8.162 0 1 0 0 16.325h1.166v3.344l-10.53 6.318a2.33 2.33 0 0 0 0 3.997l10.53 6.317v3.345h-9.328a2.331 2.331 0 0 0-2.332 2.332v11.66a2.331 2.331 0 0 0 2.332 2.332h9.328v4.664h-1.166a8.162 8.162 0 1 0 0 16.325h6.997a8.162 8.162 0 1 0 0-16.325h-1.166v-4.664h9.328a2.331 2.331 0 0 0 2.332-2.332v-11.66a2.331 2.331 0 0 0-2.332-2.332h-9.328v-3.345l10.53-6.317zm-16.36-18.323a3.498 3.498 0 1 1 0-6.997h6.997a3.498 3.498 0 1 1 0 6.997h-6.997zm6.997 53.638a3.498 3.498 0 1 1 0 6.996h-6.997a3.498 3.498 0 1 1 0-6.996h6.997zm5.83-20.99v6.997H27.985v-6.996h18.657zM37.313 85.9l-7.129-4.277 7.13-4.277 7.129 4.277-7.13 4.277z" fill-rule="nonzero"/><path d="M27.985 9.328h4.664v4.665h-4.664zM37.313 9.328h4.665v4.665h-4.665zM46.642 9.328h4.664v4.665h-4.664z"/><path d="M81.623 139.925h55.97a2.331 2.331 0 0 0 2.332-2.332v-27.985a2.331 2.331 0 0 0-2.332-2.332h-55.97a2.331 2.331 0 0 0-2.332 2.332v27.985a2.331 2.331 0 0 0 2.332 2.332zm2.332-27.985h51.306v23.321H83.955v-23.32z" fill-rule="nonzero"/><path d="M88.62 125.933h4.664v4.664h-4.665zM125.933 125.933h4.664v4.664h-4.664zM88.62 116.604h4.664v4.665h-4.665zM97.948 116.604h4.664v4.665h-4.664zM107.276 116.604h4.664v4.665h-4.664zM116.604 116.604h4.665v4.665h-4.665zM125.933 116.604h4.664v4.665h-4.664zM97.948 125.933h23.32v4.664h-23.32zM35.665 19.34l-6.997 6.996a2.333 2.333 0 0 0 0 3.298l6.997 6.996 3.297-3.297-5.347-5.348 5.347-5.347-3.297-3.298zM57.619 36.63l6.996-6.996c.91-.911.91-2.386 0-3.298L57.62 19.34l-3.298 3.298 5.348 5.347-5.348 5.348 3.298 3.297zM42.047 36.748l4.664-18.656 4.522 1.13L46.57 37.88z"/></g></svg>