<svg height="140" width="140" xmlns="http://www.w3.org/2000/svg"><g fill="#fff" fill-rule="evenodd"><path d="m23.32 9.328a4.664 4.664 0 0 1 4.665-4.664h102.612a4.664 4.664 0 0 1 4.664 4.664v55.97h-55.97v4.665h55.97v4.664a4.664 4.664 0 0 1 -4.664 4.664h-51.306v4.664h10.044l5.248 13.993h-15.293v4.664h25.653v-4.664h-5.38l-5.247-13.993h36.28a9.329 9.329 0 0 0 9.328-9.328v-65.299a9.329 9.329 0 0 0 -9.327-9.328h-102.612a9.329 9.329 0 0 0 -9.328 9.328v27.985h4.664v-27.985z"/><path d="m2.332 139.925h53.638c.619 0 1.21-.247 1.649-.683l16.325-16.325c.194-.198.353-.429.466-.683.033-.073.052-.142.077-.218.067-.195.108-.399.122-.605 0-.05.027-.093.027-.142v-76.96a2.331 2.331 0 0 0 -2.332-2.331h-69.972a2.331 2.331 0 0 0 -2.332 2.332v93.283a2.331 2.331 0 0 0 2.332 2.332zm55.97-7.961v-8.364h8.363l-8.363 8.363zm-53.638-85.322h65.299v72.295h-13.993a2.331 2.331 0 0 0 -2.332 2.332v13.992h-48.974v-88.62z" fill-rule="nonzero"/><path d="m9.328 51.306h9.329v4.664h-9.329zm0 9.328h9.329v4.666h-9.329zm60.635-30.317h37.313v4.664h-37.313zm9.328 11.661h18.657v4.664h-18.658zm9.329-23.321h37.313v4.664h-37.314zm13.992 23.321h23.32v4.664h-23.32zm-23.321 11.66h27.985v4.664h-27.985zm32.649 0h13.993v4.664h-13.993zm0-23.321h13.993v4.664h-13.993zm-41.977-11.66h13.992v4.664h-13.992z"/><path d="m50.175 83.622a2.33 2.33 0 0 0 0-3.997l-10.53-6.318v-3.344h1.167a8.162 8.162 0 1 0 0-16.325h-6.997a8.162 8.162 0 1 0 0 16.325h1.166v3.344l-10.53 6.318a2.33 2.33 0 0 0 0 3.997l10.53 6.317v3.345h-9.328a2.331 2.331 0 0 0 -2.332 2.332v11.66a2.331 2.331 0 0 0 2.332 2.332h9.328v4.664h-1.166a8.162 8.162 0 1 0 0 16.325h6.997a8.162 8.162 0 1 0 0-16.325h-1.166v-4.664h9.328a2.331 2.331 0 0 0 2.332-2.332v-11.66a2.331 2.331 0 0 0 -2.332-2.332h-9.328v-3.345l10.53-6.317zm-16.36-18.323a3.498 3.498 0 1 1 0-6.997h6.997a3.498 3.498 0 1 1 0 6.997zm6.997 53.638a3.498 3.498 0 1 1 0 6.996h-6.997a3.498 3.498 0 1 1 0-6.996zm5.83-20.99v6.997h-18.657v-6.996h18.657zm-9.329-12.047-7.129-4.277 7.13-4.277 7.129 4.277z" fill-rule="nonzero"/><path d="m27.985 9.328h4.664v4.665h-4.664zm9.328 0h4.665v4.665h-4.665zm9.329 0h4.664v4.665h-4.664z"/><path d="m81.623 139.925h55.97a2.331 2.331 0 0 0 2.332-2.332v-27.985a2.331 2.331 0 0 0 -2.332-2.332h-55.97a2.331 2.331 0 0 0 -2.332 2.332v27.985a2.331 2.331 0 0 0 2.332 2.332zm2.332-27.985h51.306v23.321h-51.306v-23.32z" fill-rule="nonzero"/><path d="m88.62 125.933h4.664v4.664h-4.665zm37.313 0h4.664v4.664h-4.664zm-37.313-9.329h4.664v4.665h-4.665zm9.328 0h4.664v4.665h-4.664zm9.328 0h4.664v4.665h-4.664zm9.328 0h4.665v4.665h-4.665zm9.329 0h4.664v4.665h-4.664zm-27.985 9.329h23.32v4.664h-23.32zm-62.283-106.593-6.997 6.996a2.333 2.333 0 0 0 0 3.298l6.997 6.996 3.297-3.297-5.347-5.348 5.347-5.347zm21.954 17.29 6.996-6.996c.91-.911.91-2.386 0-3.298l-6.995-6.996-3.298 3.298 5.348 5.347-5.348 5.348 3.298 3.297zm-15.572.118 4.664-18.656 4.522 1.13-4.663 18.658z"/></g></svg>
