<svg width="130" height="130" xmlns="http://www.w3.org/2000/svg"><g fill="#FFF" fill-rule="evenodd"><path d="M111 69H87a2 2 0 0 0-2 2v4h-5.46L67 67.84V61h10a2 2 0 0 0 2-2V47a2 2 0 0 0-2-2H67v-8h4a8 8 0 0 0 0-16H59a8 8 0 0 0 0 16h4v8H53a2 2 0 0 0-2 2v4h-6v-4a2 2 0 0 0-2-2H19a2 2 0 0 0-2 2v12a2 2 0 0 0 .9 1.66l.7.48a12.979 12.979 0 0 0 7.2 2.16c2.007.007 3.987-.46 5.78-1.36a8.98 8.98 0 0 1 4-.94H43a2 2 0 0 0 2-2v-4h6v4a2 2 0 0 0 2 2h10v6.84l-13 7.42a2 2 0 0 0 0 3.48l13 7.42V97h-4a8 8 0 0 0 0 16h12a8 8 0 0 0 0-16h-4v-4h32a2 2 0 0 0 2-2v-6h10a2 2 0 0 0 2-2V71a2 2 0 0 0-2-2zM41 57h-5.42a13.123 13.123 0 0 0-5.78 1.36 8.96 8.96 0 0 1-8.8-.44V49h20v8zm18-24a4 4 0 1 1 0-8h12a4 4 0 1 1 0 8H59zm-4 24v-8h20v8H55zm16 44a4 4 0 1 1 0 8H59a4 4 0 1 1 0-8h12zm-6-18.3L55 77l10-5.7L75 77l-10 5.7zM97 89H67v-2.84L79.54 79H85v4a2 2 0 0 0 2 2h10v4zm12-8H89v-8h20v8z" fill-rule="nonzero"/><path d="M17 21h22v4H17zM17 29h16v4H17z"/><path d="M123 17a2 2 0 0 0 2-2V7a2 2 0 0 0-2-2H7a2 2 0 0 0-2 2v8a2 2 0 0 0 2 2h2v104h.03v4h111.972v-4L121 17h2zm-6 104H13V17h104v104zM9 13V9h112v4H9z" fill-rule="nonzero"/><path d="M85 113h4v4h-4zM93 113h4v4h-4zM101 113h4v4h-4zM109 113h4v4h-4z"/></g></svg>
