<svg width="130" height="130" xmlns="http://www.w3.org/2000/svg"><g fill="#FFF" fill-rule="evenodd"><path d="M117.2 6H12.8c-3.202.004-5.796 2.961-5.8 6.611V118.39c.004 3.65 2.598 6.607 5.8 6.611h104.4c3.202-.004 5.796-2.961 5.8-6.611V12.61c-.004-3.65-2.598-6.607-5.8-6.611zM12.8 9.881h104.4c1.068.001 1.932.869 1.933 1.94v11.644H10.867V11.822c0-1.072.865-1.94 1.933-1.94zm104.4 110.74H12.8c-1.068 0-1.932-.987-1.933-2.204V28.146h108.266v90.271c0 1.217-.865 2.203-1.933 2.204z" fill-rule="nonzero"/><path d="M14.932 13.933h5.948v5.95h-5.948zM24.846 13.933h5.949v5.95h-5.949zM34.76 13.933h5.95v5.95h-5.95zM24.764 95.385V64.373c0-1.07.869-1.937 1.941-1.938H67.48v-3.877H26.705a5.826 5.826 0 0 0-5.825 5.815v31.012a5.826 5.826 0 0 0 5.825 5.815h36.89v-3.877h-36.89a1.941 1.941 0 0 1-1.941-1.938z"/><path d="M47.65 80.375v-7.933a5.956 5.956 0 0 0-5.95-5.95h-7.93a5.956 5.956 0 0 0-5.95 5.95v7.933a5.956 5.956 0 0 0 5.95 5.95h7.93a5.956 5.956 0 0 0 5.95-5.95zm-15.864 0v-7.933a1.984 1.984 0 0 1 1.983-1.984h7.932a1.984 1.984 0 0 1 1.983 1.984v7.933a1.984 1.984 0 0 1-1.983 1.983h-7.932a1.984 1.984 0 0 1-1.983-1.983z" fill-rule="nonzero"/><path d="M51.615 66.492h9.915v3.966h-9.915zM52.607 74.425h7.931v3.967h-7.931zM52.607 81.367h7.931v3.966h-7.931zM33.77 89.3h3.965v3.967h-3.966zM42.692 89.3h19.83v3.967h-19.83z"/><path d="M105.425 56.859a3.921 3.921 0 0 0-5.525 0l-3.732 3.72a23.305 23.305 0 0 0-8.13-2.204V54.38h1.954a3.907 3.907 0 0 0 3.907-3.896v-3.896a3.907 3.907 0 0 0-3.907-3.896h-7.815a3.907 3.907 0 0 0-3.908 3.896v3.896a3.907 3.907 0 0 0 3.908 3.896h1.953v3.995c-10.262.827-18.788 8.219-21.039 18.236-2.25 10.017 2.3 20.328 11.228 25.441 8.927 5.114 20.154 3.838 27.699-3.145a23.388 23.388 0 0 0 5.2-27.309l3.733-3.72a3.89 3.89 0 0 0 0-5.51l-5.526-5.51zm-23.248-6.375v-3.896h7.815v3.896h-7.815zm3.907 50.648c-10.79 0-19.537-8.721-19.537-19.48s8.747-19.48 19.537-19.48 19.538 8.721 19.538 19.48c-.013 10.753-8.753 19.468-19.538 19.48zm19.088-33.004a23.583 23.583 0 0 0-5.524-5.508l3.014-3.007 5.526 5.51-3.016 3.005z" fill-rule="nonzero"/><path d="M85.325 80.32l11.437-9.862 2.443 3.031-11.437 9.861z"/></g></svg>