<svg width="130" height="130" xmlns="http://www.w3.org/2000/svg"><g fill="#FFF" fill-rule="evenodd"><path d="M21.94 125h75.24c3.28 0 5.94-2.664 5.94-5.95V25.833h7.92a3.963 3.963 0 0 0 3.96-3.967v-5.949c-.007-5.475-4.436-9.91-9.9-9.917H21.94A5.945 5.945 0 0 0 16 11.95v107.1c0 3.286 2.66 5.95 5.94 5.95zM105.1 9.967c3.28 0 5.94 2.663 5.94 5.95v5.95h-79.2v-5.95a9.823 9.823 0 0 0-2.031-5.95h75.29zM19.96 11.95c0-1.095.886-1.983 1.98-1.983 3.28 0 5.94 2.663 5.94 5.95v5.95a3.963 3.963 0 0 0 3.96 3.966h67.32v93.217a1.982 1.982 0 0 1-1.98 1.983H21.94a1.982 1.982 0 0 1-1.98-1.983V11.95z" fill-rule="nonzero"/><path d="M30 56h12a4 4 0 0 0 4-4v-2a2 2 0 0 0-4 0v2H30V40h6a2 2 0 0 0 0-4h-6a4 4 0 0 0-4 4v12a4 4 0 0 0 4 4z"/><path d="M30 83h12a4 4 0 0 0 4-4V67c0-2.208-1.792-4-4-4H30a4 4 0 0 0-4 4v12a4 4 0 0 0 4 4zm0-16h12v12H30V67zM30 111h12a4 4 0 0 0 4-4V95a4 4 0 0 0-4-4H30a4 4 0 0 0-4 4v12a4 4 0 0 0 4 4zm0-16h12v12H30V95z" fill-rule="nonzero"/><path d="M55 44h10a2 2 0 1 0 0-4H55a2 2 0 1 0 0 4zM72 44h20a2 2 0 0 0 0-4H72a2 2 0 0 0 0 4zM55 52h20a2 2 0 0 0 0-4H55a2 2 0 1 0 0 4zM92 48H82a2 2 0 0 0 0 4h10a2 2 0 0 0 0-4zM55 71h10a2 2 0 1 0 0-4H55a2 2 0 1 0 0 4zM92 67H72a2 2 0 0 0 0 4h20a2 2 0 0 0 0-4zM55 79h20a2 2 0 0 0 0-4H55a2 2 0 1 0 0 4zM92 75H82a2 2 0 0 0 0 4h10a2 2 0 0 0 0-4zM55 99h10a2 2 0 1 0 0-4H55a2 2 0 1 0 0 4zM92 95H72a2 2 0 0 0 0 4h20a2 2 0 0 0 0-4zM55 107h20a2 2 0 0 0 0-4H55a2 2 0 1 0 0 4zM92 103H82a2 2 0 0 0 0 4h10a2 2 0 0 0 0-4zM36.394 42.584a2.005 2.005 0 0 0-2.808.024 2 2 0 0 0-.024 2.805l4.006 4c.376.375.884.587 1.415.587h.167a2.005 2.005 0 0 0 1.464-.832l10.013-14.005a2.001 2.001 0 0 0-3.26-2.324L38.729 44.92l-2.335-2.336z"/></g></svg>