<svg width="140" height="140" xmlns="http://www.w3.org/2000/svg"><g fill="#FFF" fill-rule="nonzero"><path d="M133.438 2H6.563A6.562 6.562 0 0 0 0 8.563v96.25C0 106.02.98 107 2.188 107h49.83l-3.5 17.5H43.75c-1.208 0-2.188.98-2.188 2.188v6.562h-4.374v4.375h65.624v-4.375h-4.374v-6.563c0-1.208-.98-2.187-2.188-2.187h-4.772l-3.5-17.5h49.835c1.208 0 2.187-.98 2.187-2.188V8.563A6.562 6.562 0 0 0 133.437 2zm-43.75 126.875h4.374v4.375H45.938v-4.375h43.75zM52.98 124.5l3.497-17.5h27.04l3.5 17.5H52.982zm82.644-21.875H4.375V82.937h131.25v19.688zM105 21.687H87.5c-1.208 0-2.188.98-2.188 2.188v19.688h4.376v-17.5h13.124v8.75h-8.75v4.374h8.75v10.938h-8.75V54.5h8.75v10.938h-8.75v4.374h8.75v8.75H89.689v-17.5h-4.376v17.5h-8.75V67.626c0-8.927 10.842-10.89 11.297-10.968a2.186 2.186 0 0 0 1.516-3.281L69.687 20.563a2.274 2.274 0 0 0-3.75 0L46.25 53.376a2.187 2.187 0 0 0 1.51 3.281c.461.079 11.303 2.04 11.303 10.968v10.938h-8.75v-17.5h-4.376v17.5H43.75V39.187h2.188v4.376h4.374V37c.001-.296-.06-.59-.177-.862l-6.562-15.312a2.187 2.187 0 0 0-4.02 0L32.99 36.138a2.162 2.162 0 0 0-.178.862v41.563h-17.5v-61.25h109.376v61.25h-17.5V23.874c0-1.208-.98-2.188-2.188-2.188zM63.437 72v-2.188h8.75V72h-8.75zm8.75 4.375v2.188h-8.75v-2.188h8.75zm-8.91-10.938C62.23 58.481 56.274 54.72 51.51 53.111l14.116-23.525v18.352H70V29.585L84.116 53.11c-4.769 1.597-10.721 5.37-11.769 12.327h-9.07zM38.314 34.814l3.25-7.582 3.25 7.581h-6.5zm1.062 4.374v39.376h-2.188V39.187h2.188zm96.25 39.376h-6.563V15.124c0-1.208-.979-2.188-2.187-2.188H13.125c-1.208 0-2.188.98-2.188 2.188v63.438H4.375v-70c0-1.209.98-2.188 2.188-2.188h126.874c1.209 0 2.188.98 2.188 2.188v70z"/><path d="M70 85.125a6.562 6.562 0 1 0 0 13.125 6.562 6.562 0 0 0 0-13.125zm0 8.75a2.188 2.188 0 1 1 0-4.375 2.188 2.188 0 0 1 0 4.375z"/></g></svg>