<svg height="140" width="140" xmlns="http://www.w3.org/2000/svg"><g fill="#fff" fill-rule="evenodd"><path d="m13.993 9.328v23.322h4.664v-23.32a4.664 4.664 0 0 1 4.664-4.665h93.283a4.664 4.664 0 0 1 4.665 4.664h4.664a9.329 9.329 0 0 0 -9.329-9.329h-93.283a9.329 9.329 0 0 0 -9.328 9.328z"/><path d="m9.328 139.925h107.276a9.329 9.329 0 0 0 9.329-9.328v-9.328h-4.664v9.328a4.664 4.664 0 1 1 -9.329 0v-6.996a2.331 2.331 0 0 0 -2.332-2.332h-90.951v-46.642h-4.664v46.642h-11.66a2.331 2.331 0 0 0 -2.333 2.331v6.996a9.329 9.329 0 0 0 9.328 9.328zm-4.664-13.992h102.612v4.664a9.26 9.26 0 0 0 1.253 4.664h-99.2a4.664 4.664 0 0 1 -4.665-4.664v-4.664zm-2.332-55.97h46.642a2.331 2.331 0 0 0 2.332-2.332v-27.985a2.331 2.331 0 0 0 -2.332-2.333h-46.642a2.331 2.331 0 0 0 -2.332 2.333v27.984a2.331 2.331 0 0 0 2.332 2.332zm2.332-27.985h41.978v23.32h-41.978z" fill-rule="nonzero"/><path d="m14.676 47.325-4.664 4.664a2.333 2.333 0 0 0 0 3.298l4.664 4.664 3.297-3.298-3.015-3.015 3.015-3.015zm21.954 0-3.297 3.298 3.015 3.015-3.015 3.015 3.297 3.298 4.664-4.664c.91-.911.91-2.386 0-3.298zm-15.523 12.572 4.666-13.994 4.426 1.476-4.668 13.993z"/><path d="m137.593 13.993h-79.29a2.331 2.331 0 0 0 -2.333 2.332v46.641a2.331 2.331 0 0 0 2.332 2.333h79.291a2.331 2.331 0 0 0 2.332-2.333v-46.641a2.331 2.331 0 0 0 -2.332-2.332zm-2.332 46.641h-74.627v-5.676l20.942-12.565 20.417 13.204a2.33 2.33 0 0 0 2.332.112l16.884-8.745 14.052 8.027zm0-11.014-12.826-7.335a2.331 2.331 0 0 0 -2.23-.046l-16.807 8.706-20.5-13.258a2.333 2.333 0 0 0 -2.467-.04l-19.797 11.873v-30.863h74.627z" fill-rule="nonzero"/><path d="m110.774 39.646a8.162 8.162 0 1 0 0-16.325 8.162 8.162 0 0 0 0 16.325zm0-11.66a3.498 3.498 0 1 1 0 6.995 3.498 3.498 0 0 1 0-6.996zm-87.454 48.973v27.985a2.331 2.331 0 0 0 2.333 2.332h58.302a2.331 2.331 0 0 0 2.332-2.332v-27.985a2.331 2.331 0 0 0 -2.332-2.332h-58.302a2.331 2.331 0 0 0 -2.332 2.332zm4.665 2.332h53.638v23.32h-53.638z" fill-rule="nonzero"/><path d="m32.65 83.955h9.328v4.664h-9.329zm13.992 0h20.988v4.664h-20.99zm25.653 0h4.664v4.664h-4.664zm-39.645 9.329h27.984v4.664h-27.984zm32.649 0h11.66v4.664h-11.66zm-41.979-83.956h4.665v4.665h-4.664zm9.33 0h4.663v4.665h-4.663zm9.328 0h4.664v4.665h-4.664zm-18.658 9.329h27.986v4.664h-27.985z"/><path d="m137.593 83.955h-44.31a2.331 2.331 0 0 0 -2.332 2.332v27.985a2.331 2.331 0 0 0 2.333 2.332h44.31a2.331 2.331 0 0 0 2.331-2.332v-27.985a2.331 2.331 0 0 0 -2.332-2.332zm-2.332 27.985h-39.645v-23.32h39.645z" fill-rule="nonzero"/><path d="m100.28 93.284h4.664v4.664h-4.664zm0 9.328h4.664v4.664h-4.664zm9.328-9.328h20.989v4.664h-20.989zm0 9.328h20.989v4.664h-20.989zm11.661-32.649h4.664v9.328h-4.664z"/></g></svg>