<svg width="140" height="140" xmlns="http://www.w3.org/2000/svg"><g fill="#DF504D" fill-rule="evenodd"><path d="M110.829 10.95a8.913 8.913 0 0 0-6.336-2.618c-4.944 0-8.962 4.006-8.962 8.935 0 .151.036.294.045.443-.15-.009-.295-.044-.445-.044-4.944 0-8.962 4.006-8.962 8.934 0 .152.036.294.045.444-.15-.01-.295-.045-.445-.045-4.066 0-7.466 2.73-8.56 6.433L65.106 21.366V20h4.681a2.33 2.33 0 1 0 1.543-4.088L52.605-.422c-.882-.77-2.2-.77-3.083 0L30.798 15.91A2.331 2.331 0 0 0 32.338 20h4.682v116.668A2.338 2.338 0 0 0 39.36 139h23.405a2.338 2.338 0 0 0 2.34-2.333V46.632l7.022 7v13.034c0 .619.245 1.213.685 1.65l11.703 11.667a2.338 2.338 0 0 0 1.654.683h10.734l6.335 6.317a2.34 2.34 0 0 0 1.655.683 2.34 2.34 0 0 0 1.655-.683l32.766-32.667c.44-.437.686-1.031.686-1.65V40.999c0-.618-.246-1.213-.686-1.65L110.83 10.95zM60.424 134.333H41.701V17.666a2.338 2.338 0 0 0-2.34-2.334h-.792L51.062 4.433l12.494 10.9h-.791a2.338 2.338 0 0 0-2.34 2.333v.467c-.878-.283-1.794-.467-2.741-.467-4.944 0-8.962 4.006-8.962 8.934 0 2.385.931 4.63 2.626 6.317l9.076 9.048v92.368zM135.32 51.7l-30.426 30.333-5.367-5.35A2.338 2.338 0 0 0 97.872 76H87.138l-10.33-10.3v-7.4l3.026 3.017 3.31-3.3-28.486-28.399a4.231 4.231 0 0 1-1.255-3.017 4.277 4.277 0 0 1 4.28-4.268c1.142 0 2.217.444 3.027 1.251l28.485 28.4 3.31-3.3-9.762-9.732a4.231 4.231 0 0 1-1.255-3.017 4.277 4.277 0 0 1 4.281-4.268c1.142 0 2.216.443 3.027 1.25l9.761 9.733 3.31-3.3-9.762-9.732A4.231 4.231 0 0 1 90.85 26.6a4.277 4.277 0 0 1 4.281-4.268c1.142 0 2.216.444 3.026 1.251l9.762 9.733 3.31-3.3-9.762-9.732a4.231 4.231 0 0 1-1.255-3.017 4.277 4.277 0 0 1 4.281-4.268c1.142 0 2.216.443 3.026 1.251l27.8 27.715V51.7zM2.333 139h23.334A2.343 2.343 0 0 0 28 136.65v-42.3A2.343 2.343 0 0 0 25.667 92H2.333A2.343 2.343 0 0 0 0 94.35v42.3A2.343 2.343 0 0 0 2.333 139zm2.334-42.3h18.666v37.6H4.667V96.7z" fill-rule="nonzero"/><path d="M100.667 139a2.343 2.343 0 0 0 2.333-2.35v-42.3a2.343 2.343 0 0 0-2.333-2.35H77.333A2.343 2.343 0 0 0 75 94.35v42.3a2.343 2.343 0 0 0 2.333 2.35h23.334zm-21-42.3h18.666v37.6H79.667V96.7zM137.667 92h-23.334A2.343 2.343 0 0 0 112 94.35v42.3a2.343 2.343 0 0 0 2.333 2.35h23.334a2.343 2.343 0 0 0 2.333-2.35v-42.3a2.343 2.343 0 0 0-2.333-2.35zm-2.334 42.3h-18.666V96.7h18.666v37.6z" fill-rule="nonzero"/><path d="M28 27h5v26h-5zM28 57h5v5h-5zM16 36h5v26h-5zM16 66h5v5h-5z"/></g></svg>