<svg width="140" height="140" xmlns="http://www.w3.org/2000/svg"><g fill="#FFF" fill-rule="evenodd"><path d="M115.43 136.114a2.29 2.29 0 0 0-1.609-.667c-.599 0-1.186.244-1.61.667a2.295 2.295 0 0 0-.666 1.61c0 .598.243 1.186.667 1.609.423.423 1.01.667 1.61.667.598 0 1.185-.244 1.609-.667.425-.423.667-1.01.667-1.61 0-.598-.242-1.185-.667-1.609zM138.105 45.853a10.719 10.719 0 0 0-7.032-4.516c-4.664-.82-9.223 1.51-11.384 5.502V18.015c0-5.84-4.766-10.592-10.624-10.592-1.916 0-3.713.511-5.267 1.4C102.95 3.822 98.578 0 93.324 0 88.071 0 83.7 3.822 82.851 8.823a10.58 10.58 0 0 0-5.267-1.4c-5.507 0-10.048 4.2-10.573 9.556a10.582 10.582 0 0 0-5.167-1.342c-5.859 0-10.624 4.751-10.624 10.591a2.736 2.736 0 0 0 2.74 2.732 2.736 2.736 0 0 0 2.74-2.732c0-2.828 2.307-5.128 5.144-5.128a5.146 5.146 0 0 1 5.116 4.597v7.283a2.736 2.736 0 0 0 2.74 2.731 2.736 2.736 0 0 0 2.74-2.731V18.015c0-2.828 2.308-5.128 5.144-5.128a5.146 5.146 0 0 1 5.116 4.597v21.252c0 .126.028 1.034.028 1.034a2.736 2.736 0 0 0 2.74 2.732 2.736 2.736 0 0 0 2.74-2.732V18.015c0-.244-.011-.486-.028-.727v-6.696c0-2.828 2.308-5.129 5.144-5.129 2.837 0 5.144 2.301 5.144 5.129v6.696c-.016.24-.028.483-.028.727v38.417a2.736 2.736 0 0 0 2.74 2.732 2.736 2.736 0 0 0 2.74-2.732l.028-38.949a5.146 5.146 0 0 1 5.117-4.596c2.837 0 5.144 2.3 5.144 5.128v40.408c0 1.998 1.444 3.622 3.434 3.862 1.988.24 3.78-.995 4.257-2.936l2.133-8.674c.665-2.703 3.337-4.442 6.088-3.958a5.28 5.28 0 0 1 3.464 2.224 5.248 5.248 0 0 1 .83 4.022l-4.128 20.871a35.628 35.628 0 0 1-9.87 18.416l-8.524 8.474a2.727 2.727 0 0 0-.805 1.934v24.366a2.736 2.736 0 0 0 2.74 2.732 2.736 2.736 0 0 0 2.74-2.732v-23.232l7.718-7.673a41.068 41.068 0 0 0 11.378-21.227l4.128-20.871a10.659 10.659 0 0 0-1.687-8.168zM81.455 84.228c-1.53 0-2.772 1.23-2.772 2.747v8.058c0 9.036-3.556 17.526-10.013 23.906l-5.254 5.192a2.734 2.734 0 0 0-.814 1.945v11.177c0 1.517 1.241 2.747 2.772 2.747 1.53 0 2.772-1.23 2.772-2.747v-10.036l4.439-4.386c7.508-7.42 11.643-17.291 11.643-27.798v-8.058c0-1.517-1.242-2.747-2.773-2.747z"/><path d="M82.422 75.789a2.294 2.294 0 0 0-1.609-.667c-.599 0-1.186.244-1.61.667a2.294 2.294 0 0 0-.666 1.61c0 .598.243 1.185.667 1.609.423.423 1.01.667 1.609.667s1.186-.244 1.61-.667c.423-.424.666-1.01.666-1.61 0-.598-.243-1.186-.667-1.61zM74.028 44.284c-1.717 0-3.334.424-4.755 1.17-.61-5-4.916-8.886-10.122-8.886-1.76 0-3.416.444-4.862 1.224-.904-4.663-5.05-8.199-10.015-8.199-4.966 0-9.112 3.536-10.015 8.2a10.208 10.208 0 0 0-4.862-1.225c-5.624 0-10.2 4.534-10.2 10.108v26.496a10.435 10.435 0 0 0-10.629-4.74 10.295 10.295 0 0 0-6.75 4.31A10.12 10.12 0 0 0 .2 80.533l3.902 19.609c1.516 7.617 5.25 14.541 10.798 20.024l7.248 7.163v9.947c0 1.504 1.23 2.723 2.748 2.723 1.517 0 2.748-1.22 2.748-2.723v-11.078c0-.723-.291-1.417-.808-1.928l-8.056-7.96a33.255 33.255 0 0 1-9.286-17.222L5.591 79.48a4.754 4.754 0 0 1 .761-3.66 4.836 4.836 0 0 1 3.17-2.024c2.517-.44 4.965 1.142 5.574 3.602l2.016 8.15c.47 1.9 2.232 3.111 4.196 2.876 1.961-.235 3.385-1.826 3.385-3.784V46.676c0-2.57 2.11-4.662 4.704-4.662 2.426 0 4.43 1.831 4.677 4.173v19.956c0 1.504 1.23 2.723 2.748 2.723h.026c1.517 0 2.748-1.22 2.748-2.723V46.675c0-.231-.01-.46-.026-.688v-6.286c0-2.57 2.11-4.662 4.704-4.662 2.593 0 4.704 2.091 4.704 4.662v6.286a10.01 10.01 0 0 0-.027.688v19.468c0 1.504 1.23 2.723 2.748 2.723h.026c1.518 0 2.748-1.22 2.748-2.723V46.187c.247-2.342 2.25-4.173 4.677-4.173 2.594 0 4.704 2.09 4.704 4.662l-.026 19.467c0 1.504 1.23 2.723 2.748 2.723h.027c1.517 0 2.747-1.219 2.747-2.723v-12.24c.248-2.341 2.25-4.173 4.678-4.173 2.594 0 4.704 2.091 4.704 4.662v12.72c0 1.504 1.23 2.723 2.748 2.723 1.517 0 2.748-1.22 2.748-2.723v-12.72c0-5.573-4.576-10.108-10.2-10.108zM41.289 15.679L26.435.825a2.817 2.817 0 0 0-3.984 3.984l14.854 14.854c.55.55 1.271.825 1.992.825a2.817 2.817 0 0 0 1.992-4.809zM31.327 22.764h-6.881c-1.557 0-2.82 1.02-2.82 2.277 0 1.257 1.263 2.276 2.82 2.276h6.88c1.558 0 2.82-1.02 2.82-2.276 0-1.258-1.262-2.277-2.82-2.277zM46.667 0C45.41 0 44.39 1.24 44.39 2.769V9.75c0 1.53 1.02 2.77 2.277 2.77 1.257 0 2.276-1.24 2.276-2.77V2.77c0-1.53-1.02-2.769-2.276-2.769z"/></g></svg>
