<svg width="130" height="130" xmlns="http://www.w3.org/2000/svg"><g fill="#FFF" fill-rule="evenodd"><path d="M23.192 38.096c0 6.629 5.39 12.02 12.02 12.02 6.628 0 12.019-5.391 12.019-12.02 0-6.628-5.39-12.02-12.02-12.02-6.628 0-12.019 5.392-12.019 12.02zm20.032 0c0 4.42-3.593 8.013-8.012 8.013-4.42 0-8.013-3.594-8.013-8.013 0-4.419 3.593-8.013 8.013-8.013 4.419 0 8.012 3.594 8.012 8.013z" fill-rule="nonzero"/><path d="M62.828 57.963l13.64-13.891a2.008 2.008 0 0 0 0-2.806l-5.846-5.954a1.922 1.922 0 0 0-2.646-.103L54.563 46.917l-12.995 5.674H18.587c-.564 0-1.095.246-1.466.678L3.483 69.145A2.008 2.008 0 0 0 3.1 71.08l5.845 17.86c.18.544.58.984 1.103 1.205a1.936 1.936 0 0 0 1.617-.058l7.793-3.969a1.962 1.962 0 0 0 1.076-1.738v33.698c0 5.47 4.37 9.922 9.742 9.922h15.587c1.075 0 1.948-.887 1.948-1.984V65.724l14.51-7.39c.189-.093.358-.22.506-.371zm-42.293 26.34c0-.235-.049-.469-.138-.7l-3.476-8.846 3.614-4.602v14.147zM44.993 62.72a1.99 1.99 0 0 0-1.077 1.777v59.533h-7.794V92.28c0-1.098-.873-1.985-1.948-1.985-1.076 0-1.949.887-1.949 1.985v31.751h-1.948c-3.223 0-5.845-2.671-5.845-5.953v-53.58c0-.844-.522-1.594-1.304-1.872a1.927 1.927 0 0 0-2.166.631l-7.794 9.922a2.018 2.018 0 0 0-.288 1.977l3.232 8.228-4.181 2.129-4.781-14.61L19.47 56.56h22.496c.263 0 .526-.054.768-.161l13.638-5.953c.182-.08.351-.187.501-.318l12.27-10.708 3.19 3.249-12.037 12.26-15.304 7.792zM128 100.404c0-6.523-5.337-11.827-11.899-11.827a11.915 11.915 0 0 0-9.916 5.302 11.91 11.91 0 0 0-9.916-5.302 11.915 11.915 0 0 0-9.916 5.302 11.91 11.91 0 0 0-9.915-5.302c-6.563 0-11.9 5.304-11.9 11.827 0 4.112 2.124 7.735 5.335 9.856-3.213 2.12-5.335 5.744-5.335 9.855V128h3.967v-7.885c0-4.348 3.558-7.884 7.933-7.884 4.374 0 7.932 3.536 7.932 7.884V128h3.967v-7.885c0-4.348 3.557-7.884 7.932-7.884s7.933 3.536 7.933 7.884V128h3.966v-7.885c0-4.348 3.558-7.884 7.933-7.884s7.933 3.536 7.933 7.884V128H128v-7.885c0-4.111-2.124-7.734-5.335-9.855 3.211-2.121 5.335-5.744 5.335-9.856zm-31.73-7.885c4.374 0 7.932 3.536 7.932 7.885 0 4.348-3.558 7.884-7.933 7.884s-7.932-3.536-7.932-7.884c0-4.349 3.56-7.885 7.932-7.885zm-27.765 7.885c0-4.349 3.558-7.885 7.933-7.885 4.374 0 7.932 3.536 7.932 7.885 0 4.348-3.558 7.884-7.933 7.884-4.374 0-7.932-3.536-7.932-7.884zm17.848 13.187a11.95 11.95 0 0 0-3.351-3.331 11.95 11.95 0 0 0 3.351-3.332 11.95 11.95 0 0 0 3.352 3.332 11.95 11.95 0 0 0-3.352 3.33zm19.832 0a11.95 11.95 0 0 0-3.351-3.331 11.95 11.95 0 0 0 3.351-3.332 11.95 11.95 0 0 0 3.352 3.332 11.95 11.95 0 0 0-3.352 3.33zm9.916-5.303c-4.375 0-7.933-3.536-7.933-7.884 0-4.349 3.558-7.885 7.933-7.885s7.933 3.536 7.933 7.885c0 4.348-3.558 7.884-7.933 7.884z" fill-rule="nonzero"/><path d="M126.052 3H53.986c-1.075 0-1.948.885-1.948 1.98v37.613h3.896V6.959h68.17v53.45c0 3.275-2.621 5.94-5.843 5.94h-60.38v3.959h60.38c5.37 0 9.739-4.44 9.739-9.898V4.98c0-1.095-.873-1.98-1.948-1.98z"/><path d="M85.123 11.654H65.536a1.96 1.96 0 0 0-1.96 1.963v7.853a1.96 1.96 0 0 0 1.96 1.963h19.587a1.96 1.96 0 0 0 1.958-1.963v-1.964h5.876v1.964a1.96 1.96 0 0 0 1.959 1.963h7.835v5.89h-7.835a1.96 1.96 0 0 0-1.959 1.962v7.853a1.96 1.96 0 0 0 1.959 1.963h7.835v5.89h-7.835a1.96 1.96 0 0 0-1.959 1.963v7.852a1.96 1.96 0 0 0 1.959 1.963h19.587a1.96 1.96 0 0 0 1.959-1.963v-7.852a1.96 1.96 0 0 0-1.96-1.964h-7.834v-5.889h7.835a1.96 1.96 0 0 0 1.959-1.963v-7.853a1.96 1.96 0 0 0-1.96-1.963h-7.834v-5.89h7.835a1.96 1.96 0 0 0 1.959-1.962v-7.853a1.96 1.96 0 0 0-1.96-1.963H94.917a1.96 1.96 0 0 0-1.959 1.963v1.963h-5.876v-1.963a1.96 1.96 0 0 0-1.958-1.963zm-1.96 7.852H67.495V15.58h15.67v3.926zm29.381 35.337h-15.67v-3.926h15.67v3.926zm0-17.668h-15.67v-3.927h15.67v3.927zM96.874 15.58h15.67v3.926h-15.67V15.58z" fill-rule="nonzero"/><path d="M65.5 28.962h21.154v3.846H65.5zM78.962 35.692h7.692v3.846h-7.692zM81.846 44.346h5.769v3.846h-5.769zM76.077 52.038h10.577v3.846H76.077z"/><path d="M11.484 22.23h.933l5.04 6.924c.36.492.916.77 1.493.77.196 0 .396-.034.59-.1A1.915 1.915 0 0 0 20.817 28v-5.77h11.199c3.087 0 5.6-2.588 5.6-5.768V8.769c0-3.18-2.513-5.769-5.6-5.769H11.484c-3.087 0-5.6 2.588-5.6 5.77v7.692c0 3.18 2.513 5.769 5.6 5.769zM9.618 8.77c0-1.062.838-1.924 1.866-1.924h20.532c1.028 0 1.866.862 1.866 1.923v7.693c0 1.061-.838 1.923-1.866 1.923H18.95c-1.03 0-1.866.86-1.866 1.923v1.923l-2.24-3.077a1.847 1.847 0 0 0-1.493-.77h-1.867c-1.028 0-1.866-.86-1.866-1.922V8.769z" fill-rule="nonzero"/><path d="M11.654 9.731h18.269v3.846H11.654z"/></g></svg>
