<svg width="130" height="130" xmlns="http://www.w3.org/2000/svg"><g fill="none" fill-rule="evenodd"><path d="M114.994 92.87l-.023-29.902c-.008-3.847-3.121-6.963-6.962-6.968a6.954 6.954 0 0 0-6.855 5.762l-3.86 21.913a6.24 6.24 0 0 0-4.43 1.095l-13.17 9.279a1.637 1.637 0 0 0-.694 1.34v17.972c0 .905.733 1.639 1.636 1.639h16.361c.904 0 1.636-.734 1.636-1.639v-2.073l10.771-6.87a13.874 13.874 0 0 0 5.59-11.548zm-7.38 8.804l-11.496 7.331a1.641 1.641 0 0 0-.757 1.383v1.334H82.272V96.24l12.474-8.789a3.003 3.003 0 0 1 4.187.733 3.014 3.014 0 0 1-.655 4.139l-8.807 6.616 1.963 2.622 8.808-6.617a6.296 6.296 0 0 0 .142-9.952l3.992-22.66a3.69 3.69 0 0 1 7.322.639l.023 29.9a10.57 10.57 0 0 1-4.108 8.803zM51.305 94.05L38.136 84.77a6.24 6.24 0 0 0-4.43-1.095l-3.86-21.913c-.668-3.793-4.279-6.325-8.065-5.656a6.97 6.97 0 0 0-5.752 6.862l-.023 29.903a13.882 13.882 0 0 0 5.623 11.568l10.738 6.848v2.073c0 .905.732 1.639 1.636 1.639h16.36c.904 0 1.637-.734 1.637-1.639V95.39c0-.534-.26-1.034-.695-1.34zm-2.577 17.672H35.639v-1.334c0-.56-.286-1.082-.757-1.383l-11.462-7.308a10.577 10.577 0 0 1-4.142-8.823l.023-29.902a3.692 3.692 0 0 1 3.692-3.693 3.69 3.69 0 0 1 3.63 3.054l3.992 22.66a6.296 6.296 0 0 0 .142 9.952l8.808 6.616 1.964-2.622-8.808-6.616a3.014 3.014 0 0 1-.6-4.215 3.003 3.003 0 0 1 4.133-.657l12.474 8.79v15.481z" fill="#EAEAEA" fill-rule="nonzero"/><path d="M65.108 16H65l.108 2.554c2.094 0 4.183.15 6.239.446L72 16.493A48.168 48.168 0 0 0 65.108 16zM58.364 17A33.355 33.355 0 0 0 52 18.976L53.247 22A30.234 30.234 0 0 1 59 20.215L58.364 17zM87.692 73A31.72 31.72 0 0 1 83 77.112L84.817 80A35.117 35.117 0 0 0 90 75.458L87.692 73zM78.21 19L77 22.087A29.882 29.882 0 0 1 82.237 25L84 22.22A32.92 32.92 0 0 0 78.21 19zM96.459 50.142c0 2.084-.154 4.163-.459 6.208l2.493.65c.337-2.259.507-4.555.507-6.858V50l-2.541.142zM89.446 26L87 28.316c1.533 1.432 2.914 3 4.123 4.684L94 31.173A35.102 35.102 0 0 0 89.446 26zM76.759 79A30.215 30.215 0 0 1 71 80.777L71.63 84A33.42 33.42 0 0 0 78 82.034L76.759 79zM97.02 37L94 38.25A30.285 30.285 0 0 1 95.79 44l3.21-.64A33.53 33.53 0 0 0 97.02 37zM93.924 62A29.91 29.91 0 0 1 91 67.23L93.769 69A33.09 33.09 0 0 0 97 63.22L93.924 62zM65.964 82.455c-2.116 0-4.227-.152-6.304-.455L59 84.498c2.294.334 4.626.502 6.964.502H66l-.036-2.545zM39.884 68L37 69.821A35.124 35.124 0 0 0 41.547 75L44 72.69A31.74 31.74 0 0 1 39.884 68zM46.177 21A35.03 35.03 0 0 0 41 25.551L43.314 28A31.702 31.702 0 0 1 48 23.881L46.177 21zM32.497 43A48.301 48.301 0 0 0 32 49.928V50l2.55-.072c0-2.106.15-4.206.45-6.273L32.497 43zM36.224 31A32.983 32.983 0 0 0 33 36.787L36.084 38A29.733 29.733 0 0 1 39 32.766L36.224 31zM35.218 56L32 56.634A33.406 33.406 0 0 0 33.97 63L37 61.756A30.252 30.252 0 0 1 35.218 56zM47.769 76L46 78.771A33.021 33.021 0 0 0 51.783 82L53 78.92A29.81 29.81 0 0 1 47.769 76z" fill="#FFF"/><path d="M90 44.412c0-5.056-3.18-10.479-8.424-11.395-.507-5.62-5.236-9.948-10.944-10.017A11.05 11.05 0 0 0 65 24.535 11.05 11.05 0 0 0 59.368 23c-5.891.084-10.76 4.564-11.264 10.366-4.87 1.513-8.163 6-8.103 11.046A11.637 11.637 0 0 0 42.043 51 11.637 11.637 0 0 0 40 57.588c0 5.056 3.178 10.479 8.423 11.395.507 5.62 5.236 9.948 10.944 10.017A11.05 11.05 0 0 0 65 77.465 11.05 11.05 0 0 0 70.632 79c5.891-.084 10.76-4.564 11.264-10.366 4.87-1.513 8.163-6 8.103-11.046A11.637 11.637 0 0 0 87.957 51 11.638 11.638 0 0 0 90 44.412zm-26.667-6.588c0 1.819-1.492 3.294-3.333 3.294-1.84 0-3.333-1.475-3.333-3.294h-3.333c.004 3.636 2.986 6.584 6.666 6.588a6.647 6.647 0 0 0 3.333-.917v31.09a7.71 7.71 0 0 1-3.965 1.12c-3.909-.085-7.148-3.02-7.575-6.86 3.539-.969 5.613-4.59 4.632-8.087-.8-2.852-3.43-4.824-6.425-4.817v3.294c1.841 0 3.334 1.475 3.334 3.294 0 1.82-1.493 3.295-3.334 3.295-3.987 0-6.666-4.259-6.666-8.236a8.36 8.36 0 0 1 2.066-5.51 1.63 1.63 0 0 0 0-2.156 8.36 8.36 0 0 1-2.066-5.51c-.074-3.95 2.744-7.377 6.671-8.113a1.807 1.807 0 0 0 1.375-1.77c-.088-4.451 3.484-8.134 7.988-8.235 1.4.007 2.773.395 3.965 1.121v10.409zM84.6 52.078a8.36 8.36 0 0 1 2.066 5.51c.074 3.95-2.744 7.377-6.671 8.113a1.807 1.807 0 0 0-1.375 1.77c.088 4.451-3.484 8.134-7.988 8.235a7.708 7.708 0 0 1-3.965-1.121V55.94c0-1.819 1.492-3.294 3.333-3.294 1.84 0 3.333 1.475 3.333 3.294h3.333c-.004-3.637-2.986-6.584-6.666-6.588a6.647 6.647 0 0 0-3.333.917V27.415a7.71 7.71 0 0 1 3.965-1.12c3.909.085 7.148 3.02 7.575 6.86-3.539.969-5.613 4.59-4.632 8.087.8 2.852 3.43 4.824 6.425 4.817v-3.294c-1.841 0-3.334-1.475-3.334-3.294 0-1.82 1.493-3.295 3.334-3.295 3.987 0 6.666 4.259 6.666 8.236a8.36 8.36 0 0 1-2.066 5.51 1.63 1.63 0 0 0 0 2.156z" fill="#FFF" fill-rule="nonzero"/></g></svg>
