<svg width="140" height="140" xmlns="http://www.w3.org/2000/svg"><g fill="#FFF" fill-rule="evenodd"><path d="M137.758 36.697l-.005-.005-9.02-1.287a2.319 2.319 0 0 1-1.065-4.15l7.29-5.469a2.319 2.319 0 0 0 .465-3.246l-8.348-11.13a2.319 2.319 0 0 0-3.247-.464l-7.288 5.468a2.319 2.319 0 0 1-3.696-2.182l1.29-9.02a2.32 2.32 0 0 0-1.967-2.625h-.002L98.4.62a2.319 2.319 0 0 0-2.625 1.966l-1.29 9.02a2.319 2.319 0 0 1-4.15 1.065l-5.465-7.29a2.319 2.319 0 0 0-3.247-.464l-6.968 5.229a44.866 44.866 0 0 0-9.484 0c-20.645 2.36-36.835 18.824-38.848 39.506-.062.656-.085 1.308-.118 1.96h-.695a2.319 2.319 0 0 0-2.268 1.854l-1.603 7.62-6.418-4.427a2.319 2.319 0 0 0-2.957.27l-6.956 6.956a2.319 2.319 0 0 0-.27 2.954l4.407 6.407-7.622 1.602A2.319 2.319 0 0 0 0 77.118v9.276c0 1.097.768 2.044 1.841 2.27l7.622 1.602-4.406 6.407a2.319 2.319 0 0 0 .27 2.955l6.956 6.956a2.319 2.319 0 0 0 2.956.269l6.407-4.417 1.603 7.622a2.319 2.319 0 0 0 2.268 1.855h9.275a2.319 2.319 0 0 0 2.27-1.841l1.602-7.622 6.407 4.405c.921.635 2.163.522 2.955-.269l3.6-3.612v6.608a9.245 9.245 0 0 0 4.638 7.986v12.884a9.275 9.275 0 0 0 9.276 9.275h9.275a9.275 9.275 0 0 0 9.275-9.275v-12.884a9.245 9.245 0 0 0 4.638-7.986v-9.178a11.362 11.362 0 0 1 5.364-9.465 44.5 44.5 0 0 0 5.458-4.174l-3.093-3.455a39.475 39.475 0 0 1-4.886 3.736 15.972 15.972 0 0 0-7.48 13.358v9.178a4.638 4.638 0 0 1-4.638 4.638H60.902a4.638 4.638 0 0 1-4.638-4.638v-9.37a15.601 15.601 0 0 0-7.355-13.088C30.53 75.576 24.993 51.315 36.541 32.937A39.302 39.302 0 0 1 69.68 14.545a2.521 2.521 0 0 0-.09.252 2.319 2.319 0 0 0 .442 1.719l5.466 7.288a2.27 2.27 0 0 1 .139 2.574 2.305 2.305 0 0 1-2.319 1.115l-9.02-1.29a2.32 2.32 0 0 0-2.625 1.967v.002l-1.969 13.772a2.32 2.32 0 0 0 1.966 2.625h.003l9.02 1.29a2.319 2.319 0 0 1 1.065 4.15l-7.289 5.465a2.319 2.319 0 0 0-.463 3.247l8.347 11.13a2.319 2.319 0 0 0 3.247.464l7.29-5.465a2.319 2.319 0 0 1 3.685 2.182l-1.287 9.02a2.319 2.319 0 0 0 1.966 2.625l13.774 1.969c.109.013.218.02.327.02a2.319 2.319 0 0 0 2.298-1.99l1.287-9.02a2.319 2.319 0 0 1 4.15-1.064l5.469 7.288a2.319 2.319 0 0 0 3.246.464l11.13-8.348a2.319 2.319 0 0 0 .464-3.246l-5.465-7.288a2.28 2.28 0 0 1-.14-2.574 2.252 2.252 0 0 1 2.32-1.113l9.02 1.287a2.32 2.32 0 0 0 2.625-1.966l1.966-13.775a2.319 2.319 0 0 0-1.966-2.624zm-76.856 82.16h18.55v4.638h-18.55v-4.637zm0 9.276h18.55v2.319a4.638 4.638 0 0 1-4.637 4.638H65.54a4.638 4.638 0 0 1-4.638-4.638v-2.319zm-18.46-39.988c1.266 1.035 2.589 2 3.963 2.887a11.319 11.319 0 0 1 4.672 5.934l-4.974 4.964-4.816-3.32a4.638 4.638 0 0 0-7.17 2.863l-1.215 5.79H27.39l-1.215-5.78a4.638 4.638 0 0 0-7.17-2.864l-4.818 3.311-4.225-4.216 3.318-4.813a4.638 4.638 0 0 0-2.861-7.173l-5.781-1.217v-5.51l5.78-1.217a4.638 4.638 0 0 0 2.864-7.158l-3.32-4.828 4.225-4.216 4.82 3.32a4.638 4.638 0 0 0 7.168-2.865l.406-1.93a44.159 44.159 0 0 0 1.839 7.864c-7.63.91-13.078 7.832-12.168 15.462.91 7.63 7.832 13.078 15.462 12.168a13.914 13.914 0 0 0 10.728-7.456zm-3.601-3.268a9.262 9.262 0 1 1-8.696-12.396h.088a43.917 43.917 0 0 0 8.608 12.396zm94.64-34.74l-6.724-.96a6.957 6.957 0 0 0-6.548 11.06l4.074 5.433-7.42 5.566-4.077-5.431a6.956 6.956 0 0 0-12.452 3.188l-.94 6.734-9.18-1.312.96-6.725a6.956 6.956 0 0 0-11.06-6.55l-5.433 4.074-5.566-7.42 5.431-4.077a6.956 6.956 0 0 0-3.188-12.452l-6.725-.96 1.313-9.18 6.724.96a6.956 6.956 0 0 0 6.55-11.062l-4.087-5.437 7.42-5.565 4.077 5.433a6.956 6.956 0 0 0 12.452-3.189l.96-6.724 9.18 1.31-.96 6.724a6.956 6.956 0 0 0 11.06 6.549l5.434-4.074 5.565 7.42-5.433 4.076A6.956 6.956 0 0 0 128.077 40l6.724.96-1.32 9.178z" fill-rule="nonzero"/><path d="M99.71 22.079c-10.245 0-18.55 8.305-18.55 18.55 0 10.245 8.305 18.551 18.55 18.551 10.245 0 18.55-8.306 18.55-18.55-.01-10.241-8.31-18.54-18.55-18.551zm0 32.463c-7.684 0-13.913-6.229-13.913-13.913s6.23-13.913 13.913-13.913c7.684 0 13.913 6.23 13.913 13.913-.009 7.68-6.233 13.904-13.913 13.913z" fill-rule="nonzero"/><path d="M67.859 102.626h4.638v6.957h-4.638zM60.035 79.852C45.72 74.261 38.649 58.123 44.24 43.81a27.827 27.827 0 0 1 11.096-13.424l-2.479-3.924c-15.17 9.557-19.72 29.602-10.164 44.772a32.464 32.464 0 0 0 15.657 12.935 14.804 14.804 0 0 1 9.508 13.82h4.637a19.402 19.402 0 0 0-12.461-18.136zM114.235 86.394h16.232v4.638h-16.232zM110.433 102.087l2.968-3.563 13.914 11.592-2.968 3.563zM100.322 104.945h4.638v16.232h-4.638zM2.368 40.084l18.55-4.637 1.123 4.497-18.55 4.637zM6.22 16.398l2.694-3.772 16.23 11.593-2.694 3.772zM26.088 1.168L30.58.02l4.742 18.55-4.493 1.148z"/></g></svg>
