<svg width="140" height="140" xmlns="http://www.w3.org/2000/svg"><g fill="#DF504D" fill-rule="evenodd"><path d="M51.015 49h1.86C54.047 49 55 48.118 55 47.03c0-1.089-.952-1.972-2.126-1.972h-.623v-4.087c0-1.09-.95-1.971-2.125-1.971-1.174 0-2.126.882-2.126 1.97v5.236C48 47.746 49.352 49 51.015 49zM60.688 56.124a2.05 2.05 0 0 0-.624-2.808 1.997 1.997 0 0 0-2.775.632c-1.132 1.81-3.6 2.98-6.29 2.98-2.687 0-5.156-1.17-6.288-2.98a1.997 1.997 0 0 0-2.775-.632 2.05 2.05 0 0 0-.624 2.808C43.192 59.132 46.904 61 50.999 61c4.097 0 7.809-1.868 9.69-4.876zM63 40c1.105 0 2-.836 2-1.87v-2.26c0-1.034-.895-1.87-2-1.87-1.104 0-2 .836-2 1.87v2.26c0 1.034.896 1.87 2 1.87zM38 34c-1.105 0-2 .836-2 1.87v2.26c0 1.034.895 1.87 2 1.87 1.104 0 2-.836 2-1.87v-2.26c0-1.034-.896-1.87-2-1.87zM102.651 82h1.336c1.112 0 2.013-.93 2.013-2.077 0-1.134-.881-2.056-1.975-2.076v-2.77c0-1.148-.901-2.077-2.012-2.077-1.112 0-2.013.93-2.013 2.077v4.188c0 1.507 1.19 2.735 2.651 2.735zM109.691 87.1a2.037 2.037 0 0 0-.618-2.787 1.975 1.975 0 0 0-2.748.626c-.766 1.228-2.463 2.021-4.326 2.021-1.86 0-3.558-.793-4.324-2.02a1.975 1.975 0 0 0-2.748-.627 2.037 2.037 0 0 0-.618 2.787c1.501 2.406 4.447 3.9 7.69 3.9 3.244 0 6.19-1.495 7.692-3.9zM112 75c1.104 0 2-.864 2-1.931V71.93c0-1.066-.896-1.931-2-1.931-1.105 0-2 .865-2 1.931v1.138c0 1.067.895 1.931 2 1.931zM95 73.069V71.93C95 70.865 94.104 70 93 70c-1.105 0-2 .865-2 1.931v1.138c0 1.067.895 1.931 2 1.931 1.104 0 2-.864 2-1.931z"/><path d="M135.746 110.386a2.067 2.067 0 0 0-2.993 2.848c2.424 2.545 4.115 6.406 4.115 9.39v11.245h-6.845v-7.021a2.065 2.065 0 1 0-4.13 0l-.001 7.021H78.23v-7.021a2.065 2.065 0 1 0-4.13 0v7.021h-6.846v-11.246c0-3.736 2.599-8.63 5.697-10.76 3.17-1.601 6.49-2.946 9.886-4.006 3.447 3.63 10.61 5.909 18.898 5.909 8.307 0 15.65-2.389 19.036-6.065.026.007 2.916.939 4.292 1.464a2.067 2.067 0 0 0 2.665-1.194c.407-1.066-.137-2.237-1.194-2.667-2.809-1.143-10.01-2.997-11.992-3.363-1.438-.266-2.637-1.28-2.482-3.815a22.55 22.55 0 0 0 11.257-7.007 22.51 22.51 0 0 0 5.52-14.772v-14.4c0-1.183-.105-2.375-.313-3.552a5.145 5.145 0 0 0-.783-4.157 5.25 5.25 0 0 0-.848-.952 20.209 20.209 0 0 0-20.009-11.478h-9.646a20.274 20.274 0 0 0-11.995 2.723V22.967c0-7.28-3.084-14.27-8.46-19.177a26.029 26.029 0 0 0-19.867-6.684c-2.096.19-4.195.388-6.3.416-2.1.029-4.183-.225-6.271-.416A26.022 26.022 0 0 0 24.478 3.79a26.021 26.021 0 0 0-8.46 19.177v58.759a90.192 90.192 0 0 0-6.044 2.791A18.138 18.138 0 0 0 0 100.764v2.655a2.066 2.066 0 0 0 4.131 0v-2.655a14.025 14.025 0 0 1 7.713-12.563 85.716 85.716 0 0 1 13.673-5.518c4.275 4.761 13.883 7.878 24.685 7.878 11.007 0 20.677-3.196 24.862-8.081l.22.065v12.043c0 2.36 1.92 4.28 4.28 4.28h12.498c0 1.454-1.065 2.713-2.482 3.072-13.778 3.494-18.757 6.375-18.824 6.42-4.281 2.853-7.635 9.118-7.635 14.263v11.246H19.352v-21.458a2.066 2.066 0 0 0-4.131 0v21.458H4.13v-20.834a2.066 2.066 0 0 0-4.131 0v21.107A3.863 3.863 0 0 0 3.858 138h133.284a3.863 3.863 0 0 0 3.858-3.858v-11.519c0-4.018-2.112-8.936-5.254-12.237zM91.889 92.4c-2.917-2.228-6.393-6.14-6.393-12.133l-.051-13.249c4.884.586 16.488 1.02 22.44-6.83l.537-.021c.228.191 4 2.018 5.373 2.26 1.255 1.663 3.892 4.43 4.87 4.958l-.038 12.89c0 5.985-3.477 9.897-6.394 12.125-3.61 2.76-7.79 4.08-10.172 4.145-2.382-.065-6.561-1.385-10.172-4.145zm10.17-37.596l2.373-5.638c.288-.683 1.243-.842 1.738-.292l3.232 3.588-1.512 3.592-4.826.198c-.728.03-1.3-.747-1.005-1.448zm16.561 1.538l4.827-.198c.754-.041 1.292.765 1.005 1.448l-2.373 5.637c-.292.694-1.237.85-1.738.294l-3.232-3.59 1.511-3.59zm4.173 12.623a2.37 2.37 0 0 1 1.913 2.324v2.096a2.37 2.37 0 0 1-1.935 2.327l.022-6.747zm-9.332-11.013l-1.604-.675 1.192-2.832 1.605.674-1.193 2.833zm8.304 28.371c.62-1.79.992-4.211.992-6.454h.002a6.45 6.45 0 0 0 1.669-.33 18.383 18.383 0 0 1-2.663 6.784zm-.424-34.227l-3.254.134a2.978 2.978 0 0 0-.767-.47l-3.732-1.57a2.957 2.957 0 0 0-.873-.221s-3.627-4.024-3.707-4.101a16.086 16.086 0 0 1 12.333 6.228zM96.96 45.93c.062.006 4.746.009 4.746.009a5.187 5.187 0 0 0-1.081 1.626l-2.373 5.637a5.15 5.15 0 0 0 .518 4.958 5.146 5.146 0 0 0 3.103 2.097c-5.607 3.817-14.035 2.965-16.896 2.53a3.194 3.194 0 0 0-3.457 2.01 6.464 6.464 0 0 0-2.104.44v-3.29a16.12 16.12 0 0 1 5.13-11.775c.023-.02.046-.042.067-.063l.042-.038a16.12 16.12 0 0 1 12.305-4.14zm-30.04 30.35a4.616 4.616 0 0 1-3.775-4.545v-2.354a33.21 33.21 0 0 0 3.79-2.5c4.698-3.59 10.3-9.16 10.3-20.945h.004c1.364 0 2.752-.348 3.872-.959v2.771a20.265 20.265 0 0 0-5.826 14.199V78.24a90.192 90.192 0 0 0-8.365-1.96zM36.836 63.597c-3.96-3.024-8.678-8.34-8.678-16.498l-.072-18.823c4.222-.674 14.151-2.999 22.544-10.557 8.394 7.558 18.321 9.883 22.545 10.557l-.072 18.83c0 8.151-4.719 13.466-8.678 16.491-4.88 3.729-10.558 5.51-13.795 5.594-3.236-.085-8.916-1.865-13.794-5.594zM81.11 38.033c0 2.08-1.778 3.772-3.856 3.772l.04-10.305c2.077 0 3.816 1.692 3.816 3.772v2.761zM79.415 71.29a2.37 2.37 0 0 1 1.906-2.322l.025 6.744a2.369 2.369 0 0 1-1.931-2.326V71.29zM27.264 6.84A21.897 21.897 0 0 1 43.97 1.22c2.217.201 4.433.452 6.66.47 2.226.018 4.447-.269 6.66-.47a21.896 21.896 0 0 1 16.707 5.62 21.884 21.884 0 0 1 7.114 16.127v5.36a7.853 7.853 0 0 0-3.768-.958h-.034l.002-.183a2.86 2.86 0 0 0-2.503-2.847c-3.055-.383-13.687-2.266-22.193-10.413a2.862 2.862 0 0 0-3.969 0c-8.507 8.147-19.138 10.03-22.193 10.413a2.86 2.86 0 0 0-2.503 2.847l.001.183a7.981 7.981 0 0 0-3.802.959v-5.36c0-6.123 2.593-12 7.115-16.128zm-7.115 28.432c0-2.08 1.74-3.772 3.817-3.772l.04 10.305c-2.077 0-3.857-1.692-3.857-3.772v-2.761zm0 9.705c1.121.611 2.51.959 3.873.959h.005c0 11.511 5.6 17.355 10.3 20.945a33.438 33.438 0 0 0 3.789 2.5v2.354a4.617 4.617 0 0 1-3.774 4.545 89.654 89.654 0 0 0-14.193 3.84V44.977zM50.202 86.43c-9.398 0-16.322-2.339-19.98-5.044a86.61 86.61 0 0 1 4.869-1.044c4.147-.765 7.156-4.747 7.156-8.97 3.17 1.273 6.142 1.904 8.339 1.95l.044.001.045-.001c2.197-.046 5.168-.677 8.339-1.95 0 4.223 3.009 8.205 7.156 8.97 1.42.262 2.84.56 4.253.896-4.384 3.418-12.893 5.192-20.221 5.192zm29.213 8.158v-15.15c.61.24 1.264.389 1.947.432h.002c0 6.872 3.497 11.958 6.853 14.868h-8.651a.15.15 0 0 1-.151-.15zm10.915 11.415a7.155 7.155 0 0 0 5.85-6.587c2.217.819 4.276 1.228 5.837 1.261l.044.001.044-.001c1.561-.033 3.62-.442 5.837-1.26a7.155 7.155 0 0 0 5.85 6.586c.685.126 1.372.266 2.058.415-2.91 1.799-7.88 3.217-14.115 3.217-6.074 0-10.986-1.369-13.929-3.112a62.932 62.932 0 0 1 2.524-.52z" fill-rule="nonzero"/></g></svg>
