<svg width="130" height="130" xmlns="http://www.w3.org/2000/svg"><g fill="#FFF" fill-rule="evenodd"><path d="M113.384 25.83c-.346-.431-.82-.676-1.306-.676-.488 0-.962.245-1.308.676-.343.43-.54 1.022-.54 1.632 0 .606.197 1.202.54 1.631.345.43.82.676 1.308.676.486 0 .96-.246 1.306-.676.343-.429.54-1.024.54-1.631 0-.61-.197-1.203-.54-1.632zM59.845 81.215c-.345-.432-.82-.677-1.306-.677-.487 0-.962.245-1.307.677-.344.429-.54 1.022-.54 1.631 0 .607.196 1.202.54 1.632.345.429.82.676 1.307.676.486 0 .961-.247 1.306-.676.344-.43.54-1.025.54-1.632 0-.609-.196-1.202-.54-1.631z"/><path d="M120.309 33.288a2.344 2.344 0 0 0-4.075 2.317c6.962 12.24 4.86 27.75-5.112 37.72l-1.777 1.777a8.774 8.774 0 0 0-2.001-3.09L83.261 47.938a16.195 16.195 0 0 0 4.307-3.086l4.62-4.618a2.343 2.343 0 1 0-3.316-3.314l-4.619 4.618a11.416 11.416 0 0 1-8.123 3.364h-9.234c-.622 0-1.218.247-1.658.687l-7.068 7.066a5.39 5.39 0 0 1-7.614 0 5.387 5.387 0 0 1 0-7.611L66.694 28.91c9.862-9.86 25.26-12.028 37.44-5.273a2.345 2.345 0 0 0 2.275-4.099c-6.72-3.725-14.636-5.216-22.292-4.196-7.165.953-13.724 3.953-19.1 8.712C58.413 18.201 50.005 15 41.103 15c-9.643 0-18.71 3.754-25.529 10.571C8.755 32.388 5 41.452 5 51.093c0 9.64 3.755 18.704 10.574 25.521l.884.884c.153.153.324.279.504.38a8.787 8.787 0 0 0 2.554 5.558 8.806 8.806 0 0 0 6.598 2.574 8.771 8.771 0 0 0 2.578 6.6 8.805 8.805 0 0 0 6.599 2.573 8.77 8.77 0 0 0 2.579 6.6 8.807 8.807 0 0 0 6.602 2.574 8.807 8.807 0 0 0 2.574 6.6 8.777 8.777 0 0 0 6.246 2.587c2.36 0 4.577-.918 6.245-2.586l3.276-3.275 4.425 4.423a8.775 8.775 0 0 0 6.246 2.586c2.359 0 4.577-.918 6.245-2.586a8.809 8.809 0 0 0 2.572-6.686 8.807 8.807 0 0 0 6.688-2.57 8.805 8.805 0 0 0 2.574-6.598 8.776 8.776 0 0 0 6.602-2.578 8.805 8.805 0 0 0 2.575-6.596 8.776 8.776 0 0 0 6.602-2.578 8.78 8.78 0 0 0 1.916-2.87c.228-.11.442-.258.632-.447l4.545-4.545c11.461-11.455 13.876-29.282 5.874-43.35zM25.762 81.336a4.118 4.118 0 0 1-2.931-1.214 4.116 4.116 0 0 1-1.214-2.93c0-1.107.431-2.148 1.214-2.93l4.04-4.038a4.118 4.118 0 0 1 2.93-1.214c1.107 0 2.148.43 2.931 1.214a4.147 4.147 0 0 1 0 5.86l-4.039 4.038a4.119 4.119 0 0 1-2.93 1.214zm6.246 7.96a4.115 4.115 0 0 1-1.214-2.93c0-1.107.431-2.147 1.214-2.93l4.04-4.038a4.118 4.118 0 0 1 2.93-1.214c1.108 0 2.149.43 2.931 1.214a4.147 4.147 0 0 1 0 5.86l-4.039 4.038a4.151 4.151 0 0 1-5.862 0zm9.177 9.174a4.115 4.115 0 0 1-1.214-2.93c0-1.107.43-2.147 1.214-2.93l4.04-4.038a4.118 4.118 0 0 1 2.93-1.214c1.107 0 2.148.43 2.93 1.213a4.147 4.147 0 0 1 0 5.86l-4.039 4.039a4.15 4.15 0 0 1-5.861 0zm19.078 5.136l-4.04 4.039a4.118 4.118 0 0 1-2.93 1.213 4.118 4.118 0 0 1-2.932-1.213 4.147 4.147 0 0 1 0-5.86l4.04-4.039a4.118 4.118 0 0 1 2.93-1.214c1.108 0 2.149.43 2.932 1.214a4.115 4.115 0 0 1 1.214 2.93 4.114 4.114 0 0 1-1.214 2.93zm43.766-22.42a4.118 4.118 0 0 1-2.93 1.214 4.117 4.117 0 0 1-2.932-1.213l-9.756-9.754h-.001l-9.176-9.174a2.345 2.345 0 0 0-3.315 3.314L94.852 84.5a4.147 4.147 0 0 1 0 5.86 4.118 4.118 0 0 1-2.93 1.214 4.117 4.117 0 0 1-2.931-1.214L70.057 71.433a2.343 2.343 0 1 0-3.315 3.314l9.175 9.172.002.002 9.757 9.753a4.148 4.148 0 0 1 0 5.86 4.15 4.15 0 0 1-5.862 0l-9.757-9.753a2.34 2.34 0 0 0-.599-.433l-2.782-2.782a2.343 2.343 0 1 0-3.315 3.314l13.055 13.051a4.147 4.147 0 0 1 0 5.86 4.118 4.118 0 0 1-2.931 1.214 4.117 4.117 0 0 1-2.93-1.213l-4.969-4.966a8.826 8.826 0 0 0 .579-3.15 8.771 8.771 0 0 0-2.587-6.244 8.777 8.777 0 0 0-6.602-2.578 8.806 8.806 0 0 0-2.575-6.596A8.777 8.777 0 0 0 47.8 82.68a8.805 8.805 0 0 0-2.574-6.596 8.777 8.777 0 0 0-6.602-2.578 8.805 8.805 0 0 0-2.575-6.597c-3.444-3.442-9.048-3.442-12.492 0l-4.039 4.039a8.826 8.826 0 0 0-1.3 1.656c-5.506-5.846-8.528-13.446-8.528-21.511 0-8.39 3.268-16.276 9.201-22.208 5.934-5.932 13.823-9.199 22.215-9.199 7.625 0 14.836 2.698 20.541 7.643l-14.404 14.4a10.002 10.002 0 0 0-2.95 7.12c0 2.689 1.048 5.217 2.95 7.12a10.043 10.043 0 0 0 7.122 2.944c2.58 0 5.159-.982 7.122-2.945l6.383-6.38h8.262c.682 0 1.357-.047 2.024-.13l25.875 25.868a4.15 4.15 0 0 1-.001 5.86z" fill-rule="nonzero"/></g></svg>