<svg width="130" height="130" xmlns="http://www.w3.org/2000/svg"><g fill="#FFF" fill-rule="evenodd"><path d="M28.052 74.239a2.495 2.495 0 0 0-1.754-.728 2.5 2.5 0 0 0-1.754.728 2.499 2.499 0 0 0-.727 1.753c0 .656.265 1.293.727 1.757a2.497 2.497 0 0 0 1.754.724c.652 0 1.292-.263 1.754-.724a2.505 2.505 0 0 0 .727-1.757c0-.652-.266-1.292-.727-1.753zM51.869 74.239a2.499 2.499 0 0 0-1.754-.728 2.5 2.5 0 0 0-1.755.728 2.499 2.499 0 0 0-.726 1.753c0 .656.265 1.293.726 1.757a2.497 2.497 0 0 0 1.755.724c.652 0 1.292-.263 1.754-.724a2.51 2.51 0 0 0 .726-1.757c0-.652-.265-1.292-.726-1.753zM46.67 88.487a2.638 2.638 0 0 0-3.227 1.849c-.753 2.794-3.315 4.745-6.23 4.745-2.914 0-5.475-1.951-6.229-4.745a2.637 2.637 0 0 0-3.227-1.85 2.61 2.61 0 0 0-1.866 3.198c1.369 5.076 6.025 8.621 11.323 8.621s9.954-3.545 11.322-8.62a2.61 2.61 0 0 0-1.866-3.198zM65 10a2.489 2.489 0 0 0-2.48 2.496v15.847A2.489 2.489 0 0 0 65 30.84c1.37 0 2.48-1.118 2.48-2.497V12.496A2.489 2.489 0 0 0 65 10zM66.754 36.528A2.49 2.49 0 0 0 65 35.802c-.655 0-1.293.263-1.757.726a2.497 2.497 0 0 0-.724 1.754c0 .653.263 1.293.724 1.754a2.505 2.505 0 0 0 1.757.727 2.5 2.5 0 0 0 1.754-.727 2.5 2.5 0 0 0 .727-1.754 2.5 2.5 0 0 0-.727-1.754zM49.844 33.69l-6.678-6.118c-1.021-.936-2.678-.936-3.698.001-1.021.938-1.02 2.456.001 3.393l6.677 6.119c.511.468 1.18.701 1.849.701.67 0 1.34-.234 1.85-.703 1.021-.937 1.02-2.456-.001-3.392zM90.557 27.61a2.527 2.527 0 0 0-3.572 0l-6.856 6.859a2.524 2.524 0 0 0 1.786 4.31c.647 0 1.294-.247 1.787-.74l6.856-6.86a2.524 2.524 0 0 0 0-3.57z"/><path d="M128.715 72.679c-5.366-20.08-26.022-32.038-46.046-26.657-6.873 1.847-12.945 5.518-17.687 10.602-7.096-7.578-16.916-11.87-27.386-11.87C16.866 44.755 0 61.667 0 82.455c0 20.787 16.866 37.699 37.596 37.699A37.366 37.366 0 0 0 65.01 108.25c7.028 7.473 16.94 11.889 27.398 11.889a37.44 37.44 0 0 0 9.722-1.29c20.024-5.38 31.95-26.092 26.585-46.171zm-91.119 42.38c-17.93 0-32.516-14.627-32.516-32.606 0-17.978 14.587-32.604 32.516-32.604 9.282 0 17.975 3.9 24.144 10.765a38.537 38.537 0 0 0-1.9 2.972c-5.022 8.721-6.355 18.88-3.756 28.607a37.559 37.559 0 0 0 5.67 12.086c-6.17 6.873-14.873 10.78-24.158 10.78zm63.219-1.129c-17.318 4.652-35.183-5.69-39.824-23.055-2.248-8.412-1.094-17.199 3.249-24.74a33.092 33.092 0 0 1 2.787-4.1c4.299-5.398 10.177-9.27 16.956-11.092a32.372 32.372 0 0 1 8.409-1.115c14.354 0 27.527 9.62 31.415 24.17 4.64 17.365-5.674 35.279-22.992 39.932z" fill-rule="nonzero"/><path d="M85.256 77.188c-.785-2.641-3.81-4.215-6.746-3.507-2.933.708-4.68 3.432-3.894 6.074.304 1.021 1.33 1.695 2.451 1.695a2.8 2.8 0 0 0 .659-.078c1.355-.327 2.159-1.58 1.795-2.8-.06-.206.075-.419.304-.474a.465.465 0 0 1 .325.039.39.39 0 0 1 .2.234c.363 1.22 1.755 1.944 3.11 1.617 1.356-.327 2.16-1.58 1.796-2.8zM107.088 71.234c-.38-1.279-1.292-2.348-2.566-3.01a6.004 6.004 0 0 0-4.178-.496c-1.421.343-2.609 1.163-3.344 2.31-.736 1.148-.931 2.484-.55 3.763.304 1.022 1.33 1.695 2.45 1.695.218 0 .44-.025.66-.078 1.354-.327 2.158-1.58 1.795-2.8a.347.347 0 0 1 .043-.293.415.415 0 0 1 .26-.18.463.463 0 0 1 .326.038c.07.037.161.107.2.235.362 1.22 1.754 1.943 3.109 1.616 1.355-.326 2.158-1.58 1.795-2.8zM105.788 86.83c-.377-1.015-1.823-1.617-3.23-1.345-1.408.272-2.242 1.314-1.865 2.329.897 2.415-1.098 4.906-4.447 5.553-1.623.314-3.317.152-4.772-.453-1.455-.606-2.495-1.583-2.93-2.753-.377-1.014-1.823-1.617-3.23-1.345s-2.242 1.315-1.865 2.33c.8 2.15 2.713 3.948 5.388 5.062 1.782.741 3.76 1.12 5.763 1.12 1.005 0 2.016-.095 3.012-.288 6.158-1.19 9.826-5.77 8.176-10.21z"/></g></svg>