<svg width="140" height="140" xmlns="http://www.w3.org/2000/svg"><g fill="#DF504D" fill-rule="nonzero"><path d="M138.726 86.42A2.276 2.276 0 0 0 141 84.144V52.306c0-6.27-5.101-11.37-11.371-11.37h-54.58a2.276 2.276 0 0 0-2.275 2.274v9.096a2.276 2.276 0 0 0 2.274 2.275h31.84v18.193H93.241a6.831 6.831 0 0 0-6.823 6.823v34.113H54.581v-6.823a2.276 2.276 0 0 0-2.275-2.274H27.29v-54.58h38.662a2.276 2.276 0 0 0 2.274-2.275V34.113h20.468c.882 0 1.685-.512 2.06-1.31.375-.801.253-1.744-.314-2.42l-10.157-12.19L90.44 6.005a2.273 2.273 0 0 0-1.746-3.73H47.758a2.276 2.276 0 0 0-2.274 2.274v13.646H27.29V15.05c1.4-1.601 2.275-3.669 2.275-5.954C29.565 4.08 25.485 0 20.468 0 15.45 0 11.37 4.08 11.37 9.097c0 2.285.875 4.353 2.274 5.954v89.562H2.275A2.276 2.276 0 0 0 0 106.887v31.839A2.276 2.276 0 0 0 2.274 141h136.452a2.276 2.276 0 0 0 2.274-2.274V125.08a2.276 2.276 0 0 0-2.274-2.275h-6.823V86.42h6.823zm-63.15-69.682a2.274 2.274 0 0 0 0 2.911l8.263 9.916H68.226v-9.097c0-.682-.317-1.276-.792-1.693l.017-.017L53.81 6.823h30.025l-8.26 9.915zM50.032 9.56l9.868 8.633h-9.868V9.56zm13.645 13.18v22.743H27.29v-4.549h13.645v-4.548H27.29V31.84h13.645V27.29H27.29v-4.548h36.387zM20.467 4.549a4.553 4.553 0 0 1 4.55 4.549 4.553 4.553 0 0 1-4.55 4.548 4.553 4.553 0 0 1-4.548-4.548 4.553 4.553 0 0 1 4.549-4.549zM18.195 17.87c.731.191 1.484.324 2.274.324s1.542-.133 2.274-.324v86.743h-4.548V17.87zm118.258 118.582H4.548v-27.29h45.484v6.822a2.276 2.276 0 0 0 2.274 2.274h47.759v6.823a2.276 2.276 0 0 0 2.274 2.274h34.113v9.097zm-18.194-13.646h-13.645v-6.822a2.276 2.276 0 0 0-2.274-2.274h-2.274V86.42h18.193v36.386zm4.548 0v-38.66a2.276 2.276 0 0 0-2.274-2.275H97.79a2.276 2.276 0 0 0-2.274 2.274v29.565h-4.548V79.597a2.279 2.279 0 0 1 2.274-2.274h15.92a2.276 2.276 0 0 0 2.273-2.275V52.306a2.276 2.276 0 0 0-2.274-2.274H77.323v-4.548h52.306a6.831 6.831 0 0 1 6.823 6.822v29.565h-4.549V59.129h-4.548v63.677h-4.549z"/><path d="M118.5 36c6.34 0 11.5-5.047 11.5-11.25v-4.5C130 14.047 124.84 9 118.5 9S107 14.047 107 20.25v4.5c0 6.203 5.16 11.25 11.5 11.25zm-6.9-15.75c0-3.721 3.096-6.75 6.9-6.75 3.804 0 6.9 3.029 6.9 6.75v4.5c0 3.721-3.096 6.75-6.9 6.75-3.804 0-6.9-3.029-6.9-6.75v-4.5z"/></g></svg>