<svg width="130" height="130" xmlns="http://www.w3.org/2000/svg"><g fill="#FFF" fill-rule="evenodd"><path d="M47.281 92.699a2.442 2.442 0 0 0-.538-.088 15.52 15.52 0 0 0 4.313-10.741V69.078a2.45 2.45 0 0 0-.027-.344c.017-.23.027-.463.027-.698v-8.093a2.434 2.434 0 0 0-2.436-2.432H32.275c-6.882 0-12.482 5.588-12.482 12.455V81.87a15.52 15.52 0 0 0 4.314 10.74c-.182.01-.362.039-.538.089C12.053 93.739 3 103.424 3 115.18v10.389A2.434 2.434 0 0 0 5.437 128h59.976a2.434 2.434 0 0 0 2.437-2.431V115.18c0-11.756-9.053-21.44-20.569-22.481zm-22.614-19.65v-3.083c0-4.186 3.413-7.592 7.608-7.592h13.908v5.662c0 2.85-2.324 5.17-5.18 5.17H24.666v-.157zm0 5.019h16.335c1.894 0 3.667-.526 5.18-1.438v5.24c0 5.919-4.825 10.734-10.757 10.734-5.932 0-10.758-4.815-10.758-10.734v-3.802zm16.062 19.4l-5.304 5.292-5.304-5.293H40.73zm22.247 25.67H7.874v-4.864h10.112a2.434 2.434 0 0 0 2.437-2.431 2.434 2.434 0 0 0-2.437-2.432H7.963c.818-8.198 7.263-14.763 15.413-15.797l10.326 10.303a2.44 2.44 0 0 0 3.446 0l10.325-10.303c8.73 1.107 15.503 8.56 15.503 17.566v7.957zM107.432 38.188a2.444 2.444 0 0 0-.538-.088 15.52 15.52 0 0 0 4.313-10.741V14.566a2.45 2.45 0 0 0-.027-.343c.016-.23.027-.463.027-.698V5.43A2.434 2.434 0 0 0 108.77 3H92.426c-6.883 0-12.482 5.587-12.482 12.455v11.904a15.52 15.52 0 0 0 4.313 10.74c-.182.01-.363.038-.539.088C72.203 39.228 63.15 48.913 63.15 60.67v10.388a2.434 2.434 0 0 0 2.437 2.431h19.607a2.434 2.434 0 0 0 2.436-2.431 2.434 2.434 0 0 0-2.436-2.431h-17.17v-7.957c0-9.006 6.773-16.459 15.503-17.566l10.325 10.303c.476.475 1.1.712 1.723.712.624 0 1.247-.237 1.723-.712l10.325-10.303c8.73 1.108 15.503 8.56 15.503 17.566v7.957h-17.95a2.434 2.434 0 0 0-2.437 2.431 2.434 2.434 0 0 0 2.436 2.432h20.388A2.434 2.434 0 0 0 128 71.057V60.67c0-11.756-9.053-21.44-20.568-22.481zm-11.857 10.06l-5.303-5.292h10.607l-5.304 5.292zm10.758-20.89c0 5.92-4.826 10.735-10.758 10.735-5.931 0-10.757-4.815-10.757-10.734v-3.802h16.335c1.894 0 3.666-.526 5.18-1.438v5.24zm0-13.833c0 2.85-2.324 5.17-5.18 5.17H84.818v-3.24c0-4.186 3.413-7.592 7.608-7.592h13.907v5.662z" fill-rule="nonzero"/><path d="M97.099 69.616a2.84 2.84 0 0 0-1.994-.827c-.744 0-1.469.302-1.993.827a2.829 2.829 0 0 0-.826 1.993 2.824 2.824 0 0 0 2.82 2.82c.74 0 1.468-.3 1.993-.827.524-.524.826-1.249.826-1.993a2.84 2.84 0 0 0-.826-1.993z"/><path d="M68.077 37.277L57.899 27.033V15.248C57.899 8.494 52.44 3 45.731 3H15.168C8.458 3 3 8.494 3 15.248v21.557c0 6.753 5.459 12.248 12.168 12.248h30.563a12.1 12.1 0 0 0 11.26-7.594h9.365c.984 0 1.871-.597 2.248-1.512a2.462 2.462 0 0 0-.527-2.67zm-12.862-.717a2.437 2.437 0 0 0-2.372 1.9c-.766 3.352-3.69 5.693-7.112 5.693H15.168c-4.026 0-7.3-3.296-7.3-7.348V15.248c0-4.052 3.274-7.349 7.3-7.349h30.563c4.025 0 7.3 3.297 7.3 7.349v12.8c0 .649.257 1.272.713 1.731l6.736 6.78h-5.265zM115.832 81.947H85.269a12.1 12.1 0 0 0-11.26 7.594h-9.365c-.984 0-1.871.597-2.248 1.512a2.462 2.462 0 0 0 .527 2.67l10.178 10.244v11.785c0 6.754 5.459 12.248 12.168 12.248h30.563c6.71 0 12.168-5.494 12.168-12.248V94.195c0-6.753-5.459-12.248-12.168-12.248zm7.3 33.805c0 4.052-3.274 7.349-7.3 7.349H85.269c-4.025 0-7.3-3.297-7.3-7.349v-12.8c0-.649-.257-1.272-.713-1.731l-6.736-6.78h5.265a2.437 2.437 0 0 0 2.372-1.901c.766-3.352 3.69-5.693 7.112-5.693h30.563c4.026 0 7.3 3.296 7.3 7.348v21.557z" fill-rule="nonzero"/><path d="M111.307 98.643a2.437 2.437 0 0 0-3.455 0l-6.495 6.52-3.02-3.032a2.437 2.437 0 0 0-3.456 0 2.46 2.46 0 0 0 0 3.468l4.748 4.765a2.431 2.431 0 0 0 1.728.719c.625 0 1.25-.24 1.727-.719l8.223-8.253a2.46 2.46 0 0 0 0-3.468zM42.453 18.394c-.289-4.189-3.66-7.566-7.844-7.854a8.382 8.382 0 0 0-6.365 2.257 8.506 8.506 0 0 0-2.688 6.192 2.442 2.442 0 0 0 2.44 2.443 2.441 2.441 0 0 0 2.44-2.442c0-1.005.404-1.936 1.138-2.621a3.55 3.55 0 0 1 2.7-.955 3.582 3.582 0 0 1 3.311 3.316 3.568 3.568 0 0 1-2.783 3.757 4.102 4.102 0 0 0-3.227 4.022v1.304a2.441 2.441 0 0 0 2.44 2.443 2.441 2.441 0 0 0 2.44-2.443v-.711c3.78-1.13 6.274-4.698 5.998-8.708zM35.069 35.781a2.84 2.84 0 0 0-1.994-.826c-.744 0-1.469.302-1.993.826a2.829 2.829 0 0 0-.826 1.993c0 .742.299 1.47.826 1.994.524.524 1.249.826 1.993.826a2.84 2.84 0 0 0 1.994-.826 2.84 2.84 0 0 0 .826-1.994 2.84 2.84 0 0 0-.826-1.993zM29.43 113.789a2.84 2.84 0 0 0-1.994-.827 2.84 2.84 0 0 0-1.993.827 2.84 2.84 0 0 0-.826 1.993c0 .741.301 1.469.826 1.993a2.84 2.84 0 0 0 1.993.827 2.84 2.84 0 0 0 1.994-.827 2.84 2.84 0 0 0 .826-1.993 2.84 2.84 0 0 0-.826-1.993z"/></g></svg>