<svg width="130" height="130" xmlns="http://www.w3.org/2000/svg"><g fill="#FFF" fill-rule="nonzero"><path d="M80.39 75.932h-8.304V71.56c5.985-1.026 10.368-6.248 10.379-12.368V34.078c0-1.155-.93-2.092-2.076-2.092H61.707c-5.729.007-10.372 4.687-10.379 10.463v16.742c.006 5.315 3.332 10.051 8.303 11.823v4.918h-8.303C45.6 75.94 40.956 80.62 40.95 86.396v4.185c0 1.156.93 2.093 2.076 2.093h45.667a2.084 2.084 0 0 0 2.076-2.093v-4.185c-.007-5.777-4.65-10.457-10.379-10.464zM61.706 36.171h16.606c0 2.311-1.858 4.185-4.151 4.185H55.835a6.244 6.244 0 0 1 5.872-4.185zm-6.227 8.37h4.151v6.279c0 1.156-.93 2.093-2.075 2.093a2.084 2.084 0 0 1-2.076-2.093v-6.278zm0 14.65v-2.478a6.109 6.109 0 0 0 2.076.385c3.439 0 6.227-2.811 6.227-6.278v-6.278h10.379a8.163 8.163 0 0 0 4.151-1.164V59.19c0 4.622-3.716 8.37-8.303 8.37h-6.227c-4.585 0-8.303-3.748-8.303-8.37zm8.303 12.556h4.151v4.185h-4.151v-4.185zm22.834 16.742h-6.228v-4.186h-4.151v4.186H55.48v-4.186h-4.152v4.186h-6.227v-2.093c0-3.467 2.788-6.278 6.227-6.278H80.39c3.44 0 6.228 2.81 6.228 6.278v2.093z"/><path d="M115.131 79.894l1.712-9.717 10.858-5.746a2.087 2.087 0 0 0 1.079-2.206l-2.503-14.142a2.087 2.087 0 0 0-1.766-1.704l-12.17-1.685-4.933-8.555 4.629-11.384c.34-.839.1-1.801-.593-2.383l-10.984-9.22a2.084 2.084 0 0 0-2.45-.17l-10.404 6.535-9.27-3.373-3.77-11.697A2.086 2.086 0 0 0 72.583 3H58.23c-.906 0-1.707.585-1.985 1.447l-3.771 11.697-9.269 3.373-10.404-6.535a2.084 2.084 0 0 0-2.45.17l-10.993 9.23a2.088 2.088 0 0 0-.591 2.383l4.626 11.384-4.933 8.555-12.167 1.687a2.085 2.085 0 0 0-1.77 1.702L2.033 62.225a2.087 2.087 0 0 0 1.078 2.206l10.858 5.746 1.714 9.717-8.24 9.116a2.087 2.087 0 0 0-.258 2.441l7.176 12.436a2.082 2.082 0 0 0 2.24.997l12.01-2.58 7.556 6.345-.455 12.277a2.085 2.085 0 0 0 1.37 2.038l13.488 4.91c.85.31 1.803.036 2.359-.678l7.542-9.7h9.863l7.541 9.7c.557.714 1.51.988 2.36.678l13.488-4.91a2.086 2.086 0 0 0 1.373-2.038l-.458-12.28 7.557-6.342 12.016 2.58a2.061 2.061 0 0 0 2.243-.997l7.177-12.436a2.086 2.086 0 0 0-.259-2.441l-8.24-9.116zm-1.532 20.592l-11.522-2.477a2.087 2.087 0 0 0-1.78.442l-9.117 7.656a2.088 2.088 0 0 0-.746 1.67l.44 11.78-10.638 3.873L73 114.122a2.087 2.087 0 0 0-1.647-.806h-11.9c-.643 0-1.25.297-1.646.806l-7.236 9.308-10.637-3.873.438-11.78a2.084 2.084 0 0 0-.744-1.67l-9.119-7.656a2.085 2.085 0 0 0-1.78-.442l-11.516 2.477-5.658-9.807 7.904-8.745c.432-.478.62-1.129.508-1.762l-2.068-11.727a2.084 2.084 0 0 0-1.078-1.481L6.404 61.45l1.964-11.146 11.68-1.618a2.087 2.087 0 0 0 1.52-1.022l5.953-10.311a2.086 2.086 0 0 0 .124-1.83L23.21 24.6l8.667-7.275 9.982 6.26a2.065 2.065 0 0 0 1.822.193l11.178-4.068a2.087 2.087 0 0 0 1.272-1.322l3.618-11.221h11.315l3.619 11.228c.197.613.667 1.1 1.272 1.32l11.184 4.074a2.07 2.07 0 0 0 1.823-.195l9.981-6.26 8.669 7.277-4.439 10.923a2.086 2.086 0 0 0 .125 1.83l5.95 10.305a2.09 2.09 0 0 0 1.52 1.023l11.68 1.617 1.965 11.146-10.411 5.51c-.568.301-.966.848-1.078 1.482l-2.068 11.727a2.087 2.087 0 0 0 .507 1.762l7.905 8.746-5.668 9.804z"/><path d="M66.312 23.833c-23.012 0-41.667 18.655-41.667 41.667s18.655 41.667 41.667 41.667 41.666-18.655 41.666-41.667c-.026-23.001-18.665-41.64-41.666-41.667zm0 79.167c-20.71 0-37.5-16.79-37.5-37.5S45.602 28 66.312 28s37.5 16.79 37.5 37.5c-.024 20.701-16.8 37.476-37.5 37.5z"/></g></svg>
