<svg height="37" width="361" xmlns="http://www.w3.org/2000/svg" xmlns:xlink="http://www.w3.org/1999/xlink"><mask id="a" fill="#fff"><path d="m.2.234h11.407v15.16h-11.407z" fill="#fff" fill-rule="evenodd"/></mask><mask id="b" fill="#fff"><path d="m.075.258h10.03v14.716h-10.029z" fill="#fff" fill-rule="evenodd"/></mask><g fill="none" fill-rule="evenodd"><path d="m78.7.823 7.225-.017c.614-.001 1.06.136 1.336.413.274.277.413.725.415 1.344l.044 18.986a32.667 32.667 0 0 1 -.116 2.911c-.078.898-.326 1.951-.743 3.158l-2.41 6.66c-.16.49-.394.907-.7 1.25-.307.344-.718.516-1.235.517l-6.449.015a2.897 2.897 0 0 1 -1.407-.339c-.422-.227-.697-.602-.827-1.125l-2.249-7.969c-.096-.326-.22-.546-.365-.66a.801.801 0 0 0 -.51-.171l-.436.002a.799.799 0 0 0 -.509.172c-.145.115-.265.335-.361.661l-2.261 7.981c-.128.49-.37.857-.725 1.103-.356.245-.791.369-1.308.37l-6.402.015c-.516 0-.962-.16-1.335-.487a2.718 2.718 0 0 1 -.802-1.27l-2.44-6.747c-.422-1.206-.676-2.257-.758-3.154a32.122 32.122 0 0 1 -.128-2.912l-.044-18.887c-.002-.619.136-1.067.408-1.346.275-.278.72-.418 1.333-.42l7.468-.016c.613-.002 1.058.137 1.334.412.276.277.414.725.416 1.345l.04 18.007 2.8-6.172c.255-.555.595-.947 1.015-1.177.419-.23.937-.346 1.55-.346l2.037-.005c.615-.001 1.131.112 1.552.339.42.228.76.619 1.021 1.172l2.827 6.159-.041-18.007c-.002-.62.135-1.068.409-1.346.272-.278.718-.418 1.331-.42m38.933 34.521-22.349.051c-.61 0-1.053-.134-1.324-.405-.276-.27-.413-.71-.414-1.318l-.073-31.084c0-.606.135-1.046.407-1.319.272-.272.712-.41 1.323-.41l22.349-.052c.61 0 1.052.134 1.326.405.273.27.411.71.413 1.318l.013 5.612c.002.608-.135 1.048-.405 1.32-.273.273-.716.41-1.325.412l-13.295.03.009 3.693 9.392-.021c.61-.002 1.053.134 1.326.404.274.271.412.71.413 1.318l.011 5.132c.002.608-.134 1.05-.405 1.321-.273.273-.714.41-1.323.411l-9.393.022.009 4.125 13.295-.031c.608-.002 1.051.134 1.326.404.271.272.411.711.411 1.319l.013 5.612c.001.608-.134 1.047-.405 1.32-.274.273-.715.41-1.325.41" fill="#426cff"/><path d="m142.797 10.9-2.264 7.297 7.616-.017-2.296-7.287c-.13-.289-.267-.496-.414-.624a.753.753 0 0 0 -.51-.19l-1.212.002a.751.751 0 0 0 -.51.194c-.144.128-.283.336-.41.624zm-2.712 22.747c0 .608-.136 1.049-.41 1.32-.274.273-.719.41-1.332.411l-7.132.016c-.615.002-1.06-.133-1.335-.404-.276-.271-.414-.71-.416-1.319l-.03-12.667c0-.958.15-2.062.454-3.31.304-1.249.777-2.705 1.42-4.369l4.196-10.902c.193-.544.49-.944.896-1.201.402-.257.928-.386 1.575-.386l13.05-.03c.614-.002 1.124.125 1.53.38.404.255.704.654.898 1.197l4.246 10.882c.652 1.662 1.132 3.115 1.443 4.362.31 1.246.467 2.35.469 3.31l.03 12.666c0 .608-.135 1.048-.409 1.32-.275.273-.72.41-1.334.41l-7.325.017c-.648.002-1.124-.133-1.432-.404-.309-.271-.463-.71-.464-1.318l-.016-6.716-8.586.019.015 6.716z" fill="#f5ba47" fill-rule="nonzero"/><path d="m190.988 35.339-24.509.055c-.61.002-1.052-.134-1.325-.405-.274-.27-.41-.71-.412-1.319l-.072-31.115c-.002-.608.133-1.048.405-1.322.272-.272.713-.41 1.322-.41l7.464-.017c.61-.002 1.053.134 1.326.405.273.27.411.711.413 1.319l.055 23.768 6.595-.015-.018-7.779c0-.607.135-1.048.407-1.32.272-.273.713-.41 1.323-.411l6.982-.016c.61-.002 1.052.133 1.326.405.272.272.41.71.412 1.319l.035 15.125c.001.608-.134 1.05-.405 1.321-.273.273-.714.41-1.324.412m32.362-.001-24.509.056c-.61.002-1.052-.134-1.324-.405-.275-.27-.412-.711-.413-1.32l-.072-31.114c-.002-.608.133-1.048.405-1.321s.713-.41 1.323-.41l7.463-.018c.61 0 1.053.134 1.326.405.273.272.411.711.413 1.319l.055 23.768 6.597-.015-.02-7.779c0-.607.136-1.048.408-1.321.271-.272.713-.41 1.323-.41l6.981-.017c.61-.001 1.052.134 1.326.405.272.272.411.712.412 1.32l.035 15.125c.002.608-.134 1.049-.405 1.32-.273.274-.714.41-1.324.412" fill="#f5ba47"/><g fill="#de504d"><path d="m258.554 35.368-11.985.026c-4.092.01-7.132-.784-9.117-2.38-1.984-1.595-2.98-4.057-2.988-7.385l-.036-14.929c-.008-3.328.976-5.802 2.954-7.423 1.977-1.62 5.012-2.435 9.105-2.445l11.985-.026c.621 0 1.072.134 1.351.405.278.271.419.71.42 1.319l.013 5.807c.002.609-.135 1.05-.413 1.322-.278.273-.727.41-1.349.411l-9.872.022c-1.016.003-1.769.204-2.259.605-.49.402-.734 1.002-.732 1.802l.027 11.425c.002.8.249 1.383.74 1.75.493.367 1.246.55 2.262.548l9.872-.023c.622-.001 1.071.133 1.352.405.279.271.418.711.42 1.318l.014 5.713c0 .608-.138 1.049-.415 1.321-.278.273-.728.41-1.35.412"/><path d="m275.695 24.59c.001.64.244 1.174.732 1.606.486.43 1.604.644 3.353.64 1.75-.005 2.866-.223 3.35-.655.484-.434.727-.97.726-1.61l-.03-12.912c-.002-.608-.247-1.128-.734-1.558s-1.604-.645-3.353-.64c-1.748.003-2.866.222-3.35.655-.485.432-.726.953-.724 1.561l.03 12.912zm19.142 1.685c.004 1.471-.211 2.807-.646 4.008-.434 1.202-1.209 2.227-2.324 3.079-1.116.85-2.653 1.517-4.61 2-1.96.485-4.444.731-7.456.738-3.01.006-5.505-.227-7.481-.703-1.978-.476-3.526-1.136-4.644-1.98-1.12-.847-1.9-1.868-2.34-3.069-.44-1.198-.66-2.534-.664-4.006l-.04-16.367c-.002-1.472.213-2.81.648-4.01.433-1.201 1.208-2.235 2.324-3.101 1.115-.867 2.66-1.542 4.634-2.026 1.974-.485 4.467-.731 7.479-.738 3.012-.006 5.497.227 7.459.703 1.96.477 3.5 1.145 4.619 2.006s1.899 1.891 2.338 3.091c.441 1.199.662 2.535.666 4.006zm16.109-16.288.039 16.316 5.795-.013c.78-.002 1.357-.195 1.728-.58.372-.386.558-.977.556-1.776l-.028-11.661c-.001-.8-.19-1.384-.564-1.75-.373-.367-.95-.55-1.73-.548zm7.171 25.37-16.415.037c-.617 0-1.064-.134-1.34-.405-.277-.271-.416-.71-.417-1.318l-.073-31.097c-.002-.607.134-1.048.41-1.32.275-.272.722-.41 1.339-.41l16.415-.038c4.059-.01 7.07.784 9.04 2.38 1.969 1.594 2.957 4.055 2.965 7.382l.035 14.972c.009 3.327-.968 5.794-2.93 7.397-1.962 1.604-4.97 2.41-9.029 2.42z" fill-rule="nonzero"/><path d="m359.27 35.343-22.349.051c-.61 0-1.052-.134-1.325-.405-.274-.27-.412-.71-.413-1.318l-.073-31.085c0-.606.135-1.046.407-1.319.271-.272.713-.41 1.324-.41l22.349-.052c.61-.002 1.052.134 1.326.404.273.272.41.711.412 1.319l.014 5.611c.001.609-.136 1.049-.407 1.321-.271.273-.715.41-1.324.411l-13.294.03.009 3.694 9.392-.022c.61-.001 1.052.134 1.326.405.273.271.411.71.413 1.318l.01 5.132c.003.608-.132 1.05-.405 1.322-.272.271-.714.408-1.322.41l-9.394.021.01 4.125 13.293-.03c.61-.002 1.053.134 1.326.404.273.272.412.712.413 1.319l.013 5.613c0 .607-.135 1.047-.406 1.319-.273.273-.714.41-1.324.41"/></g><path d="m9.512 15.617h-7.417a1.307 1.307 0 0 1 -1.307-1.307v-.222c0-.722.585-1.307 1.307-1.307h2.468v-9.043h-2.024a1.307 1.307 0 0 1 -1.307-1.308v-.222c0-.721.585-1.308 1.307-1.308h3.551c.722 0 1.308.586 1.308 1.308v10.572h2.113c.722 0 1.307.585 1.307 1.307v.222c0 .722-.585 1.307-1.307 1.307" fill="#606060"/><path d="m24.262 32.304c0 .456-.13.759-.437 1.014-.13.106-.686.454-2.453.454-1.758 0-2.294-.34-2.416-.443-.3-.256-.43-.562-.43-1.025v-4.465c0-.094.016-.169.026-.248.621.505 1.662.838 2.843.838 1.17 0 2.2-.327 2.824-.826.011.08.043.145.043.236zm2.837 0v-6.551c0-1.233-.465-2.31-1.347-3.12-.874-.797-2.306-1.185-4.38-1.185-.977 0-1.785.087-2.472.264-.756.197-1.353.475-1.828.854-.516.41-.888.923-1.104 1.523a4.889 4.889 0 0 0 -.277 1.664v6.55c0 .595.093 1.155.277 1.664a3.382 3.382 0 0 0 1.104 1.523c.475.378 1.074.659 1.828.854.682.177 1.49.264 2.472.264 2.073 0 3.503-.383 4.374-1.17.885-.8 1.353-1.884 1.353-3.134z" fill="#f5ba47"/><path d="m8.671 32.304c0 .456-.13.759-.437 1.014-.13.106-.686.454-2.453.454-1.759 0-2.294-.34-2.416-.443-.3-.256-.43-.562-.43-1.025v-4.465c0-.094.016-.169.026-.248.621.505 1.662.838 2.843.838 1.17 0 2.2-.327 2.824-.826.011.08.043.145.043.236zm1.49-9.67c-.874-.798-2.306-1.186-4.38-1.186-.977 0-1.785.087-2.472.264-.755.197-1.354.475-1.829.854-.516.41-.887.923-1.103 1.523a4.876 4.876 0 0 0 -.277 1.664v6.55c0 .595.092 1.155.277 1.664a3.382 3.382 0 0 0 1.103 1.523c.475.378 1.074.659 1.829.854.682.177 1.49.264 2.472.264 2.073 0 3.503-.383 4.374-1.17.885-.8 1.353-1.884 1.353-3.134v-6.551c0-1.233-.466-2.31-1.347-3.12z" fill="#4d57f4"/><path d="m8.77 11.09c0 .455-.13.759-.437 1.013-.13.107-.685.454-2.452.454-1.76 0-2.295-.339-2.417-.443-.3-.255-.429-.562-.429-1.025v-4.464c0-.095.015-.17.025-.249.622.506 1.662.838 2.843.838 1.17 0 2.2-.327 2.824-.825.012.08.044.144.044.236v4.464zm1.49-9.67c-.874-.8-2.305-1.187-4.38-1.187-.976 0-1.785.086-2.472.263-.755.198-1.353.476-1.828.854-.517.41-.888.924-1.104 1.523a4.889 4.889 0 0 0 -.276 1.667v6.55c0 .595.092 1.155.276 1.663a3.378 3.378 0 0 0 1.104 1.523c.475.38 1.074.659 1.828.854.682.177 1.49.264 2.473.264 2.073 0 3.503-.383 4.374-1.17.885-.8 1.352-1.883 1.352-3.134v-6.55c0-1.233-.465-2.311-1.347-3.12z" fill="#de504d" mask="url(#a)" transform="translate(29.513 .401)"/><path d="m25.103 15.617h-7.417a1.307 1.307 0 0 1 -1.306-1.307v-.222c0-.722.584-1.307 1.306-1.307h2.468v-9.043h-2.024a1.307 1.307 0 0 1 -1.307-1.307v-.222c0-.722.585-1.308 1.307-1.308h2.546a2.315 2.315 0 0 1 2.314 2.315v9.565h2.113c.722 0 1.307.585 1.307 1.307v.222c0 .722-.585 1.307-1.307 1.307" fill="#606060"/><path d="m8.799 14.974h-7.417a1.307 1.307 0 0 1 -1.307-1.307v-.222c0-.721.585-1.307 1.307-1.307h2.467v-9.044h-2.023a1.307 1.307 0 0 1 -1.307-1.307v-.222c0-.722.585-1.307 1.307-1.307h2.546a2.314 2.314 0 0 1 2.313 2.314v9.566h2.115c.722 0 1.307.586 1.307 1.307v.222c0 .721-.585 1.307-1.307 1.307" fill="#606060" mask="url(#b)" transform="translate(31.652 21.793)"/></g></svg>