<svg viewBox="0 0 512 512" xmlns="http://www.w3.org/2000/svg"><g fill="none" fill-rule="evenodd"><rect fill="#fff" fill-rule="nonzero" height="512" rx="16" width="512"/><path d="M121.144 171.037l15.907-.037c1.35-.004 2.332.302 2.94.913.603.612.91 1.601.914 2.97l.095 41.96a71.925 71.925 0 0 1-.253 6.434c-.173 1.985-.718 4.312-1.637 6.98l-5.306 14.719c-.353 1.083-.867 2.002-1.542 2.762-.674.758-1.58 1.14-2.718 1.14l-14.197.032c-1.141.004-2.176-.244-3.1-.747-.926-.503-1.535-1.33-1.82-2.485l-4.95-17.615c-.215-.718-.483-1.206-.805-1.457a1.762 1.762 0 0 0-1.122-.378l-.962.004a1.75 1.75 0 0 0-1.119.382c-.32.254-.585.74-.797 1.46l-4.979 17.638c-.28 1.082-.814 1.896-1.595 2.438-.782.543-1.741.816-2.88.817L77.126 249c-1.138.004-2.118-.356-2.94-1.075-.82-.717-1.408-1.654-1.767-2.805l-5.372-14.913c-.93-2.664-1.488-4.988-1.67-6.97a71.364 71.364 0 0 1-.282-6.436L65 175.06c-.003-1.367.298-2.36.9-2.976.602-.612 1.58-.922 2.934-.925l16.44-.038c1.351-.003 2.33.303 2.938.913.606.611.911 1.603.915 2.971l.091 39.796 6.161-13.64c.564-1.226 1.31-2.092 2.235-2.601.923-.507 2.063-.763 3.416-.764l4.484-.011c1.351-.004 2.489.246 3.417.749.924.504 1.673 1.366 2.248 2.59l6.223 13.61-.092-39.795c-.003-1.37.298-2.36.902-2.976.6-.612 1.58-.922 2.932-.925M207.192 248.886l-49.207.114c-1.343.004-2.317-.3-2.917-.913-.603-.61-.906-1.601-.908-2.972l-.16-70.098c-.003-1.37.294-2.36.894-2.976.598-.613 1.569-.923 2.912-.927l49.206-.114c1.342-.004 2.317.303 2.922.913.6.611.904 1.602.908 2.972l.027 12.656c.004 1.371-.297 2.364-.893 2.978-.6.615-1.574.923-2.916.926l-29.27.068.02 8.33 20.679-.048c1.343-.003 2.316.3 2.92.912.6.611.905 1.602.907 2.972l.026 11.573c.003 1.372-.296 2.366-.895 2.98-.599.613-1.57.923-2.913.927l-20.68.048.02 9.302 29.27-.068c1.342-.004 2.318.301 2.92.911.6.613.906 1.604.908 2.974l.028 12.657c.003 1.371-.296 2.362-.892 2.976-.603.616-1.574.923-2.916.927" fill="#426cff"/><path d="M262.206 193.762l-4.946 16.457 16.642-.04-5.019-16.433c-.285-.649-.584-1.115-.903-1.405a1.608 1.608 0 0 0-1.114-.43l-2.649.006a1.614 1.614 0 0 0-1.113.436c-.317.288-.62.76-.898 1.409zm-5.927 51.298c.004 1.37-.295 2.363-.893 2.977-.6.614-1.572.924-2.913.928L236.89 249c-1.343.004-2.317-.302-2.916-.913-.604-.61-.906-1.601-.91-2.973L233 216.55c-.005-2.163.325-4.651.99-7.466.665-2.815 1.698-6.099 3.103-9.852l9.167-24.583c.422-1.228 1.071-2.13 1.956-2.71.88-.577 2.029-.87 3.443-.872l28.516-.066c1.342-.004 2.455.282 3.342.855.882.577 1.54 1.477 1.965 2.701l9.279 24.54c1.422 3.748 2.471 7.025 3.151 9.837.678 2.81 1.02 5.3 1.024 7.462l.064 28.566c.003 1.37-.293 2.362-.892 2.976-.602.615-1.573.923-2.915.926l-16.007.038c-1.415.004-2.457-.3-3.128-.913-.674-.61-1.012-1.6-1.015-2.972l-.034-15.146-18.763.042zM368.177 248.876L314 249c-1.348.004-2.325-.3-2.928-.913-.605-.61-.908-1.601-.912-2.974l-.16-70.167c-.003-1.37.296-2.366.898-2.981.6-.615 1.574-.924 2.923-.927L330.32 171c1.347-.004 2.326.303 2.93.913.604.613.91 1.606.914 2.976l.122 53.6 14.579-.035-.04-17.54c-.002-1.371.297-2.365.9-2.98.599-.614 1.574-.925 2.924-.927l15.432-.036c1.347-.003 2.327.3 2.93.914.603.612.91 1.603.912 2.973l.078 34.11c.003 1.373-.297 2.366-.896 2.98-.604.614-1.58.925-2.927.928M441.178 248.874L387 249c-1.348.004-2.326-.3-2.928-.913-.605-.61-.91-1.603-.913-2.975L383 174.946c-.003-1.37.296-2.364.897-2.979.6-.614 1.575-.923 2.924-.927l16.498-.04c1.347-.002 2.326.303 2.93.914.604.614.909 1.605.912 2.975l.123 53.599 14.58-.034-.04-17.542c-.002-1.37.297-2.363.9-2.979.6-.614 1.575-.923 2.924-.926l15.432-.037c1.348-.003 2.327.303 2.93.914.603.612.91 1.605.912 2.975l.078 34.108c.003 1.373-.297 2.366-.896 2.98-.604.615-1.58.923-2.926.927" fill="#f6bb47"/><g fill="#426cff"><path d="M118.117 339.94L91.73 340c-9.01.02-15.702-1.767-20.071-5.365-4.37-3.598-6.563-9.15-6.58-16.656L65 284.312c-.018-7.504 2.15-13.084 6.503-16.738 4.353-3.655 11.035-5.493 20.046-5.514l26.387-.06c1.369-.004 2.36.302 2.975.914.614.613.921 1.603.925 2.973l.03 13.097c.003 1.372-.3 2.367-.913 2.981-.611.615-1.6.923-2.97.927l-21.735.05c-2.236.005-3.892.46-4.97 1.363-1.08.907-1.617 2.26-1.615 4.063l.06 25.764c.004 1.806.55 3.122 1.632 3.948 1.084.828 2.741 1.24 4.978 1.234l21.735-.05c1.368-.003 2.36.303 2.976.912.613.613.922 1.606.925 2.975l.031 12.882c.002 1.372-.302 2.366-.912 2.98-.613.614-1.603.924-2.971.927M155.171 316.101c.004 1.44.534 2.644 1.601 3.614 1.062.968 3.505 1.45 7.327 1.441 3.82-.01 6.261-.5 7.32-1.475 1.058-.976 1.587-2.18 1.584-3.621l-.067-29.052c-.003-1.366-.538-2.538-1.6-3.507-1.064-.97-3.506-1.45-7.327-1.44-3.821.007-6.263.5-7.32 1.474-1.06.975-1.587 2.147-1.584 3.514zm41.829 3.79c.007 3.313-.463 6.318-1.413 9.022-.948 2.703-2.641 5.01-5.079 6.925-2.438 1.912-5.796 3.414-10.073 4.503-4.28 1.09-9.709 1.643-16.29 1.659-6.58.015-12.031-.512-16.35-1.582-4.32-1.07-7.7-2.555-10.145-4.458-2.447-1.902-4.15-4.2-5.112-6.9-.96-2.698-1.445-5.702-1.453-9.014L131 283.218c-.006-3.311.464-6.32 1.413-9.021.947-2.703 2.641-5.03 5.08-6.978 2.436-1.95 5.81-3.47 10.126-4.56 4.313-1.09 9.76-1.643 16.34-1.659 6.582-.015 12.012.512 16.299 1.582 4.283 1.072 7.647 2.576 10.093 4.513 2.445 1.937 4.149 4.255 5.11 6.956.963 2.695 1.447 5.703 1.454 9.014zM232.198 282.705l.084 36.795 12.666-.03c1.704-.006 2.963-.44 3.774-1.307.812-.87 1.219-2.203 1.215-4.008l-.06-26.296c-.004-1.802-.418-3.12-1.232-3.947-.818-.827-2.079-1.24-3.781-1.236zm15.672 57.211L212 340c-1.35.002-2.326-.3-2.928-.912-.605-.613-.91-1.603-.912-2.975l-.16-70.125c-.003-1.37.295-2.363.897-2.977.6-.614 1.576-.925 2.925-.927l35.87-.084c8.867-.02 15.45 1.77 19.753 5.365 4.3 3.598 6.46 9.146 6.478 16.65l.077 33.764c.017 7.504-2.116 13.064-6.403 16.68-4.285 3.619-10.86 5.437-19.727 5.457zM338.19 339.885l-49.205.115c-1.343.002-2.317-.302-2.917-.913-.603-.61-.906-1.602-.907-2.973L285 266.017c-.003-1.369.294-2.36.894-2.976.598-.613 1.571-.923 2.914-.927l49.204-.114c1.342-.004 2.315.303 2.92.913.6.613.904 1.603.907 2.972l.028 12.656c.004 1.371-.297 2.364-.893 2.978-.6.616-1.574.922-2.916.926l-29.268.068.018 8.33 20.68-.047c1.342-.004 2.315.3 2.919.91.6.612.905 1.604.907 2.973l.026 11.574c.003 1.37-.295 2.365-.894 2.98-.6.612-1.57.922-2.913.925l-20.68.048.02 9.302 29.269-.068c1.342-.004 2.318.303 2.919.913.6.611.906 1.603.909 2.972l.03 12.657c.001 1.37-.298 2.363-.895 2.977-.602.615-1.574.922-2.916.926"/></g><path d="M375.26 294.408h-15.825c-1.54 0-2.789-1.266-2.789-2.829v-.48c0-1.563 1.249-2.83 2.79-2.83h5.264v-19.58h-4.318c-1.54 0-2.789-1.267-2.789-2.83v-.48c0-1.562 1.249-2.83 2.79-2.83h7.579c1.54 0 2.789 1.268 2.789 2.83v22.89h4.509c1.54 0 2.789 1.267 2.789 2.83v.48c0 1.563-1.25 2.83-2.79 2.83" fill="#426cff"/><g fill="#f6bb47"><path d="M407.03 330.643c0 .991-.283 1.65-.947 2.204-.28.232-1.483.987-5.308.987-3.809 0-4.967-.737-5.232-.963-.65-.555-.928-1.221-.928-2.228v-9.705c0-.207.03-.368.055-.54 1.345 1.098 3.597 1.82 6.153 1.82 2.533 0 4.764-.71 6.113-1.793.026.174.095.313.095.513zm6.14 0v-14.241c0-2.68-1.006-5.024-2.915-6.781-1.89-1.736-4.992-2.579-9.48-2.579-2.117 0-3.866.188-5.354.573-1.634.43-2.928 1.034-3.957 1.857-1.118.892-1.922 2.007-2.39 3.31-.398 1.11-.598 2.327-.598 3.62v14.24c0 1.293.2 2.51.599 3.617.467 1.308 1.274 2.423 2.389 3.311 1.029.823 2.325 1.431 3.957 1.857 1.478.385 3.227.573 5.354.573 4.486 0 7.582-.833 9.469-2.543 1.915-1.74 2.927-4.094 2.927-6.814zM373.555 330.643c0 .991-.284 1.65-.947 2.204-.28.232-1.483.987-5.309.987-3.808 0-4.967-.737-5.231-.963-.65-.555-.929-1.221-.929-2.228v-9.705c0-.207.031-.368.055-.54 1.346 1.098 3.597 1.82 6.154 1.82 2.533 0 4.764-.71 6.113-1.793.025.174.094.313.094.513zm3.224-21.022c-1.89-1.736-4.991-2.579-9.48-2.579-2.116 0-3.865.188-5.352.573-1.635.43-2.93 1.034-3.959 1.857-1.117.892-1.922 2.007-2.39 3.31-.397 1.11-.598 2.327-.598 3.62v14.24c0 1.293.2 2.51.599 3.617.467 1.308 1.275 2.423 2.39 3.311 1.028.823 2.325 1.431 3.958 1.857 1.476.385 3.226.573 5.352.573 4.487 0 7.584-.833 9.469-2.543 1.916-1.74 2.927-4.094 2.927-6.814v-14.241c0-2.68-1.007-5.024-2.916-6.781zM437.762 285.6c0 .992-.284 1.652-.948 2.205-.279.232-1.483.987-5.308.987-3.808 0-4.967-.737-5.231-.963-.65-.556-.928-1.221-.928-2.228v-9.705c0-.207.03-.368.055-.541 1.344 1.099 3.597 1.821 6.153 1.821 2.533 0 4.763-.71 6.113-1.794.025.175.094.314.094.514zm3.225-21.022c-1.89-1.735-4.992-2.578-9.481-2.578-2.116 0-3.866.188-5.353.573-1.635.43-2.928 1.034-3.957 1.857-1.118.892-1.922 2.007-2.39 3.31-.398 1.11-.599 2.327-.599 3.62v14.24c0 1.293.2 2.51.6 3.616a7.346 7.346 0 0 0 2.389 3.312c1.029.822 2.324 1.432 3.957 1.857 1.477.385 3.226.573 5.353.573 4.486 0 7.583-.833 9.47-2.543 1.914-1.74 2.926-4.095 2.926-6.814v-14.242c0-2.68-1.007-5.024-2.915-6.78z"/></g><path d="M408.735 294.408h-15.824c-1.54 0-2.789-1.266-2.789-2.829v-.48c0-1.563 1.249-2.83 2.79-2.83h5.263v-19.58h-4.318c-1.54 0-2.788-1.267-2.788-2.83v-.48c0-1.562 1.248-2.83 2.788-2.83h5.432c2.726 0 4.937 2.243 4.937 5.01v20.71h4.51c1.54 0 2.788 1.267 2.788 2.83v.48c0 1.563-1.249 2.83-2.789 2.83M442.21 340h-15.823c-1.54 0-2.79-1.267-2.79-2.83v-.48c0-1.563 1.25-2.83 2.79-2.83h5.264v-19.58h-4.318c-1.54 0-2.789-1.266-2.789-2.829v-.48c0-1.563 1.249-2.83 2.789-2.83h5.432c2.726 0 4.936 2.242 4.936 5.01v20.71h4.51c1.54 0 2.789 1.266 2.789 2.829v.48c0 1.563-1.25 2.83-2.79 2.83" fill="#426cff"/></g></svg>
