<svg height="933.333" viewBox="0 0 700 700" width="933.333" xmlns="http://www.w3.org/2000/svg"><path d="m553.7 75.3c-21.4 1.9-38.9 8.9-50.3 20.2-7.6 7.4-10.7 12.7-14.5 24-2.3 7-2.3 7.2-2.5 67.5-.3 67.8 0 71.9 6.1 84.5 9.7 20 29.9 31.5 61.5 35 5.2.6 33 .6 37.5.1 21.1-2.6 31.9-5.9 43-13.1 8.1-5.3 17.1-16.6 21.2-26.8 4.8-11.7 5-15.2 4.8-77.7-.2-51.1-.4-59.3-1.8-64.5-4.8-17.2-15.3-31.2-29.2-39-6.1-3.5-19.9-7.9-27.6-9-2.4-.3-6.2-.8-8.4-1.2-6.3-.9-30.1-.9-39.8 0zm-14.9 99.2c10.7 5.1 19.5 6.9 34.2 6.9 15.4 0 24.6-2 36.2-7.9 3.7-1.9 6.9-3.1 7.1-2.7 1 1.8 0 76.9-1 79.2-4.1 9.3-16.6 13.3-41.8 13.3-24.9 0-35.8-2.8-41.2-10.5l-2.8-4.1-.3-40-.2-40 2.2 1.7c1.3.8 4.7 2.7 7.6 4.1zm-474.6-94.9c-3.4.9-5.7 2.3-8.3 5.2-4.4 5-5.9 9.7-5.4 17.2.4 6.3 1.5 8.8 5.5 13.3 4.7 5.4 7.2 6.1 23.5 6.3 8.3.2 16.4.3 18 .3l3 .1-.1 68.5c0 37.6-.3 68.8-.7 69.1-.4.4-9.8.8-20.9.9-16.6.1-21 .4-24 1.8-4.5 2.1-9.3 7.8-10.5 12.6-1.3 5-.8 12.9 1.1 17.2 1.8 4.4 7.7 9.3 12.6 10.6 1.9.5 29.7.9 62.5.8 55-.1 59.3-.2 62.8-1.9 13-6.3 15.5-27 4.4-36.7-4.7-4.1-9-4.9-27.4-4.9h-17v-82.8c0-89.6.2-86.1-5.4-92.3-5.5-6.1-6.6-6.3-39.2-6.4-20.1 0-31.3.3-34.5 1.1zm238.2-.6c-4.8 1-9.2 4.1-12.1 8.5-2.3 3.3-2.8 5.3-3.1 11.5-.4 9.6 2.2 15 9.3 19.5l4.8 3 17.1.2c9.4.1 17.4.2 17.9.2.4.1.6 31.2.5 69.2l-.3 69.2-21 .1c-15.4.1-21.7.5-23.5 1.5-3.7 2-8 6.2-9.7 9.5-2.1 4-2.4 14-.6 19.3 1.8 5.2 7.8 10.7 13.1 12 2 .5 30.3.8 62.7.8 57.7-.1 59.1-.2 63-2.2 6.9-3.6 10.4-9.2 10.9-17.6.5-9.7-2.8-16.9-9.9-20.9-3.7-2.1-5.3-2.3-22.7-2.6l-18.8-.4v-3.1c-.1-1.8-.2-36.5-.3-77.2l-.2-74-3.3-6.7c-4-8.2-11.1-14.8-19-17.9-5.2-2-7.6-2.2-28.7-2.3-12.6-.1-24.4.1-26.1.4zm-184.6 313.5c-.2.2-4.3.5-9.1.6-35.6.8-63.1 15.6-71.6 38.5-4.5 12-4.8 17.5-4.6 81 .2 66 .1 64.9 6.7 78.4 4.1 8.6 14 18.4 23.3 23.2 15.6 8.1 31.2 11.2 56.5 11.2 24.1 0 39.3-2.7 54-9.7 14.7-6.9 25.9-20.4 31.3-37.5 1.9-6.4 2-9.2 2.3-64.7.3-65.1 0-69.1-6.2-82.4-8.2-17.5-21.6-28.5-41.5-33.9-9.4-2.6-12.5-3-26.4-3.7-6-.4-11.8-.8-12.7-.9-.9-.2-1.8-.2-2-.1zm-26.3 102.4c4.4 1.6 8.5 2.9 9 3 .6 0 3.5.3 6.5.7 20.2 2.6 43.4-1.9 53.1-10.3.9-.7 1.9-1 2.2-.6.4.3.7 17.7.7 38.5 0 31.9-.2 38.4-1.5 41.6-2 4.6-4.9 7.7-8.3 9-1.5.6-3.6 1.3-4.7 1.8-4.9 1.8-13 2.7-27 2.9-27 .5-39.8-3.2-44.1-12.8-1.7-3.7-1.9-7.5-1.9-42.1-.1-21 0-38.4.2-38.8s2.1.3 4.1 1.7c2.1 1.4 7.4 3.8 11.7 5.4zm263.2-102.3c-.1.1-3.9.4-8.3.5-7.4.2-15.6 1-23.7 2.4-5.6 1-18 5.5-24.2 8.8-8.1 4.3-18.5 14.7-22.2 22.2-6.8 13.7-6.8 13.2-6.8 83 0 57.4.2 63.6 1.8 69.5 2.8 10.2 6.7 16.9 14.3 24.7 5.8 6 8.8 8.1 16.5 11.8 15.6 7.3 29.3 9.9 53.9 9.9 43.6 0 67.5-10.6 79.8-35.5 7.4-15 7.4-15.2 7.4-78.9 0-31.1-.3-59-.7-62-.9-7.5-4-16.3-8.1-23.3-3.7-6.3-3.9-6.6-11.2-14-4.1-4.2-17.7-12.2-22.2-13.1-.8-.2-2.2-.6-3-.9-4.5-1.7-16.6-3.6-27-4.3-14.7-1-16-1-16.3-.8zm-31.7 100.2c14.5 6.6 34 8.4 52.3 4.7 7.1-1.4 18.5-6.2 21.9-9.2.9-.8 1.8-1.1 2.1-.6.2.4.4 18.3.3 39.8-.2 42.2-.2 42.3-5.7 46.9-6.1 5.1-21 7.6-42.9 7.1-21.6-.5-31.4-3.5-36.2-11.3-2.3-3.7-2.3-3.8-2.4-42.7-.1-21.5 0-39.3.3-39.8.2-.4 1.6.1 3.1 1.2 1.5 1 4.7 2.8 7.2 3.9zm216.3-91.7c-10.2 2.1-16.4 10.7-15.8 22 .3 6.6 1.8 10.5 5.3 14.2 5.3 5.6 7.3 6.1 25.7 6.3 9.4.2 17.5.3 18.1.3.7.1 1 21 1 69.1v69h-20.1c-13.5.1-21.1.5-23.5 1.4-8.1 2.8-12.9 10.2-13.1 19.9-.2 9.4 3.4 16 10.9 19.7l4.7 2.4 57.5.1c31.6 0 59.4-.3 61.7-.7 12.2-2.1 19-14.9 15.3-28.6-1.4-5.3-7.8-11.8-12.9-13.2-2.2-.6-4.3-1-4.8-.9-.4.1-8 .1-16.8 0l-16.1-.1.1-73.3c0-76.3-.2-81.5-4.2-89.3-4.3-8.1-14.3-15.9-23.3-17.9-4.1-1-45.6-1.3-49.7-.4z"/></svg>
