<?xml version="1.0" encoding="UTF-8"?>
<svg width="512px" height="286px" viewBox="0 0 512 286" version="1.1" xmlns="http://www.w3.org/2000/svg" xmlns:xlink="http://www.w3.org/1999/xlink">
    <!-- Generator: Sketch 52.6 (67491) - http://www.bohemiancoding.com/sketch -->
    <title>logo</title>
    <desc>Created with Sketch.</desc>
    <g id="logo" stroke="none" stroke-width="1" fill="none" fill-rule="evenodd">
        <g transform="translate(65.000000, 59.000000)">
            <path d="M56.1441552,0.0365383475 L72.0507972,3.0341373e-05 C73.4006862,-0.00350269147 74.3834899,0.301515811 74.9909986,0.912730494 C75.5938161,1.52512285 75.9010888,2.51437205 75.9046072,3.88283344 L75.9996037,45.8423092 C76.0066405,48.1493797 75.9198536,50.2951083 75.7474525,52.2771397 C75.5738785,54.2615265 75.0285281,56.5886175 74.1102282,59.2560573 L68.8044958,73.9758498 C68.451484,75.0593132 67.9366263,75.9779017 67.2622682,76.7375038 C66.58791,77.4959282 65.682511,77.8774957 64.5437253,77.8786734 L50.347021,77.9104707 C49.2058898,77.9140037 48.1714831,77.6655137 47.2473193,77.1626454 C46.3208099,76.6597771 45.7121284,75.8330474 45.4271387,74.6777456 L40.4767638,57.0632215 C40.262142,56.3448382 39.9935715,55.8572797 39.6722252,55.6064343 C39.3497061,55.3532336 38.9767568,55.2283998 38.5498588,55.2283998 L37.5881654,55.2319328 C37.1612674,55.2319328 36.7894909,55.3602997 36.4693174,55.6135004 C36.1491439,55.8678788 35.8840918,56.3542596 35.6718156,57.0738206 L30.6932935,74.7118983 C30.4129951,75.794184 29.8793726,76.6079592 29.09829,77.149691 C28.3160345,77.6926003 27.3566868,77.9658215 26.2179012,77.9669992 L12.1255758,77.9999742 C10.987963,78.0035072 10.0075049,77.6443156 9.18654719,76.9247545 C8.36676228,76.2075489 7.77801832,75.2712952 7.41914252,74.1195264 L2.04656073,59.2065948 C1.11653293,56.542688 0.559454486,54.2191301 0.377670993,52.2370987 C0.193541908,50.2550672 0.0997181698,48.111694 0.0950269829,45.8010905 L3.04482829e-05,4.05948508 C-0.00348794189,2.69220137 0.297920816,1.69941914 0.900738332,1.08349375 C1.50238305,0.471101388 2.48049552,0.161372175 3.83390294,0.157839142 L20.2741674,0.120153458 C21.6252292,0.116620425 22.6045145,0.422816605 23.2120232,1.03285361 C23.8183591,1.64406829 24.1232863,2.63567285 24.1268047,4.00413424 L24.2182828,43.8002162 L30.378984,30.1591764 C30.9430992,28.9343917 31.6889979,28.067621 32.6143345,27.5588642 C33.5373256,27.0524629 34.677284,26.7957291 36.0295186,26.7945515 L40.5142933,26.7839524 C41.8653551,26.7804193 43.0029679,27.030087 43.9306501,27.5329553 C44.8548139,28.0370013 45.6042311,28.8990614 46.1789014,30.1226684 L52.4017609,43.7330886 L52.3102827,3.93818429 C52.3067643,2.56854522 52.6081731,1.57811835 53.2121634,0.962192953 C53.8126353,0.349800593 54.7919206,0.0400713803 56.1441552,0.0365383475" id="Fill-896" fill="#426CFF"></path>
            <path d="M142.191586,77.8856986 L92.9854944,77.9999695 C91.6422498,78.0035037 90.66831,77.6995665 90.0683352,77.08698 C89.4648654,76.4767495 89.1619654,75.4860086 89.1596354,74.1147571 L89.0000305,4.01718438 C88.9965355,2.64711099 89.2936104,1.65637004 89.8935852,1.04142738 C90.4923951,0.427662774 91.4628398,0.117835343 92.8060844,0.11430119 L142.012176,3.02362438e-05 C143.354255,-0.00350391696 144.32936,0.302789361 144.933995,0.913019814 C145.53397,1.52442832 145.838035,2.51516927 145.84153,3.88524266 L145.86949,16.5410453 C145.872985,17.9122967 145.572415,18.9053938 144.975935,19.5191584 C144.37596,20.134101 143.40202,20.4415724 142.059941,20.4451065 L112.790489,20.5134335 L112.809129,28.8434326 L133.489038,28.7951325 C134.832283,28.7915984 135.805058,29.0955355 136.408527,29.706944 C137.008502,30.3183525 137.313732,31.3090935 137.316062,32.6791669 L137.341692,44.2523406 C137.345187,45.623592 137.045782,46.6178671 136.446972,47.2316317 C135.848163,47.8453963 134.877718,48.1552238 133.534473,48.1587579 L112.854564,48.207058 L112.874369,57.5089492 L142.143821,57.4406223 C143.4859,57.4370881 144.46217,57.7422034 145.06331,58.3524338 C145.663285,58.9650204 145.96968,59.9557613 145.97201,61.3258347 L145.99997,73.9828154 C146.003465,75.3540668 145.70406,76.3448078 145.10758,76.9585724 C144.505275,77.5746931 143.533665,77.8821644 142.191586,77.8856986" id="Fill-897" fill="#426CFF"></path>
            <path d="M197.205893,22.7617477 L192.260033,39.2185691 L208.901506,39.1796864 L203.883444,22.7464303 C203.598129,22.0972065 203.298838,21.6306137 202.979751,21.3407606 C202.660663,21.0556206 202.290335,20.9095158 201.866437,20.9118723 L199.217077,20.9165854 C198.792015,20.9189419 198.420522,21.0638684 198.103764,21.3525432 C197.787005,21.6412181 197.484221,22.1125239 197.205893,22.7617477 Z M191.279479,74.0598529 C191.282972,75.4301746 190.983682,76.4234516 190.386266,77.0373275 C189.785356,77.6512033 188.814118,77.9610869 187.472552,77.9646217 L171.889658,77.9999696 C170.546928,78.0035044 169.573361,77.6983339 168.973616,77.0868146 C168.370377,76.4764735 168.067593,75.485553 168.064099,74.114053 L168.000049,45.5493847 C167.99539,43.386091 168.324959,40.8975962 168.989919,38.0827221 C169.65488,35.267848 170.687839,31.9840246 172.093455,28.2312519 L181.259658,3.64793961 C181.682391,2.42018792 182.331047,1.51763725 183.216108,0.937931071 C184.096511,0.360581425 185.244761,0.0683718083 186.658529,0.0660152791 L215.174958,3.24623916e-05 C216.516524,-0.00350233136 217.629837,0.281637698 218.517227,0.85545255 C219.398794,1.43162393 220.056767,2.33181807 220.481829,3.55603498 L229.760994,28.0957515 C231.182914,31.8438111 232.232177,35.1205649 232.912276,37.9330825 C233.590047,40.7432435 233.931261,43.2329166 233.935919,45.3950321 L233.99997,73.9608787 C234.003463,75.3312004 233.706502,76.3232991 233.107921,76.937175 C232.505847,77.5522291 231.534609,77.8597562 230.193043,77.863291 L214.186252,77.9009954 C212.771319,77.9045302 211.729043,77.6005379 211.05826,76.9878404 C210.383983,76.3774993 210.046263,75.3877571 210.042769,74.0162571 L210.008997,58.8696659 L191.245707,58.9120834 L191.279479,74.0598529 Z" id="Fill-898" fill="#F5BA47"></path>
            <path d="M303.177447,77.8761507 L249.000291,77.9999695 C247.652059,78.0035072 246.674504,77.6992667 246.072301,77.0872482 C245.466591,76.4764088 245.163736,75.4858585 245.160228,74.1132388 L245.00003,3.94572226 C244.996523,2.57546102 245.29587,1.58019383 245.898072,0.964637573 C246.497936,0.350260548 247.471983,0.0413031954 248.821384,0.0377655158 L265.319387,3.02666327e-05 C266.66645,-0.00350741298 267.645174,0.303091486 268.249715,0.912751606 C268.853087,1.5259494 269.15945,2.51885815 269.162958,3.88911938 L269.284568,57.4885031 L283.863709,57.4543056 L283.823952,39.9133108 C283.821614,38.5430496 284.120961,37.5489616 284.723163,36.9345846 C285.323027,36.3202076 286.298244,36.0088918 287.647644,36.0065333 L303.080393,35.9711565 C304.427455,35.9676188 305.407349,36.2718593 306.010721,36.8850571 C306.612923,37.4970757 306.920456,38.487626 306.921625,39.8578872 L306.99997,73.968194 C307.003478,75.3408137 306.702961,76.3337224 306.104267,76.9480994 C305.499726,77.5624765 304.524509,77.872613 303.177447,77.8761507" id="Fill-899" fill="#F5BA47"></path>
            <path d="M376.177519,77.8737961 L322.000215,77.9999695 C320.652009,78.0035071 319.674472,77.6992758 319.072281,77.0872756 C318.466582,76.4764546 318.162564,75.4835756 318.159056,74.1121763 L318.00003,3.94558709 C317.996523,2.57536699 318.295864,1.58248806 318.896886,0.966950284 C319.497907,0.352591703 320.471936,0.043643626 321.821312,0.0401060526 L338.319004,1.35540537e-05 C339.666041,-0.00234482821 340.644747,0.303065676 341.248108,0.913886683 C341.852637,1.52824526 342.157825,2.51876582 342.161333,3.88898591 L342.28411,57.4879397 L356.864146,57.4537432 L356.824389,39.9120959 C356.822051,38.5418758 357.121392,37.5489968 357.723583,36.9334591 C358.323435,36.3191005 359.298634,36.0101524 360.648009,36.0066148 L376.080467,35.9700599 C377.427504,35.9665223 378.407379,36.273112 379.01074,36.883933 C379.61293,37.4959332 379.920457,38.4888122 379.921626,39.8590323 L379.99997,73.9671358 C380.003478,75.3397143 379.702967,76.3325932 379.104284,76.9469518 C378.499754,77.5624896 377.524556,77.8702585 376.177519,77.8737961" id="Fill-900" fill="#F5BA47"></path>
            <path d="M53.1166008,168.939711 L26.7300126,168.999833 C17.7194656,169.019874 11.0277831,167.23271 6.65852907,163.634805 C2.28808707,160.0369 0.0963323842,154.484431 0.0785132404,146.978579 L0.000109007652,113.312466 C-0.0177101361,105.807792 2.14909775,100.228209 6.50290855,96.5737184 C10.8555314,92.9192275 17.5377103,91.0813723 26.5494453,91.0601526 L52.9360335,91.0000304 C54.3045437,90.9964938 55.2952881,91.3018206 55.9106425,91.9136531 C56.524809,92.5266645 56.8324862,93.5169136 56.8360501,94.8867583 L56.8657486,107.983982 C56.8693125,109.356184 56.5651991,110.351149 55.9534085,110.965339 C55.3416179,111.57953 54.3532494,111.888393 52.9835512,111.89193 L31.2477596,111.941442 C29.012051,111.947336 27.3560586,112.402379 26.2774064,113.305392 C25.1987542,114.211942 24.6606161,115.565282 24.662992,117.367772 L24.7235771,143.131932 C24.7271409,144.937958 25.2724067,146.253575 26.3546227,147.079961 C27.4392146,147.907527 29.0963949,148.32013 31.3332915,148.314236 L53.0678951,148.264724 C54.4364054,148.261187 55.4283377,148.566514 56.0436921,149.175989 C56.6566707,149.789 56.9655358,150.781607 56.9690997,152.151451 L56.9999862,165.032942 C57.0023621,166.405145 56.6982487,167.398931 56.087646,168.013121 C55.4746675,168.627311 54.485111,168.937353 53.1166008,168.939711" id="Fill-901" fill="#DE504D"></path>
            <path d="M90.1712042,145.101148 C90.1747023,146.541916 90.7052573,147.745103 91.7721974,148.715416 C92.8344734,149.683376 95.2773583,150.164416 99.0985199,150.156183 C102.919682,150.145598 105.360234,149.655149 106.419012,148.681308 C107.476624,147.705115 108.006013,146.500751 108.002515,145.059983 L107.936049,116.008233 C107.932551,114.641562 107.398498,113.47013 106.336222,112.500993 C105.271614,111.531857 102.829895,111.050817 99.0087337,111.061402 C95.187572,111.068459 92.7458532,111.560084 91.6894075,112.535101 C90.6282977,113.510118 90.1024069,114.68155 90.104739,116.049397 L90.1712042,145.101148 Z M131.999923,148.891836 C132.006919,152.203837 131.536999,155.208866 130.586665,157.912804 C129.638662,160.615566 127.94555,162.923146 125.508496,164.837897 C123.070275,166.750295 119.712037,168.252221 115.434948,169.341324 C111.154361,170.431603 105.726376,170.984387 99.1451621,170.999677 C92.5651147,171.014966 87.1138084,170.488057 82.7959074,169.417773 C78.4756742,168.348665 75.0941152,166.863204 72.6500643,164.960215 C70.2025152,163.058402 68.5000751,160.759055 67.5380799,158.059821 C66.5772507,155.361764 66.093338,152.357911 66.0851756,149.04591 L66.0000536,112.217544 C65.9942233,108.90672 66.4641434,105.898162 67.413312,103.196576 C68.3601486,100.493814 70.0544262,98.1674161 72.4926469,96.2185577 C74.9285354,94.2696993 78.3030981,92.7489547 82.618667,91.658676 C86.9319038,90.5683974 92.379712,90.0156131 98.9597594,90.0003234 C105.540973,89.9850336 110.97129,90.5119428 115.257708,91.5822271 C119.540627,92.6536876 122.904695,94.1579663 125.351078,96.0950634 C127.796295,98.0321604 129.499901,100.350326 130.460731,103.050735 C131.423892,105.746441 131.907805,108.753822 131.914801,112.064646 L131.999923,148.891836 Z" id="Fill-902" fill="#DE504D"></path>
            <path d="M167.198226,111.705445 L167.282414,148.499769 L179.948027,148.470306 C181.651664,148.464414 182.910976,148.030721 183.722454,147.163337 C184.533933,146.293595 184.940841,144.959519 184.937333,143.155217 L184.876531,116.859078 C184.873023,115.057133 184.459099,113.738378 183.645282,112.912241 C182.826788,112.084925 181.566307,111.671268 179.863839,111.675982 L167.198226,111.705445 Z M182.870051,168.916312 L147.000129,168.999986 C145.650782,169.002343 144.674436,168.699466 144.072258,168.087818 C143.466572,167.474992 143.16256,166.485042 143.160222,165.113254 L143.000031,94.9882512 C142.996523,93.6188202 143.294688,92.6253345 143.896866,92.0113298 C144.497875,91.397325 145.473052,91.0861978 146.822398,91.0838408 L182.691152,91.0001664 C191.558951,90.9801317 198.141983,92.769113 202.444924,96.3647533 C206.745526,99.9627505 208.905181,105.511185 208.92272,113.014771 L208.999893,146.779142 C209.017432,154.282728 206.883501,159.842948 202.59693,163.459801 C198.311528,167.077833 191.737851,168.896277 182.870051,168.916312 Z" id="Fill-903" fill="#DE504D"></path>
            <path d="M273.189437,168.884539 L223.985333,168.999986 C222.642143,169.002342 221.668243,168.69841 221.068292,168.08701 C220.464847,167.476789 220.161959,166.484885 220.160794,165.113654 L220.00003,95.0171246 C219.996536,93.6482496 220.293599,92.6563454 220.893549,92.0414119 C221.492335,91.4276564 222.46507,91.1178336 223.808261,91.1142995 L273.012364,91.0000302 C274.354389,90.9964961 275.327125,91.3027849 275.931735,91.9130062 C276.531686,92.5255837 276.835738,93.5163099 276.839233,94.8851848 L276.867192,107.540799 C276.870687,108.91203 276.570129,109.905112 275.973673,110.518868 C275.373723,111.134979 274.399822,111.441268 273.057797,111.444802 L243.789528,111.513128 L243.808167,119.843003 L264.487241,119.795882 C265.830431,119.792348 266.803166,120.09628 267.406612,120.706502 C268.006562,121.317901 268.31178,122.309805 268.31411,123.67868 L268.339739,135.25286 C268.343234,136.622913 268.045006,137.618351 267.44622,138.232107 C266.84627,138.844684 265.875864,139.154507 264.532674,139.158041 L243.8536,139.20634 L243.873404,148.508093 L273.141674,148.439767 C274.483699,148.436233 275.459929,148.742522 276.061045,149.352743 C276.660995,149.964143 276.967378,150.956047 276.969708,152.324922 L276.999997,164.981714 C277.001162,166.352945 276.701769,167.344849 276.105313,167.958605 C275.503033,168.573538 274.531462,168.881005 273.189437,168.884539" id="Fill-904" fill="#DE504D"></path>
            <path d="M310.133444,123 L293.866556,123 C292.283148,123 291,121.726652 291,120.157933 L291,119.67534 C291,118.105458 292.283148,116.833273 293.866556,116.833273 L299.278296,116.833273 L299.278296,97.1678901 L294.84006,97.1678901 C293.256651,97.1678901 291.973503,95.8945418 291.973503,94.3258231 L291.973503,93.8432299 C291.973503,92.2733484 293.256651,91 294.84006,91 L302.631604,91 C304.215013,91 305.498161,92.2733484 305.498161,93.8432299 L305.498161,116.833273 L310.133444,116.833273 C311.716852,116.833273 313,118.105458 313,119.67534 L313,120.157933 C313,121.726652 311.716852,123 310.133444,123" id="Fill-905" fill="#B1B1B1"></path>
            <path d="M341.784867,159.630966 C341.784867,160.623981 341.496554,161.284051 340.824996,161.838184 C340.541372,162.071013 339.32366,162.826542 335.451362,162.826542 C331.596643,162.826542 330.422296,162.088475 330.155079,161.862631 C329.496414,161.30617 329.215133,160.639115 329.215133,159.630966 L329.215133,149.912689 C329.215133,149.706636 329.246777,149.54482 329.270217,149.372526 C330.632085,150.472643 332.912803,151.195576 335.500586,151.195576 C338.064929,151.195576 340.322207,150.484284 341.688763,149.399302 C341.714547,149.573923 341.784867,149.71362 341.784867,149.912689 L341.784867,159.630966 Z M348,159.630966 L348,145.371362 C348,142.688009 346.980357,140.341094 345.048896,138.580908 C343.133843,136.844005 339.995218,136 335.451362,136 C333.310112,136 331.538043,136.188591 330.032019,136.573923 C328.377151,137.003492 327.066851,137.608847 326.02494,138.433062 C324.893957,139.32596 324.080587,140.443539 323.607098,141.748545 C323.203929,142.857974 323,144.076834 323,145.371362 L323,159.630966 C323,160.925495 323.203929,162.144354 323.607098,163.251455 C324.080587,164.561118 324.896301,165.678696 326.02494,166.566938 C327.066851,167.391153 328.379495,168.001164 330.032019,168.426077 C331.527495,168.811409 333.298392,169 335.451362,169 C339.992874,169 343.127983,168.167637 345.037176,166.454016 C346.975669,164.712456 348,162.3539 348,159.630966 Z" id="Fill-906" fill="#F5BA47"></path>
            <path d="M307.784867,159.630966 C307.784867,160.623981 307.496554,161.284051 306.826168,161.838184 C306.542544,162.071013 305.32366,162.826542 301.451362,162.826542 C297.596643,162.826542 296.422296,162.088475 296.155079,161.862631 C295.497586,161.30617 295.215133,160.639115 295.215133,159.630966 L295.215133,149.912689 C295.215133,149.706636 295.246777,149.54482 295.270217,149.372526 C296.632085,150.472643 298.912803,151.195576 301.500586,151.195576 C304.064929,151.195576 306.323379,150.484284 307.688763,149.399302 C307.714547,149.573923 307.784867,149.71362 307.784867,149.912689 L307.784867,159.630966 Z M311.048896,138.580908 C309.133843,136.844005 305.995218,136 301.451362,136 C299.310112,136 297.538043,136.188591 296.032019,136.573923 C294.377151,137.003492 293.066851,137.608847 292.026112,138.433062 C290.893957,139.32596 290.080587,140.443539 289.607098,141.748545 C289.203929,142.857974 289,144.076834 289,145.371362 L289,159.630966 C289,160.925495 289.203929,162.144354 289.607098,163.251455 C290.080587,164.561118 290.896301,165.678696 292.026112,166.566938 C293.066851,167.391153 294.379495,168.001164 296.032019,168.426077 C297.527495,168.811409 299.298392,169 301.451362,169 C305.994046,169 309.127983,168.167637 311.037176,166.454016 C312.976841,164.712456 314,162.3539 314,159.630966 L314,145.371362 C314,142.688009 312.980357,140.341094 311.048896,138.580908 Z" id="Fill-907" fill="#4D57F4"></path>
            <path d="M372.784576,113.630966 C372.784576,114.623981 372.496249,115.284051 371.825832,115.838184 C371.542194,116.071013 370.323254,116.826542 366.450774,116.826542 C362.595874,116.826542 361.422644,116.088475 361.154243,115.862631 C360.496718,115.30617 360.215424,114.639115 360.215424,113.630966 L360.215424,103.912689 C360.215424,103.706636 360.245898,103.54482 360.270511,103.371362 C361.632443,104.472643 363.912096,105.195576 366.5,105.195576 C369.064463,105.195576 371.323019,104.48312 372.689639,103.399302 C372.714252,103.573923 372.784576,103.71362 372.784576,103.912689 L372.784576,113.630966 Z M376.048758,92.580908 C374.134787,90.8440047 370.996015,90 366.450774,90 C364.309423,90 362.537271,90.1885914 361.031177,90.5739232 C359.376231,91.0034924 358.06587,91.6088475 357.025082,92.4330617 C355.892874,93.3259604 355.079466,94.443539 354.605954,95.7485448 C354.202766,96.8579744 354,98.0768335 354,99.371362 L354,113.630966 C354,114.924331 354.202766,116.144354 354.605954,117.251455 C355.079466,118.561118 355.895218,119.678696 357.025082,120.566938 C358.06587,121.391153 359.378575,122 361.031177,122.426077 C362.526723,122.811409 364.297703,123 366.450774,123 C370.993671,123 374.127754,122.166473 376.037037,120.454016 C377.976793,118.712456 379,116.3539 379,113.630966 L379,99.371362 C379,96.6880093 377.981481,94.3410943 376.048758,92.580908 Z" id="Fill-908" fill="#DE504D"></path>
            <path d="M344.133444,123 L327.866556,123 C326.283148,123 325,121.726652 325,120.157933 L325,119.67534 C325,118.105458 326.283148,116.833273 327.866556,116.833273 L333.278296,116.833273 L333.278296,97.1678901 L328.84006,97.1678901 C327.256651,97.1678901 325.973503,95.8945418 325.973503,94.3258231 L325.973503,93.8432299 C325.973503,92.2733484 327.256651,91 328.84006,91 L334.424215,91 C337.226262,91 339.498161,93.2536522 339.498161,96.0329239 L339.498161,116.833273 L344.133444,116.833273 C345.716852,116.833273 347,118.105458 347,119.67534 L347,120.157933 C347,121.726652 345.716852,123 344.133444,123" id="Fill-909" fill="#B1B1B1"></path>
            <path d="M377.133444,169 L360.866556,169 C359.284321,169 358,167.726605 358,166.15783 L358,165.675219 C358,164.106443 359.284321,162.833049 360.866556,162.833049 L366.278296,162.833049 L366.278296,143.166951 L361.84006,143.166951 C360.256651,143.166951 358.973503,141.893557 358.973503,140.324781 L358.973503,139.84217 C358.973503,138.272232 360.256651,137 361.84006,137 L367.424215,137 C370.226262,137 372.498161,139.252571 372.498161,142.031944 L372.498161,162.833049 L377.133444,162.833049 C378.716852,162.833049 380,164.106443 380,165.675219 L380,166.15783 C380,167.726605 378.716852,169 377.133444,169" id="Fill-910" fill="#B1B1B1"></path>
        </g>
    </g>
</svg>