<svg height="46" viewBox="0 0 154 46" width="154" xmlns="http://www.w3.org/2000/svg"><g fill="#fff" fill-opacity=".4" fill-rule="evenodd"><path d="m94.3609065 35.8167002c-8.960427 6.6404042-21.948019 10.1832998-33.1300939 10.1832998-15.6790729 0-29.7942618-5.8305945-40.4729478-15.5280095-.83899-.7625705-.0872579-1.8018165.9195352-1.2079628 11.5243837 6.7416291 25.7738197 10.7974037 40.493086 10.7974037 9.9269409 0 20.8472551-2.0650065 30.8883051-6.3502226 1.5168974-.6478472 2.7854516.9987587 1.3021154 2.1054914"/><path d="m98.9538946 31.5357224c-1.1606889-1.3758524-7.7014864-.6500577-10.6373349-.3281837-.8944134.1009801-1.0309602-.6185025-.2253131-1.1360296 5.2094278-3.3891407 13.7575314-2.4108969 14.7543554-1.2748722.996818 1.1423392-.259448 9.0629622-5.154809 12.8433971-.7510304.5806352-1.4679242.2713876-1.1333701-.4985887 1.0992335-2.5371227 3.5639841-8.2235586 2.3964717-9.6057229"/><path d="m88.4592277 4.96522545v-3.42313517c0-.51806061.4060333-.86561969.8932726-.86561969h15.8149967c.507546 0 .913579.3541176.913579.86561969v2.93130614c-.006763.49182903-.433103 1.13448653-1.191035 2.1509347l-8.1951052 11.33831928c3.045253-.0721312 6.2596832.3672322 9.0207102 1.8755119.622584.3410005.791765.8393881.839136 1.3312221v3.6526559c0 .4983876-.568448 1.0820209-1.163963.7803689-4.865636-2.4722672-11.3283324-2.741134-16.7082744.0262316-.5481439.2885399-1.1233574-.2885399-1.1233574-.7869274v-3.4690398c0-.5574068.0067628-1.5082822.5819763-2.3542289l9.494416-13.19415558h-8.2627777c-.5075408 0-.9135741-.34755658-.9135741-.85906367"/><path d="m32.641219 26.3823529h-4.6332816c-.4431231-.0323065-.7950206-.3618694-.8276049-.7819039v-23.57987586c0-.47172697.3975116-.84652689.8927711-.84652689h4.3204856c.449648.01937358.8080554.36187187.8406421.78836424v3.08238352h.0847157c1.1273661-2.9789912 3.2452486-4.36832342 6.0995104-4.36832342 2.8998734 0 4.7114799 1.38933222 6.0147947 4.36832342 1.1208512-2.9789912 3.6688295-4.36832342 6.3992765-4.36832342 1.9419387 0 4.066341.79482703 5.3631385 2.5783426 1.4662288 1.9838374 1.1664652 4.86589415 1.1664652 7.39254431l-.0065124 14.8820132c0 .4717269-.3975115.8529822-.892771.8529822h-4.6267692c-.4626726-.0323065-.8341172-.4006412-.8341172-.8529822v-12.4975321c0-.9951489.091228-3.47656198-.1303323-4.42001838-.3453776-1.5831888-1.3815131-2.02907201-2.7239296-2.02907201-1.1208511 0-2.2938337.7431321-2.7695436 1.93214495-.4757099 1.18901038-.4300934 3.17930564-.4300934 4.51694544v12.4975321c0 .4717269-.3975115.8529822-.892771.8529822h-4.6267642c-.4691925-.0323065-.8341222-.4006412-.8341222-.8529822l-.0065174-12.4975321c0-2.6300376.4366058-6.50078531-2.8542593-6.50078531-3.3299717 0-3.1996395 3.77381331-3.1996395 6.50078531v12.4975321c0 .4717269-.3975116.8529822-.892771.8529822"/><path d="m119.35717.67647059c7.099584 0 10.942105 5.89600699 10.942105 13.39291821 0 7.2431063-4.246294 12.9894347-10.942105 12.9894347-6.971726 0-10.767146-5.896007-10.767146-13.2432371 0-7.39278735 3.842527-13.13911581 10.767146-13.13911581m.040374 4.84826474c-3.526234 0-3.74831 4.64651807-3.74831 7.54246337 0 2.9024488-.047107 9.0978104 3.707936 9.0978104 3.707934 0 3.882901-4.9979358 3.882901-8.0435621 0-2.0043777-.087483-4.39922422-.713327-6.29948546-.538358-1.65295992-1.608338-2.29722621-3.1292-2.29722621" fill-rule="nonzero"/><path d="m139.328846 26.3823529h-4.768639c-.478214-.0323065-.86213-.4006412-.86213-.8529822l-.006731-23.58634611c.040412-.43295516.4378-.76897834.922746-.76897834h4.43861c.417589.01937358.761093.29079104.855391.6591257v3.60580048h.087555c1.340343-3.22454271 3.219506-4.76250184 6.526571-4.76250184 2.148582 0 4.243284.7431321 5.590358 2.77866443 1.252778 1.88690789 1.252778 5.05975814 1.252778 7.34084448v14.8432463c-.053882.4135643-.45127.7431271-.922741.7431271h-4.80232c-.437803-.0323065-.801513-.3424835-.848656-.7431271v-12.8077091c0-2.5783426.309826-6.3521608-2.997242-6.3521608-1.165215 0-2.236142.74959736-2.768236 1.88690788-.673533 1.44103207-.761093 2.87559892-.761093 4.46525292v12.697854c-.006731.4717269-.424328.8529822-.936215.8529822"/><g fill-rule="nonzero"><path d="m13.7530564 14.7342458v-.9954752c-3.3520481 0-6.89321459.7110537-6.89321459 4.6283153 0 1.984488 1.03691456 3.3290313 2.8172812 3.3290313 1.30429789 0 2.47164299-.7950877 3.20857529-2.0879166.9130041-1.5901779.8673581-3.0833919.8673581-4.8739548m4.6759052 11.2023366c-.3065096.2714941-.7499744.2908864-1.0956126.1098936-1.5390674-1.2669694-1.812973-1.8552046-2.6607665-3.0639972-2.5433808 2.5727233-4.3433068 3.3419513-7.64318398 3.3419513-3.89985168 0-6.93886031-2.385263-6.93886031-7.1622516 0-3.7298064 2.04122522-6.27021 4.94328602-7.5113221 2.51729395-1.0989064 6.03237627-1.2928266 8.71923217-1.5966403v-.59470017c0-1.09244146.0847796-2.38526798-.5608483-3.32902639-.5673734-.84680449-1.6499364-1.19586767-2.6020763-1.19586767-1.76731961 0-3.34552314.8985139-3.73028999 2.7601834-.07825982.41370735-.38476934.82094732-.80214259.84033958l-4.49982617-.47834904c-.37824707-.08402903-.7956228-.38784771-.69127887-.96315067 1.03691705-5.40401324 5.96063875-7.03297806 10.36916802-7.03297806 2.2564306 0 5.2041424.59470016 6.984509 2.28830174 2.2564379 2.08791421 2.0412252 4.87395478 2.0412252 7.90563478v7.1622565c0 2.1525584.8999693 3.0963168 1.7477628 4.2598649.2999872.4136999.3652025.9114388-.0130446 1.2217174-.9456151.7821628-2.6281576 2.2365923-3.5542135 3.0510723l-.0130395-.0129446" transform="translate(63.13628)"/><path d="m13.8423479 14.7398349v-.9999701c-3.3854302 0-6.96186211.7142644-6.96186211 4.6492138 0 1.9934486 1.0472409 3.344063 2.8453377 3.344063 1.31728701 0 2.49625741-.7986777 3.24052861-2.0973443.9220964-1.597358.8759958-3.0973145.8759958-4.8959624m4.7224712 11.2529191c-.309562.27272-.7574431.2921998-1.1065234.1103898-1.5543946-1.2726902-1.8310279-1.8635815-2.6872644-3.0778322-2.5687096 2.58434-4.3865605 3.3570413-7.71930023 3.3570413-3.93868917 0-7.00796242-2.3960333-7.00796242-7.1945916 0-3.7466477 2.0615532-6.2985221 4.99251479-7.5452383 2.54236295-1.1038683 6.09245096-1.2986641 8.80606446-1.6038497v-.59738542c0-1.09737421.0856239-2.39603829-.5664336-3.34405809-.5730237-.8506281-1.6663676-1.20126743-2.6279896-1.20126743-1.78491987 0-3.37884027.902571-3.76743891 2.77264658-.07903918.41557538-.38860114.82465418-.81013088.84413401l-4.54463865-.48050896c-.38201392-.08440844-.80354618-.38959897-.69816311-.96749962 1.0472434-5.42841421 6.01999902-7.06473437 10.47243155-7.06473437 2.2789018 0 5.255969.59738543 7.0540657 2.29863421 2.2789091 2.09734185 2.0615532 4.89596236 2.0615532 7.94133149v7.1945965c0 2.1622779.9089318 3.1102977 1.7651682 4.2790996.3029748.415568.3688395.9155543-.0131744 1.2272339-.9550323.7856946-2.6543307 2.2466913-3.5896089 3.0648489l-.0131694-.013003"/></g></g></svg>