<svg height="44" viewBox="0 0 38 44" width="38" xmlns="http://www.w3.org/2000/svg"><path d="m37.2035761 34.2893587c-.6822512 1.5372375-1.4898138 2.9522565-2.4254726 4.2532048-1.2753921 1.7735267-2.3196541 3.0011439-3.1244321 3.6828517-1.2475451 1.1189785-2.5842005 1.6920476-4.0155357 1.7246392-1.0275538 0-2.2667448-.2851766-3.7092188-.8636776-1.447208-.5757851-2.7771801-.8609616-3.9932581-.8609616-1.2753921 0-2.6432361.2851765-4.1063169.8609616-1.4653085.578501-2.6457423.8799734-3.5482632.909849-1.372578.0570354-2.74070057-.5323296-4.10631687-1.7708106-.87161072-.7414591-1.96182031-2.0125318-3.26784405-3.8132181-1.40126044-1.9229049-2.55329034-4.152714-3.45581123-6.6948594-.96656896-2.7458429-1.45110655-5.4047749-1.45110655-7.9789687 0-2.9487257.65329034-5.4919575 1.96182031-7.623177 1.02838928-1.7118742 2.3965118-3.0622532 4.1088231-4.0535812 1.7123113-.9913281 3.56246519-1.496498 5.55491719-1.528818 1.0902096 0 2.519874.3289036 4.2965118.9753038 1.7716254.648573 2.9091749.9774767 3.4079144.9774767.3728712 0 1.6365675-.384581 3.7788363-1.1512986 2.0258684-.7110402 3.7356735-1.0054511 5.136377-.8894793 3.7955444.2987564 6.647076 1.7580457 8.5434559 4.387102-3.3945478 2.0060135-5.0737212 4.8156816-5.0403048 8.4200418.0306317 2.8074954 1.0748937 5.1437705 3.1272167 6.9987761.9300894.8609617 1.9687821 1.5263737 3.1244321 1.998952-.2506229.7088674-.5151693 1.3878593-.7964239 2.0396914zm-8.7049684-33.4091137c0 2.20050386-.8242709 4.25510596-2.4672432 6.15682627-1.9827056 2.26077117-4.3808882 3.56715143-6.9815184 3.36100953-.0331379-.263992-.0523523-.54183548-.0523523-.83380196 0-2.11247937.942899-4.37325055 2.6173384-6.22173789.8359666-.93592233 1.8991646-1.71412844 3.1884801-2.33491708 1.2865309-.6115272 2.5034443-.94971945 3.6479555-1.00762387.0334164.29416642.0473399.58836.0473399.88021784z" fill="#fff" fill-opacity=".4"/></svg>