<svg height="51" viewBox="0 0 157 51" width="157" xmlns="http://www.w3.org/2000/svg"><g fill="#fff" fill-opacity=".4" fill-rule="evenodd"><path d="m38.4104389 18.0218627h-18.2300665v5.3890942h12.9290065c-.6387169 7.5569774-6.9498512 10.7797464-12.9071123 10.7797464-7.621691 0-14.27252969-5.9741033-14.27252969-14.3474449 0-8.1569427 6.33994079-14.4388963 14.28926319-14.4388963 6.1330404 0 9.7469943 3.89486731 9.7469943 3.89486731l3.7877002-3.90748668s-4.8616117-5.39174273-13.728302-5.39174273c-11.29069323-.00015579-20.0253926 9.49303801-20.0253926 19.7469773 0 10.0476671 8.21643188 19.845128 20.3131452 19.845128 10.6391838 0 18.4271145-7.2606559 18.4271145-17.9974029 0-2.2650991-.3301179-3.5742419-.3301179-3.5742419z"/><g fill-rule="nonzero"><path d="m53.7046041 14.0921053c-7.5294045 0-12.9253833 5.8373889-12.9253833 12.6454124 0 6.9087086 5.2338428 12.8545876 13.0138497 12.8545876 7.0429967 0 12.8129901-5.3381786 12.8129901-12.7061357 0-8.4447403-6.7117986-12.7938643-12.9014565-12.7938643zm.0748706 5.0081815c3.7026814 0 7.2114292 2.9685686 7.2114292 7.751965 0 4.6819309-3.4937936 7.7351062-7.2284298 7.7351062-4.1034562 0-7.3406657-3.2590722-7.3406657-7.7722582 0-4.4164034 3.197069-7.714813 7.3576663-7.714813z"/><path d="m81.570405 14.0921053c-7.5294046 0-12.9253834 5.8373889-12.9253834 12.6454124 0 6.9087086 5.2338429 12.8545876 13.0138498 12.8545876 7.0429967 0 12.8129901-5.3381786 12.8129901-12.7061357 0-8.4447403-6.7117986-12.7938643-12.9014565-12.7938643zm.074869 5.0081815c3.7026814 0 7.2114292 2.9685686 7.2114292 7.751965 0 4.6819309-3.4937936 7.7351062-7.2284298 7.7351062-4.1034563 0-7.3406657-3.2590722-7.3406657-7.7722582 0-4.4164034 3.197069-7.714813 7.3576663-7.714813z"/><path d="m109.434314 14.0921053c-6.855325 0-12.2438378 5.9923124-12.2438378 12.7181388 0 7.6613023 6.2471458 12.7418258 12.1256368 12.7418258 3.634865 0 5.567609-1.4399907 6.994605-3.0928517v2.509874c0 4.3914224-2.671616 7.0211333-6.704178 7.0211333-3.895625 0-5.849604-2.8908899-6.528673-4.531362l-4.9015007 2.045019c1.7388142 3.6694402 5.2392397 7.4961175 11.4707707 7.4961175 6.815977 0 12.010872-4.2846756 12.010872-13.2707288v-22.8718616h-5.347135v2.1561291c-1.644191-1.7682565-3.892658-2.9211218-6.87656-2.9211218zm.496224 4.989516c3.360989 0 6.812229 2.8642421 6.812229 7.7555823 0 4.9717508-3.443901 7.7117927-6.886554 7.7117927-3.654695 0-7.055344-2.9616389-7.055344-7.6645748 0-4.8866651 3.53181-7.8028002 7.129513-7.8028002z"/><path d="m145.310675 14.0921053c-6.576575 0-12.098554 5.1380794-12.098554 12.7196705 0 8.0224211 6.154959 12.7803295 12.730264 12.7803295 5.487837 0 8.856001-2.9481193 10.866101-5.5895132l-4.483739-2.929563c-1.163502 1.7731442-3.108684 3.5060571-6.35489 3.5060571-3.646383 0-5.323001-1.9607348-6.361717-3.860031l17.39186-7.0863394-.902925-2.0767509c-1.680112-4.0668016-5.599315-7.46308-10.785749-7.46308zm.226577 4.8984064c2.369784 0 4.075304 1.2372246 4.799595 2.7206092l-11.61453 4.7669526c-.50073-3.6905289 3.059932-7.4875618 6.814935-7.4875618z"/></g><path d="m125.735931 38.9210526h5.437229v-37.57894734h-5.437229z"/></g></svg>