<svg height="39" viewBox="0 0 184 39" width="184" xmlns="http://www.w3.org/2000/svg"><g fill="#fff" fill-opacity=".4" fill-rule="evenodd"><path d="m65.2525453 22.2037221-1.0941665 3.1131513h-.0911805c-.1823611-.7019851-.5166897-1.7702233-1.0637729-3.0521091l-5.865948-14.80272956h-5.744374v23.59280396h3.7991892v-14.5585608c0-.9156327 0-1.9533499-.0303936-3.2352357-.0303935-.6409429-.0911805-1.1292804-.121574-1.4955335h.0911805c.1823611.9156327.3951157 1.5870968.5470833 2.014392l7.0512949 17.2138958h2.6746292l6.9905079-17.3665012c.1519676-.3967742.3039352-1.1903226.4559027-1.8617866h.0911806c-.0911806 1.7397022-.1519676 3.2962779-.1823611 4.2424317v14.955335h4.0423372v-23.56228284h-5.5316193zm15.3791175-8.1491315h3.9511567v16.9086848h-3.9511567zm2.0059719-7.14193551c-.6686573 0-1.2157406.24416873-1.6716433.67146402-.4559026.42729528-.6990507.97667493-.6990507 1.64813895 0 .64094293.2431481 1.19032254.6990507 1.61761784.4559027.4272953 1.002986.640943 1.6716433.640943.6686572 0 1.246134-.2441688 1.6716432-.640943.4559027-.4272953.6990508-.97667491.6990508-1.61761784 0-.64094292-.2431481-1.19032258-.6990508-1.64813895-.3951157-.42729529-.9725924-.67146402-1.6716432-.67146402zm15.9565942 6.98933001c-.7294443-.1526054-1.4892821-.2441687-2.2187264-.2441687-1.7932173 0-3.434467.3967742-4.8021751 1.1903226-1.367708.7935483-2.4618745 1.8923077-3.1609253 3.2657568-.7294443 1.4039702-1.0941665 3.0215881-1.0941665 4.8833747 0 1.6176178.3647222 3.0521092 1.063773 4.3645161.6990508 1.2818859 1.6716432 2.319603 2.9785642 3.0215881 1.2461341.7019851 2.7050227 1.0682382 4.3462724 1.0682382 1.8843978 0 3.495254-.3967742 4.7717818-1.1292804l.030393-.0305211v-3.662531l-.151967.1220844c-.5774771.4272952-1.2461344.7935484-1.9147917 1.007196-.6990508.2441687-1.3373145.3662531-1.8843978.3662531-1.5804626 0-2.8265967-.4578164-3.7080085-1.4650124-.9118054-.9766749-1.3677081-2.319603-1.3677081-3.998263 0-1.7397023.4559027-3.1131514 1.3981016-4.1203474.9421989-1.0071961 2.1883329-1.5260546 3.7080086-1.5260546 1.2765275 0 2.5834485.4272953 3.7687959 1.2818858l.151967.1220844v-3.8761787l-.030393-.0305211c-.51669-.2136476-1.0941668-.4578163-1.8843981-.6104218zm13.0388171-.1220844c-.972592 0-1.884398.305211-2.674629.9461539-.668658.5493796-1.12456 1.342928-1.519676 2.2890819h-.030393v-2.9605459h-3.951157v16.9086848h3.951157v-8.6374689c0-1.4650125.303935-2.6858561.972592-3.5709678.668657-.9156327 1.519676-1.3734491 2.553055-1.3734491.364722 0 .729444.0915633 1.185347.1526054.425509.1220844.729444.2441688.942199.3967742l.151968.1220844v-3.9677419l-.091181-.0305211c-.273542-.1831266-.820625-.2746899-1.489282-.2746899zm10.759303-.0915632c-2.765809 0-4.984536.8240694-6.534605 2.4416873-1.580462 1.6176179-2.3403 3.8456576-2.3403 6.653598 0 2.6248139.790231 4.7612904 2.309907 6.317866 1.519675 1.5260546 3.586434 2.319603 6.169883 2.319603 2.705022 0 4.862962-.8240695 6.413031-2.4722084 1.580463-1.648139 2.3403-3.8456576 2.3403-6.5620348 0-2.685856-.729444-4.8223325-2.218726-6.3789082-1.428495-1.5565756-3.525647-2.3196029-6.13949-2.3196029zm3.160926 13.0019851c-.729445.9461538-1.884398 1.4039702-3.312893 1.4039702s-2.583449-.4578164-3.404074-1.4650124c-.820624-.9461538-1.21574-2.319603-1.21574-4.0593052 0-1.8007444.425509-3.1741936 1.21574-4.1508685.820625-.9766749 1.945185-1.4650124 3.37368-1.4650124 1.398102 0 2.492268.4578164 3.2825 1.4039702.790231.9461539 1.21574 2.319603 1.21574 4.1203474-.060787 1.8312655-.395115 3.2657568-1.154953 4.2119107zm14.011409-5.6158809c-1.246134-.5188586-2.036365-.9156328-2.401087-1.2513648-.303935-.3052109-.455903-.7325062-.455903-1.2818858 0-.4578164.182361-.9156328.638264-1.2208437.455902-.3052109.972592-.4578164 1.73243-.4578164.668657 0 1.367708.1220844 2.036365.3052109.668658.1831266 1.276528.4578164 1.762824.8240695l.151968.1220844v-3.7235732l-.091181-.0305211c-.455903-.1831266-1.063773-.3662531-1.793217-.5188586-.729444-.1220843-1.398102-.1831265-1.945185-.1831265-1.884398 0-3.434467.4578164-4.650207 1.4650124-1.215741.9461538-1.793218 2.2280397-1.793218 3.7235732 0 .7935484.121574 1.4955335.395116 2.0754342.273542.5799008.668657 1.1292804 1.215741 1.5870968.547083.4272953 1.337314.9156328 2.431481 1.3734491.911805.3967742 1.610856.7019851 2.036365.9461539.425509.2441687.699051.5188585.911805.7325062.151968.2441687.243148.5493796.243148.9461538 0 1.1292804-.851018 1.6786601-2.583448 1.6786601-.668657 0-1.367708-.1220844-2.188333-.3967742s-1.580463-.671464-2.218727-1.1292804l-.151967-.1220844v3.8761787l.09118.0305211c.577477.2746898 1.276528.4578164 2.127546.671464.851019.1526055 1.610856.2746898 2.279514.2746898 2.036365 0 3.708008-.4578164 4.893355-1.4650124 1.215741-.9766749 1.854005-2.2280397 1.854005-3.8456576 0-1.1292804-.303935-2.1364764-.972593-2.8995037-.881412-.7325062-1.975578-1.4955335-3.556041-2.1059553zm14.953609-7.3861042c-2.76581 0-4.984537.8240694-6.534606 2.4416873s-2.3403 3.8456576-2.3403 6.653598c0 2.6248139.790231 4.7612904 2.309907 6.317866 1.519675 1.5260546 3.586434 2.319603 6.169883 2.319603 2.705023 0 4.862962-.8240695 6.413031-2.4722084 1.580463-1.648139 2.340301-3.8456576 2.340301-6.5620348 0-2.685856-.729445-4.8223325-2.218727-6.3789082-1.428495-1.5565756-3.525647-2.3196029-6.139489-2.3196029zm3.130531 13.0019851c-.729444.9461538-1.884397 1.4039702-3.312893 1.4039702-1.458888 0-2.583448-.4578164-3.404073-1.4650124-.820625-.9461538-1.21574-2.319603-1.21574-4.0593052 0-1.8007444.425509-3.1741936 1.21574-4.1508685.820625-.9766749 1.945185-1.4650124 3.37368-1.4650124 1.367708 0 2.492268.4578164 3.282499 1.4039702.790232.9461539 1.215741 2.319603 1.215741 4.1203474 0 1.8312655-.395116 3.2657568-1.154954 4.2119107zm26.351176-9.3699752v-3.2657568h-3.98155v-5.00545909l-.121574.0305211-3.768796 1.12928039-.09118.0305211v3.8151365h-5.957129v-2.1364765c0-.9766749.243148-1.7397022.668657-2.22803966.42551-.48833747 1.063773-.7325062 1.854005-.7325062.547083 0 1.12456.12208437 1.762823.39677419l.151968.09156328v-3.44888338l-.091181-.03052109c-.547083-.18312655-1.276527-.30521092-2.218726-.30521092-1.185347 0-2.218726.27468983-3.160925.73250621-.942199.51885856-1.64125 1.22084367-2.15794 2.16699751-.516689.91563276-.790231 1.95334986-.790231 3.14367246v2.3501241h-2.76581v3.2352357h2.76581v13.6734491h3.98155v-13.642928h5.957129v8.6985112c0 3.5709677 1.671643 5.3717121 5.014929 5.3717121.547083 0 1.12456-.0915633 1.671643-.1831265.577477-.1220844 1.002986-.2746899 1.246134-.3967742l.030394-.0305211v-3.2657568l-.151968.1220843c-.243148.1526055-.455902.2746899-.820624.3662531-.303936.0915633-.577477.1220844-.790232.1220844-.790231 0-1.337314-.1831266-1.73243-.6409429-.364722-.4272953-.547083-1.1292804-.547083-2.1669976v-7.996526z" fill-rule="nonzero"/><path d="m0 0h18.4v18.2419355h-18.4z"/><path d="m20.937931 0h18.4v18.2419355h-18.4z"/><path d="m0 20.7580645h18.4v18.2419355h-18.4z"/><path d="m20.937931 20.7580645h18.4v18.2419355h-18.4z"/></g></svg>