<svg height="65" viewBox="0 0 94 65" width="94" xmlns="http://www.w3.org/2000/svg"><g fill="none" fill-rule="evenodd"><path d="m39.1601434 57.8022059c3.0282301 3.1117985 7.2442113 5.0416676 11.9069367 5.0416676 6.1982413 0 11.6059862-3.4086 14.4857474-8.4687353 2.5025701 1.1027824 5.2726516 1.7161721 8.1871894 1.7161721 11.1793054 0 20.2425949-9.0161691 20.2425949-20.13765 0-11.1228-9.0632895-20.1389691-20.2425949-20.1389691-1.3643087 0-2.6978535.13455-3.9872589.3917779-2.536009-4.4612559-7.3686041-7.47543969-12.915455-7.47543969-2.3219998 0-4.5182691.52896618-6.4737782 1.46949709-2.5707855-5.96373091-8.5603678-10.14533385-15.5410803-10.14533385-7.2696249 0-13.4651912 4.53644559-15.8433684 10.89854995-1.0392821-.2176544-2.1160159-.3310985-3.2208384-.3310985-8.65533441 0-15.67216094 6.9913235-15.67216094 15.6170338 0 5.7803736 3.15262298 10.8273177 7.83674927 13.5275515-.96437895 2.1884162-1.5007395 4.6037206-1.5007395 7.1430221 0 9.9197647 8.16578837 17.9611059 18.23759627 17.9611059 5.9133416 0 11.1686049-2.7727853 14.5004606-7.0691515" fill="#fff" fill-opacity=".4" transform="matrix(1 0 0 -1 0 65)"/><g fill="#070834"><path d="m.11407767 1.45598371c-.05521359-.16743813.02007767-.20238174.03764563-.23150141.16564078-.13977444.33379126-.24023731.5031966-.35234806.89847573-.55327381 1.74675728-.714888 2.63393932-.714888 1.80699029 0 2.9288301 1.11528352 2.9288301 2.91051144v.0349436c0 1.65982143-1.26614806 2.26259869-2.45449515 2.69793782l-.15434708.05823935c-.89596602.33778822-1.66895631.62898496-1.66895631 1.3132973v.03639959c0 .58530546.45174757 1.01627663 1.15195631 1.01627663.77800971 0 1.70158252-.29993264 2.29638349-.68140037 0 0 .17442476-.13103854.23842233.06551926.03513592.10483083.33630097 1.04539631.36767233 1.14731517.03388107.11065476-.02635194.19218985-.0878398.23586936-.67887622.47901864-1.61750728.80661497-2.58876457.80661497l-.18069903-.00145598c-1.65389805 0-2.80836407-1.15896303-2.80836407-2.82024045v-.0349436c0-1.75154841 1.27367718-2.31938205 2.46704369-2.71540962l.19199271-.06843124c.86961408-.31012453 1.61876214-.57656955 1.61876214-1.2870896v-.0349436c0-.64936874-.48688349-1.13275533-1.27242233-1.13275533-.30492961 0-1.27744175.00727992-2.32775485.7774953-.12674029.08590304-.2007767.14851034-.29865534.21694157-.05144903.03785558-.18069903.10337485-.23716748-.09463894z" transform="matrix(1 0 0 -1 13.68932 35.208333)"/><path d="m.11407767 1.45598371c-.05521359-.16743813.02007767-.20238174.03764563-.23150141.16564078-.13977444.33379126-.24023731.5031966-.35234806.89847573-.55327381 1.74675728-.714888 2.63393932-.714888 1.80699029 0 2.9288301 1.11528352 2.9288301 2.91051144v.0349436c0 1.65982143-1.26614806 2.26259869-2.45449515 2.69793782l-.15434708.05823935c-.89596602.33778822-1.66895631.62898496-1.66895631 1.3132973v.03639959c0 .58530546.45174757 1.01627663 1.15195631 1.01627663.77800971 0 1.70158252-.29993264 2.29638349-.68140037 0 0 .17442476-.13103854.23842233.06551926.03513592.10483083.33630097 1.04539631.36767233 1.14731517.03388107.11065476-.02635194.19218985-.0878398.23586936-.67887622.47901864-1.61750728.80661497-2.58876457.80661497l-.18069903-.00145598c-1.65389805 0-2.80836407-1.15896303-2.80836407-2.82024045v-.0349436c0-1.75154841 1.27367718-2.31938205 2.46704369-2.71540962l.19199271-.06843124c.86961408-.31012453 1.620017-.57656955 1.620017-1.2870896v-.0349436c0-.64936874-.48813835-1.13275533-1.27367719-1.13275533-.30492961 0-1.27744175.00727992-2.32775485.7774953-.12674029.08590304-.20203156.14559837-.29740049.21694157-.03262621.02475173-.18571845.09318296-.23842233-.09463894z" transform="matrix(1 0 0 -1 41.980583 35.208333)"/><path d="m6.2464714 4.96527778c0-1.00181013-.17497022-1.7908973-.51952696-2.34857639-.34051897-.55192983-.85600816-.82070815-1.57473199-.82070815-.72006976 0-1.2328671.26734101-1.56800237.82070815-.33917304.55624178-.51145141 1.34676626-.51145141 2.34857639 0 1.0003728.17227837 1.78802266.51145141 2.33995248.33513527.54618056.84793261.81208425 1.56800237.81208425.71872383 0 1.23421302-.26590369 1.57607791-.81208425.34321082-.55192982.51818104-1.33957968.51818104-2.33995248m1.61780159 1.85701389c-.15881913.57348958-.40646929 1.07942525-.73622086 1.50055921-.32975157.42257127-.74698825.76177814-1.24228857 1.00899671-.49395439.24578125-1.07808574.37082785-1.73355111.37082785-.65681129 0-1.24094264-.1250466-1.73489704-.37082785-.49530032-.24721857-.912537-.58642544-1.24363449-1.00899671-.32840565-.42257127-.57605581-.92850695-.73622086-1.50055921-.1574732-.57061495-.23688276-1.19441064-.23688276-1.85701389 0-.66260326.07940956-1.28783626.23688276-1.85701389.16016505-.57205227.40646929-1.07798794.73756678-1.50055921.32975157-.42257127.74833418-.76034083 1.24228857-1.00037281.49530032-.24003198 1.07808575-.36220395 1.73489704-.36220395.65546537 0 1.2382508.12217197 1.73355111.36220395.4939544.24003198.912537.57780154 1.24228857 1.00037281.32975157.42113395.57740173.92706963.73622086 1.50055921.15881912.57061495.23822868 1.19584795.23822868 1.85701389 0 .66116593-.07940956 1.28639894-.23822868 1.85701389" fill-rule="nonzero" transform="matrix(1 0 0 -1 54.757282 35.208333)"/><path d="m5.81796117 1.70795796c-.05019418.15701013-.19199272.09796359-.19199272.09796359-.21959952-.08991179-.45300243-.17311374-.7014636-.21471472-.25222572-.04160097-.52954854-.06307245-.82694902-.06307245-.73032525 0-1.31006797.23216029-1.72542476.69111299-.41661165.45895271-.65001457 1.20106044-.64750486 2.20485173.00250971.9138795.20830583 1.60096659.57848787 2.12433371.36767233.52068318.92733738.78773461 1.67397573.78773461.62240776 0 1.09674271-.07649212 1.59366504-.24423799 0 0 .11921117-.05502065.17567962.11138326.1317597.39185435.22963835.67232545.37018203 1.10309684.04015534.122119-.0577233.17445571-.09285922.18921735-.19575728.08185998-.65754369.21471471-1.0063932.27107732-.32626214.05367868-.70773787.08185999-1.13187864.08185999-.63370146 0-1.19838593-.11540916-1.68150486-.34622748-.48186408-.22947635-.8909466-.54618055-1.21469903-.94071884-.32375242-.39453829-.56970388-.86691066-.7340898-1.40101352-.16313107-.53276088-.24595146-1.11785848-.24595146-1.73650525 0-1.33794107.33755583-2.41956644 1.0038835-3.21132695.66758252-.79444445 1.67021116-1.1983765 2.97776941-1.1983765.7729903 0 1.56605826.16774587 2.13576214.40795795 0 0 .10917233.05636262.06148786.19190128z" transform="matrix(1 0 0 -1 70.271845 35.208333)"/><path d="m2.09006588 5.43758044c.08151257.5260859.23452739.96381113.47048483 1.3050193.35608122.51792954.89949835.80204312 1.66314242.80204312.76364408 0 1.26844999-.28547298 1.63025139-.80204312.24024757-.34120817.34464086-.79796493.38611217-1.3050193zm5.78739242 1.15684524c-.14586459.52336711-.507666 1.05217181-.74505348 1.29414414-.37467181.38334942-.74076335.65115026-1.1039948.80068372-.47477496.1930341-1.0439329.32081725-1.66743256.32081725-.7264629 0-1.38571368-.11554859-1.92055054-.35480213-.5362669-.23925354-.9867311-.56550836-1.33995223-.9719675-.35322114-.40509974-.61920952-.88768501-.78795484-1.43552124-.17017536-.54511744-.25597807-1.1391731-.25597807-1.76585424 0-.63755631.0886628-1.23161197.26455834-1.76585425.17732559-.53832046.46047452-1.01274936.8437266-1.40561454.38182203-.39558398.87375754-.70552607 1.46293611-.92166989.58488844-.21478443 1.29562084-.32625482 2.11217658-.32489543 1.68030296.00543758 2.56550086.3615991 2.93016236.55327381.06435203.03398488.12584397.09379826.04862153.26508205l-.38039199 1.01274935c-.0572018.15089286-.2187969.09515766-.2187969.09515766-.41614311-.14681467-1.00818177-.41053732-2.38817527-.40781853-.90235845.00135939-1.57161954.25420688-1.99062275.64979086-.43044357.40509974-.64066019 1.0005148-.67784137 1.84062098l5.81885342-.00543758s.15301482.00271879.16874532.14409588c.00572018.05981338.20020631 1.13645431-.17303546 2.38301963z" transform="matrix(1 0 0 -1 76.660194 35.208333)"/><path d="m2.09006588 5.43758044c.08294262.5260859.23452739.96381113.47048483 1.3050193.35608122.51792954.89949835.80204312 1.66314242.80204312.76364408 0 1.26844999-.28547298 1.63168144-.80204312.23881752-.34120817.34321081-.79796493.38468212-1.3050193zm5.78596238 1.15684524c-.1458646.52336711-.50623596 1.05217181-.74362344 1.29414414-.37467181.38334942-.74076335.65115026-1.1039948.80068372-.47477496.1930341-1.0439329.32081725-1.66743256.32081725-.72503285 0-1.38571368-.11554859-1.92055054-.35480213-.5362669-.23925354-.9867311-.56550836-1.33995223-.9719675-.35322114-.40509974-.61920952-.88768501-.78795484-1.43552124-.16874532-.54511744-.25597807-1.1391731-.25597807-1.76585424 0-.63755631.0886628-1.23161197.26455834-1.76585425.17732559-.53832046.46047452-1.01274936.8437266-1.40561454.38182203-.39558398.87375754-.70552607 1.46293611-.92166989.58488844-.21478443 1.29562084-.32625482 2.11217658-.32489543 1.68030296.00543758 2.56550086.3615991 2.93016236.55327381.06435203.03398488.12584397.09379826.04862153.26508205l-.37896194 1.01274935c-.05863185.15089286-.22022695.09515766-.22022695.09515766-.41614311-.14681467-1.00675173-.41053732-2.38960532-.40781853-.9009284.00135939-1.57018949.25420688-1.9891927.64979086-.43044357.40509974-.64066019 1.0005148-.67784137 1.84062098l5.81885342-.00543758s.15301482.00271879.16874532.14409588c.00572018.05981338.20020631 1.13645431-.1744655 2.38301963z" transform="matrix(1 0 0 -1 32.854369 35.208333)"/><path d="m2.43365696 2.09064327c-.2128233.1825393-.24227055.22853345-.31455016.34639346-.10708091.17966466-.16195987.43550713-.16195987.76034083 0 .51455957.15794433.88395011.48587961 1.13260599-.00401554-.00143731.46847896.43838176 1.57944336.42257127.78035211-.01149853 1.47771651-.13510782 1.47771651-.13510782v-2.65903691h.00133851s-.69201036-.15954222-1.47102395-.20984832c-1.10828738-.07186586-1.60085955.34351882-1.59684401.3420815m2.16704984 4.10929003c-.22085437.0172478-.5072958.02730902-.8499547.02730902-.46714045 0-.91821877-.06324195-1.34118835-.18541392-.4256466-.12217197-.80846084-.31333516-1.13773462-.566303-.3306123-.25440515-.59697606-.57923885-.78972169-.96443987-.19274563-.38520103-.29045695-.83939328-.29045695-1.34820359 0-.51743421.0829877-.96731451.2489631-1.33526772.16597541-.36939054.40556893-.67697643.71074952-.91413377.30250356-.23715735.67594822-.41107274 1.10962589-.5159969.42698511-.10492416.91152621-.15810489 1.4415767-.15810489.55815922 0 1.11497993.04886878 1.6544.14804367.53406602.09773758 1.18993657.24003198 1.37197411.28458882.18069902.04599415.38147572.10492416.38147572.10492416.13518965.03593293.12448156.19116319.12448156.19116319l-.00267703 5.34825749c0 1.17285088-.29179546 2.04242782-.86601682 2.58142179-.57154434.53755665-1.41346796.80920961-2.50167767.80920961-.40824596 0-1.06545502-.06036732-1.45897735-.14516904 0 0-1.18993657-.24721857-1.67983171-.6582913 0 0-.10708091-.07186587-.04818641-.2328454l.38549126-1.11248355c.04818641-.14373173.17802201-.09486294.17802201-.09486294s.04149385.01724781.08968025.04743147c1.04805437.61229715 2.37318059.59361202 2.37318059.59361202.58894498 0 1.04136181-.12648391 1.34654239-.37801443.29714952-.24434393.4484013-.61373447.4484013-1.39276042v-.24721857c-.46847897.07186587-.8981411.11354807-.8981411.11354807" fill-rule="nonzero" transform="matrix(1 0 0 -1 20.990291 35.208333)"/><path d="m5.32639011 8.65162037c.04320848.12689043-.04738993.18757716-.08502312.2013696-.0961737.03723958-.57843601.13792438-.95058641.16137153-.71224289.04275656-1.10808826-.07585841-1.46211897-.23309221-.35124308-.1572338-.74151315-.41101466-.95894934-.69927662v.68272569c0 .09516783-.06829727.17102624-.16307714.17102624h-1.45375605c-.09477987 0-.16307714-.07585841-.16307714-.17102624v-8.37063078c0-.09378858.07805402-.17102624.17283389-.17102624h1.48999541c.09477988 0 .17144008.07723766.17144008.17102624v4.18186728c0 .56135224.06272197 1.12132523.18816593 1.47303241.12265631.34756944.28991491.6261767.49620053.82616705.20767943.19861111.4432353.33791474.70109232.41653164.2634323.07999614.55474104.10620177.76102665.10620177.29688403 0 .62303831-.07585841.62303831-.07585841.10871809-.01241319.17004625.05379051.20628561.15171682.09756752.25653935.37354422 1.02477817.42650944 1.17787423" transform="matrix(1 0 0 -1 64.796117 35.208333)"/><path d="m9.89940669 15.8823529c-.18125674.0529412-.34578209.0886765-.56050162.1270589-.21750809.0370588-.47684466.0555882-.7710383.0555882-1.02619201 0-1.83487594-.2752941-2.40234897-.8179412-.56468447-.54-.94811219-1.3619117-1.14052319-2.4432353l-.06971414-.3639706h-1.28831715s-.15615965.0052942-.18962244-.1561764l-.21053667-1.1210294c-.01533711-.1058824.03346278-.1733824.1840453-.1733824h1.25346009l-1.27158576-6.73941176c-.09899407-.54264706-.21332524-.98867647-.34020496-1.3275-.12409116-.33352941-.24539375-.58367647-.39597627-.76632353-.14500539-.17470588-.28164509-.30441176-.51867314-.37985294-.19519957-.06220588-.42107335-.09132353-.66786138-.09132353-.1366397 0-.31929072.02117647-.45453614.04764706-.13385113.02514706-.20495954.05294118-.30674218.09397059 0 0-.14639967.05294117-.20495954-.08602941-.04601133-.11514706-.38063916-.98735294-.42107336-1.09455883-.03903991-.10720588.01673139-.19058823.08783981-.21573529.16731391-.05558824.29140507-.09264706.51867314-.14426471.31510787-.07014706.58141585-.07411764.83099245-.07411764.5214617 0 .99830636.07014705 1.39288834.20514706.39597627.13632352.74175837.37323529 1.04850054.69352941.33044499.3467647.5381931.70941176.73618123 1.20573529.19659386.48970588.36530205 1.09852941.49915319 1.80794118l1.27855717 6.86514705h1.86833873s.15755393-.0052941.18962244.1575l.21193096 1.1197059c.01394282.1072059-.03346279.1733823-.18543959.1733823h-1.81396171c.00975998.0383824.09202265.6445589.29977077 1.215.08923409.2422059.256548.4394118.39737055.5744118.13942826.1323529.29977076.2263235.47545037.2805882.17986246.0555883.38482201.0820589.60930151.0820589.17010249 0 .33881068-.0185294.4656904-.0436765.17567962-.0357353.24399946-.0542647.29001079-.0675.18543959-.0529412.21053668-.0013235.24678803.0833823l.43362191 1.1302942c.044617.1217647-.0655313.1733823-.10457121.1879411" transform="matrix(1 0 0 -1 46.543689 38.819444)"/><path d="m2.73786408.35208333c0-.08778611-.0922318-.15878958-.22022694-.15878958h-2.0309818c-.12799515 0-.21834466.07100347-.21834466.15878958v11.21080277c0 .0877861.09034951.1587896.21834466.1587896h2.0309818c.12799514 0 .22022694-.0710035.22022694-.1587896z" transform="matrix(1 0 0 -1 29.203883 35.208333)"/></g></g></svg>