<?xml version="1.0" encoding="UTF-8"?>
<svg width="94px" height="65px" viewBox="0 0 94 65" version="1.1" xmlns="http://www.w3.org/2000/svg" xmlns:xlink="http://www.w3.org/1999/xlink">
    <!-- Generator: Sketch 52.6 (67491) - http://www.bohemiancoding.com/sketch -->
    <title>Salesforce</title>
    <desc>Created with Sketch.</desc>
    <g id="Page-1" stroke="none" stroke-width="1" fill="none" fill-rule="evenodd">
        <g id="Desktop" transform="translate(-325.000000, -3357.000000)">
            <g id="Group-26" transform="translate(-29.000000, 3294.000000)">
                <g id="Group-25" transform="translate(109.000000, 63.000000)">
                    <g id="Salesforce" transform="translate(245.000000, 0.000000)">
                        <g id="g3003" transform="translate(47.000000, 32.500000) scale(-1, 1) rotate(-180.000000) translate(-47.000000, -32.500000) " fill="#FFFFFF" fill-opacity="0.4">
                            <path d="M39.1601434,57.8022059 C42.1883735,60.9140044 46.4043547,62.8438735 51.0670801,62.8438735 C57.2653214,62.8438735 62.6730663,59.4352735 65.5528275,54.3751382 C68.0553976,55.4779206 70.8254791,56.0913103 73.7400169,56.0913103 C84.9193223,56.0913103 93.9826118,47.0751412 93.9826118,35.9536603 C93.9826118,24.8308603 84.9193223,15.8146912 73.7400169,15.8146912 C72.3757082,15.8146912 71.0421634,15.9492412 69.752758,16.2064691 C67.216749,11.7452132 62.3841539,8.73102941 56.837303,8.73102941 C54.5153032,8.73102941 52.3190339,9.25999559 50.3635248,10.2005265 C47.7927393,4.23679559 41.803157,0.0551926471 34.8224445,0.0551926471 C27.5528196,0.0551926471 21.3572533,4.59163824 18.9790761,10.9537426 C17.939794,10.7360882 16.8630602,10.6226441 15.7582377,10.6226441 C7.10290329,10.6226441 0.0860767588,17.6139676 0.0860767588,26.2396779 C0.0860767588,32.0200515 3.23869974,37.0669956 7.92282603,39.7672294 C6.95844708,41.9556456 6.42208653,44.37095 6.42208653,46.9102515 C6.42208653,56.8300162 14.5878749,64.8713574 24.6596828,64.8713574 C30.5730244,64.8713574 35.8282877,62.0985721 39.1601434,57.8022059" id="path3005"></path>
                        </g>
                        <g id="g3007" transform="translate(17.189320, 30.208333) scale(-1, 1) rotate(-180.000000) translate(-17.189320, -30.208333) translate(13.689320, 25.208333)" fill="#070834">
                            <path d="M0.11407767,1.45598371 C0.0588640777,1.28854558 0.13415534,1.25360197 0.151723301,1.2244823 C0.317364078,1.08470786 0.485514563,0.984244987 0.654919903,0.872134242 C1.55339563,0.318860432 2.40167718,0.157246241 3.28885922,0.157246241 C5.09584951,0.157246241 6.21768932,1.27252976 6.21768932,3.06775768 L6.21768932,3.10270128 C6.21768932,4.76252271 4.95154126,5.36529997 3.76319417,5.8006391 L3.60884709,5.85887845 C2.71288107,6.19666667 1.93989078,6.48786341 1.93989078,7.17217575 L1.93989078,7.20857534 C1.93989078,7.7938808 2.39163835,8.22485197 3.09184709,8.22485197 C3.8698568,8.22485197 4.79342961,7.92491933 5.38823058,7.5434516 C5.38823058,7.5434516 5.56265534,7.41241306 5.62665291,7.60897086 C5.66178883,7.71380169 5.96295388,8.65436717 5.99432524,8.75628603 C6.02820631,8.86694079 5.9679733,8.94847588 5.90648544,8.99215539 C5.22760922,9.47117403 4.28897816,9.79877036 3.31772087,9.79877036 L3.13702184,9.79731438 C1.48312379,9.79731438 0.328657767,8.63835135 0.328657767,6.97707393 L0.328657767,6.94213033 C0.328657767,5.19058192 1.60233495,4.62274828 2.79570146,4.22672071 L2.98769417,4.15828947 C3.85730825,3.84816494 4.60645631,3.58171992 4.60645631,2.87119987 L4.60645631,2.83625627 C4.60645631,2.18688753 4.11957282,1.70350094 3.33403398,1.70350094 C3.02910437,1.70350094 2.05659223,1.71078086 1.00627913,2.48099624 C0.879538835,2.56689928 0.805502427,2.62950658 0.707623786,2.69793781 C0.656174757,2.73579339 0.526924757,2.80131266 0.470456311,2.60329887 L0.11407767,1.45598371 Z" id="path3009"></path>
                        </g>
                        <g id="g3011" transform="translate(45.480583, 30.208333) scale(-1, 1) rotate(-180.000000) translate(-45.480583, -30.208333) translate(41.980583, 25.208333)" fill="#070834">
                            <path d="M0.11407767,1.45598371 C0.0588640777,1.28854558 0.13415534,1.25360197 0.151723301,1.2244823 C0.317364078,1.08470786 0.485514563,0.984244987 0.654919903,0.872134242 C1.55339563,0.318860432 2.40167718,0.157246241 3.28885922,0.157246241 C5.09584951,0.157246241 6.21768932,1.27252976 6.21768932,3.06775768 L6.21768932,3.10270128 C6.21768932,4.76252271 4.95154126,5.36529997 3.76319417,5.8006391 L3.60884709,5.85887845 C2.71288107,6.19666667 1.93989078,6.48786341 1.93989078,7.17217575 L1.93989078,7.20857534 C1.93989078,7.7938808 2.39163835,8.22485197 3.09184709,8.22485197 C3.8698568,8.22485197 4.79342961,7.92491933 5.38823058,7.5434516 C5.38823058,7.5434516 5.56265534,7.41241306 5.62665291,7.60897086 C5.66178883,7.71380169 5.96295388,8.65436717 5.99432524,8.75628603 C6.02820631,8.86694079 5.9679733,8.94847588 5.90648544,8.99215539 C5.22760922,9.47117403 4.28897816,9.79877036 3.31772087,9.79877036 L3.13702184,9.79731438 C1.48312379,9.79731438 0.328657767,8.63835135 0.328657767,6.97707393 L0.328657767,6.94213033 C0.328657767,5.19058192 1.60233495,4.62274828 2.79570146,4.22672071 L2.98769417,4.15828947 C3.85730825,3.84816494 4.60771117,3.58171992 4.60771117,2.87119987 L4.60771117,2.83625627 C4.60771117,2.18688753 4.11957282,1.70350094 3.33403398,1.70350094 C3.02910437,1.70350094 2.05659223,1.71078086 1.00627913,2.48099624 C0.879538835,2.56689928 0.804247573,2.62659461 0.708878641,2.69793781 C0.676252427,2.72268954 0.523160194,2.79112077 0.470456311,2.60329887 L0.11407767,1.45598371 Z" id="path3013"></path>
                        </g>
                        <g id="g3015" transform="translate(59.257282, 30.208333) scale(-1, 1) rotate(-180.000000) translate(-59.257282, -30.208333) translate(54.757282, 25.208333)" fill="#070834" fill-rule="nonzero">
                            <path d="M6.2464714,4.96527778 C6.2464714,3.96346765 6.07150118,3.17438048 5.72694444,2.61670139 C5.38642547,2.06477156 4.87093628,1.79599324 4.15221245,1.79599324 C3.43214269,1.79599324 2.91934535,2.06333425 2.58421008,2.61670139 C2.24503704,3.17294317 2.07275867,3.96346765 2.07275867,4.96527778 C2.07275867,5.96565058 2.24503704,6.75330044 2.58421008,7.30523026 C2.91934535,7.85141082 3.43214269,8.11731451 4.15221245,8.11731451 C4.87093628,8.11731451 5.38642547,7.85141082 5.72829036,7.30523026 C6.07150118,6.75330044 6.2464714,5.96565058 6.2464714,4.96527778 M7.86427299,6.82229167 C7.70545386,7.39578125 7.4578037,7.90171692 7.12805213,8.32285088 C6.79830056,8.74542215 6.38106388,9.08462902 5.88576356,9.33184759 C5.39180917,9.57762884 4.80767782,9.70267544 4.15221245,9.70267544 C3.49540116,9.70267544 2.91126981,9.57762884 2.41731541,9.33184759 C1.92201509,9.08462902 1.50477841,8.74542215 1.17368092,8.32285088 C0.845275271,7.90027961 0.597625112,7.39434393 0.437460064,6.82229167 C0.279986865,6.25167672 0.200577303,5.62788103 0.200577303,4.96527778 C0.200577303,4.30267452 0.279986865,3.67744152 0.437460064,3.10826389 C0.597625112,2.53621162 0.843929346,2.03027595 1.17502684,1.60770468 C1.50477841,1.18513341 1.92336102,0.847363852 2.41731541,0.607331871 C2.91261573,0.36729989 3.49540116,0.245127924 4.15221245,0.245127924 C4.80767782,0.245127924 5.39046325,0.36729989 5.88576356,0.607331871 C6.37971796,0.847363852 6.79830056,1.18513341 7.12805213,1.60770468 C7.4578037,2.02883863 7.70545386,2.53477431 7.86427299,3.10826389 C8.02309211,3.67887884 8.10250167,4.30411184 8.10250167,4.96527778 C8.10250167,5.62644371 8.02309211,6.25167672 7.86427299,6.82229167" id="path3017"></path>
                        </g>
                        <g id="g3019" transform="translate(73.771845, 30.708333) scale(-1, 1) rotate(-180.000000) translate(-73.771845, -30.708333) translate(70.271845, 26.208333)" fill="#070834">
                            <path d="M5.81796117,1.70795796 C5.76776699,1.86496809 5.62596845,1.80592155 5.62596845,1.80592155 C5.40636893,1.71600976 5.17296602,1.63280781 4.92450485,1.59120683 C4.67227913,1.54960586 4.39495631,1.52813438 4.09755583,1.52813438 C3.36723058,1.52813438 2.78748786,1.76029467 2.37213107,2.21924737 C1.95551942,2.67820008 1.7221165,3.42030781 1.72462621,4.4240991 C1.72713592,5.3379786 1.93293204,6.02506569 2.30311408,6.54843281 C2.67078641,7.06911599 3.23045146,7.33616742 3.97708981,7.33616742 C4.59949757,7.33616742 5.07383252,7.2596753 5.57075485,7.09192943 C5.57075485,7.09192943 5.68996602,7.03690878 5.74643447,7.20331269 C5.87819417,7.59516704 5.97607282,7.87563814 6.1166165,8.30640953 C6.15677184,8.42852853 6.0588932,8.48086524 6.02375728,8.49562688 C5.828,8.57748686 5.36621359,8.71034159 5.01736408,8.7667042 C4.69110194,8.82038288 4.30962621,8.84856419 3.88548544,8.84856419 C3.25178398,8.84856419 2.68709951,8.73315503 2.20398058,8.50233671 C1.7221165,8.27286036 1.31303398,7.95615616 0.989281553,7.56161787 C0.665529126,7.16707958 0.41957767,6.69470721 0.255191748,6.16060435 C0.0920606796,5.62784347 0.00924029126,5.04274587 0.00924029126,4.4240991 C0.00924029126,3.08615803 0.346796117,2.00453266 1.01312379,1.21277215 C1.68070631,0.418327703 2.68333495,0.0143956456 3.9908932,0.0143956456 C4.7638835,0.0143956456 5.55695146,0.182141517 6.12665534,0.422353604 C6.12665534,0.422353604 6.23582767,0.478716216 6.1881432,0.61425488 L5.81796117,1.70795796 Z" id="path3021"></path>
                        </g>
                        <g id="g3023" transform="translate(81.160194, 30.208333) scale(-1, 1) rotate(-180.000000) translate(-81.160194, -30.208333) translate(76.660194, 25.208333)" fill="#070834">
                            <path d="M2.09006588,5.43758044 C2.17157845,5.96366634 2.32459327,6.40139157 2.56055071,6.74259974 C2.91663193,7.26052928 3.46004906,7.54464286 4.22369313,7.54464286 C4.98733721,7.54464286 5.49214312,7.25916988 5.85394452,6.74259974 C6.09419209,6.40139157 6.19858538,5.94463481 6.24005669,5.43758044 L2.09006588,5.43758044 Z M7.8774583,6.59442568 C7.73159371,7.11779279 7.3697923,7.64659749 7.13240482,7.88856982 C6.75773301,8.27191924 6.39164147,8.53972008 6.02841002,8.68925354 C5.55363506,8.88228764 4.98447712,9.01007079 4.36097746,9.01007079 C3.63451456,9.01007079 2.97526378,8.8945222 2.44042692,8.65526866 C1.90416002,8.41601512 1.45369582,8.0897603 1.10047469,7.68330116 C0.747253554,7.27820142 0.48126517,6.79561615 0.312519851,6.24777992 C0.142344487,5.70266248 0.0565417822,5.10860682 0.0565417822,4.48192568 C0.0565417822,3.84436937 0.145204577,3.25031371 0.321100121,2.71607143 C0.498425711,2.17775097 0.781574636,1.70332207 1.16482672,1.31045689 C1.54664875,0.914872909 2.03858426,0.604930824 2.62776283,0.388787001 C3.21265127,0.174002574 3.92338367,0.062532175 4.73993941,0.0638915701 C6.42024237,0.0693291506 7.30544027,0.425490669 7.67010177,0.61716538 C7.7344538,0.651150257 7.79594574,0.710963642 7.7187233,0.882247426 L7.33833131,1.89499678 C7.28112951,2.04588964 7.11953441,1.99015444 7.11953441,1.99015444 C6.7033913,1.84333977 6.11135264,1.57961712 4.73135914,1.58233591 C3.82900069,1.5836953 3.1597396,1.83654279 2.74073639,2.23212677 C2.31029282,2.63722651 2.1000762,3.23264157 2.06289502,4.07274775 L7.88174844,4.06731017 C7.88174844,4.06731017 8.03476326,4.07002896 8.05049376,4.21140605 C8.05621394,4.27121943 8.25070007,5.34786036 7.8774583,6.59442568 Z" id="path3025"></path>
                        </g>
                        <g id="g3027" transform="translate(37.354369, 30.208333) scale(-1, 1) rotate(-180.000000) translate(-37.354369, -30.208333) translate(32.854369, 25.208333)" fill="#070834">
                            <path d="M2.09006588,5.43758044 C2.1730085,5.96366634 2.32459327,6.40139157 2.56055071,6.74259974 C2.91663193,7.26052928 3.46004906,7.54464286 4.22369313,7.54464286 C4.98733721,7.54464286 5.49214312,7.25916988 5.85537457,6.74259974 C6.09419209,6.40139157 6.19858538,5.94463481 6.24005669,5.43758044 L2.09006588,5.43758044 Z M7.87602826,6.59442568 C7.73016366,7.11779279 7.3697923,7.64659749 7.13240482,7.88856982 C6.75773301,8.27191924 6.39164147,8.53972008 6.02841002,8.68925354 C5.55363506,8.88228764 4.98447712,9.01007079 4.36097746,9.01007079 C3.63594461,9.01007079 2.97526378,8.8945222 2.44042692,8.65526866 C1.90416002,8.41601512 1.45369582,8.0897603 1.10047469,7.68330116 C0.747253554,7.27820142 0.48126517,6.79561615 0.312519851,6.24777992 C0.143774532,5.70266248 0.0565417822,5.10860682 0.0565417822,4.48192568 C0.0565417822,3.84436937 0.145204577,3.25031371 0.321100121,2.71607143 C0.498425711,2.17775097 0.781574636,1.70332207 1.16482672,1.31045689 C1.54664875,0.914872909 2.03858426,0.604930824 2.62776283,0.388787001 C3.21265127,0.174002574 3.92338367,0.062532175 4.73993941,0.0638915701 C6.42024237,0.0693291506 7.30544027,0.425490669 7.67010177,0.61716538 C7.7344538,0.651150257 7.79594574,0.710963642 7.7187233,0.882247426 L7.33976136,1.89499678 C7.28112951,2.04588964 7.11953441,1.99015444 7.11953441,1.99015444 C6.7033913,1.84333977 6.11278268,1.57961712 4.72992909,1.58233591 C3.82900069,1.5836953 3.1597396,1.83654279 2.74073639,2.23212677 C2.31029282,2.63722651 2.1000762,3.23264157 2.06289502,4.07274775 L7.88174844,4.06731017 C7.88174844,4.06731017 8.03476326,4.07002896 8.05049376,4.21140605 C8.05621394,4.27121943 8.25070007,5.34786036 7.87602826,6.59442568 Z" id="path3029"></path>
                        </g>
                        <g id="g3031" transform="translate(24.990291, 30.208333) scale(-1, 1) rotate(-180.000000) translate(-24.990291, -30.208333) translate(20.990291, 25.208333)" fill="#070834" fill-rule="nonzero">
                            <path d="M2.43365696,2.09064327 C2.22083366,2.27318257 2.19138641,2.31917672 2.1191068,2.43703673 C2.01202589,2.61670139 1.95714693,2.87254386 1.95714693,3.19737756 C1.95714693,3.71193713 2.11509126,4.08132767 2.44302654,4.32998355 C2.439011,4.32854624 2.9115055,4.76836531 4.0224699,4.75255482 C4.80282201,4.74105629 5.50018641,4.617447 5.50018641,4.617447 L5.50018641,1.95841009 L5.50152492,1.95841009 C5.50152492,1.95841009 4.80951456,1.79886787 4.03050097,1.74856177 C2.92221359,1.67669591 2.42964142,2.09208059 2.43365696,2.09064327 M4.6007068,6.1999333 C4.37985243,6.2171811 4.093411,6.22724232 3.7507521,6.22724232 C3.28361165,6.22724232 2.83253333,6.16400037 2.40956375,6.0418284 C1.98391715,5.91965643 1.60110291,5.72849324 1.27182913,5.4755254 C0.941216828,5.22112025 0.674853074,4.89628655 0.482107443,4.51108553 C0.289361812,4.1258845 0.191650485,3.67169225 0.191650485,3.16288194 C0.191650485,2.64544773 0.274638188,2.19556743 0.440613592,1.82761422 C0.606588997,1.45822368 0.846182524,1.15063779 1.15136311,0.913480446 C1.45386667,0.676323099 1.82731133,0.502407712 2.260989,0.397483553 C2.68797411,0.292559393 3.17251521,0.239378655 3.7025657,0.239378655 C4.26072492,0.239378655 4.81754563,0.288247442 5.3569657,0.387422332 C5.89103172,0.485159905 6.54690227,0.627454313 6.72893981,0.672011148 C6.90963883,0.7180053 7.11041553,0.776935307 7.11041553,0.776935307 C7.24560518,0.812868238 7.23489709,0.968098501 7.23489709,0.968098501 L7.23222006,6.31635599 C7.23222006,7.48920687 6.9404246,8.35878381 6.36620324,8.89777778 C5.7946589,9.43533443 4.95273528,9.70698739 3.86452557,9.70698739 C3.45627961,9.70698739 2.79907055,9.64662007 2.40554822,9.56181835 C2.40554822,9.56181835 1.21561165,9.31459978 0.725716505,8.90352705 C0.725716505,8.90352705 0.618635599,8.83166118 0.677530097,8.67068165 L1.06302136,7.5581981 C1.11120777,7.41446637 1.24104337,7.46333516 1.24104337,7.46333516 C1.24104337,7.46333516 1.28253722,7.48058297 1.33072362,7.51076663 C2.37877799,8.12306378 3.70390421,8.10437865 3.70390421,8.10437865 C4.29284919,8.10437865 4.74526602,7.97789474 5.0504466,7.72636422 C5.34759612,7.48202029 5.4988479,7.11262975 5.4988479,6.3336038 L5.4988479,6.08638523 C5.03036893,6.1582511 4.6007068,6.1999333 4.6007068,6.1999333" id="path3033"></path>
                        </g>
                        <g id="g3035" transform="translate(67.796117, 30.208333) scale(-1, 1) rotate(-180.000000) translate(-67.796117, -30.208333) translate(64.796117, 25.208333)" fill="#070834">
                            <path d="M5.32639011,8.65162037 C5.36959859,8.7785108 5.27900018,8.83919753 5.24136699,8.85298997 C5.14519329,8.89022955 4.66293098,8.99091435 4.29078058,9.0143615 C3.57853769,9.05711806 3.18269232,8.93850309 2.82866161,8.78126929 C2.47741853,8.62403549 2.08714846,8.37025463 1.86971227,8.08199267 L1.86971227,8.76471836 C1.86971227,8.85988619 1.801415,8.9357446 1.70663513,8.9357446 L0.252879082,8.9357446 C0.158099206,8.9357446 0.0898019417,8.85988619 0.0898019417,8.76471836 L0.0898019417,0.394087577 C0.0898019417,0.300298997 0.167855958,0.223061343 0.262635834,0.223061343 L1.75263124,0.223061343 C1.84741112,0.223061343 1.92407132,0.300298997 1.92407132,0.394087577 L1.92407132,4.57595486 C1.92407132,5.1373071 1.98679329,5.69728009 2.11223725,6.04898727 C2.23489356,6.39655671 2.40215216,6.67516397 2.60843778,6.87515432 C2.81611721,7.07376543 3.05167308,7.21306906 3.3095301,7.29168596 C3.5729624,7.3716821 3.86427114,7.39788773 4.07055675,7.39788773 C4.36744078,7.39788773 4.69359506,7.32202932 4.69359506,7.32202932 C4.80231315,7.30961613 4.86364131,7.37581983 4.89988067,7.47374614 C4.99744819,7.73028549 5.27342489,8.49852431 5.32639011,8.65162037" id="path3037"></path>
                        </g>
                        <g id="g3039" transform="translate(52.043689, 30.319444) scale(-1, 1) rotate(-180.000000) translate(-52.043689, -30.319444) translate(46.543689, 21.819444)" fill="#070834">
                            <path d="M9.89940669,15.8823529 C9.71814995,15.9352941 9.5536246,15.9710294 9.33890507,16.0094118 C9.12139698,16.0464706 8.86206041,16.065 8.56786677,16.065 C7.54167476,16.065 6.73299083,15.7897059 6.1655178,15.2470588 C5.60083333,14.7070588 5.21740561,13.8851471 5.02499461,12.8038235 L4.95528047,12.4398529 L3.66696332,12.4398529 C3.66696332,12.4398529 3.51080367,12.4451471 3.47734088,12.2836765 L3.26680421,11.1626471 C3.2514671,11.0567647 3.30026699,10.9892647 3.45084951,10.9892647 L4.7043096,10.9892647 L3.43272384,4.24985294 C3.33372977,3.70720588 3.2193986,3.26117647 3.09251888,2.92235294 C2.96842772,2.58882353 2.84712513,2.33867647 2.69654261,2.15602941 C2.55153722,1.98132353 2.41489752,1.85161765 2.17786947,1.77617647 C1.9826699,1.71397059 1.75679612,1.68485294 1.51000809,1.68485294 C1.37336839,1.68485294 1.19071737,1.70602941 1.05547195,1.7325 C0.92162082,1.75764706 0.850512406,1.78544118 0.748729773,1.82647059 C0.748729773,1.82647059 0.602330097,1.87941176 0.543770227,1.74044118 C0.4977589,1.62529412 0.163131068,0.753088235 0.122696872,0.645882353 C0.0836569579,0.538676471 0.139428263,0.455294118 0.210536677,0.430147059 C0.377850593,0.374558824 0.501941748,0.3375 0.729209817,0.285882353 C1.04431769,0.215735294 1.31062567,0.211764706 1.56020227,0.211764706 C2.08166397,0.211764706 2.55850863,0.281911765 2.95309061,0.416911765 C3.34906688,0.553235294 3.69484898,0.790147059 4.00159115,1.11044118 C4.33203614,1.45720588 4.53978425,1.81985294 4.73777238,2.31617647 C4.93436624,2.80588235 5.10307443,3.41470588 5.23692557,4.12411765 L6.51548274,10.9892647 L8.38382147,10.9892647 C8.38382147,10.9892647 8.5413754,10.9839706 8.57344391,11.1467647 L8.78537487,12.2664706 C8.79931769,12.3736765 8.75191208,12.4398529 8.59993528,12.4398529 L6.78597357,12.4398529 C6.79573355,12.4782353 6.87799622,13.0844118 7.08574434,13.6548529 C7.17497843,13.8970588 7.34229234,14.0942647 7.48311489,14.2292647 C7.62254315,14.3616176 7.78288565,14.4555882 7.95856526,14.5098529 C8.13842772,14.5654412 8.34338727,14.5919118 8.56786677,14.5919118 C8.73796926,14.5919118 8.90667745,14.5733824 9.03355717,14.5482353 C9.20923679,14.5125 9.27755663,14.4939706 9.32356796,14.4807353 C9.50900755,14.4277941 9.53410464,14.4794118 9.57035599,14.5641176 L10.0039779,15.6944118 C10.0485949,15.8161765 9.9384466,15.8677941 9.89940669,15.8823529" id="path3041"></path>
                        </g>
                        <g id="g3043" transform="translate(30.703883, 29.208333) scale(-1, 1) rotate(-180.000000) translate(-30.703883, -29.208333) translate(29.203883, 23.208333)" fill="#070834">
                            <path d="M2.73786408,0.352083333 C2.73786408,0.264297222 2.64563228,0.19329375 2.51763714,0.19329375 L0.48665534,0.19329375 C0.358660194,0.19329375 0.26831068,0.264297222 0.26831068,0.352083333 L0.26831068,11.5628861 C0.26831068,11.6506722 0.358660194,11.7216757 0.48665534,11.7216757 L2.51763714,11.7216757 C2.64563228,11.7216757 2.73786408,11.6506722 2.73786408,11.5628861 L2.73786408,0.352083333 Z" id="path3045"></path>
                        </g>
                    </g>
                </g>
            </g>
        </g>
    </g>
</svg>