<?xml version="1.0" encoding="UTF-8"?>
<svg width="177px" height="39px" viewBox="0 0 177 39" version="1.1" xmlns="http://www.w3.org/2000/svg" xmlns:xlink="http://www.w3.org/1999/xlink">
    <!-- Generator: Sketch 52.6 (67491) - http://www.bohemiancoding.com/sketch -->
    <title>Verizon_2015_logo_-vector</title>
    <desc>Created with Sketch.</desc>
    <g id="Page-1" stroke="none" stroke-width="1" fill="none" fill-rule="evenodd" fill-opacity="0.4">
        <g id="Desktop" transform="translate(-508.000000, -3370.000000)" fill="#FFFFFF">
            <g id="Group-26" transform="translate(-29.000000, 3294.000000)">
                <g id="Group-25" transform="translate(109.000000, 63.000000)">
                    <g id="Verizon_2015_logo_-vector" transform="translate(428.000000, 13.000000)">
                        <polygon id="Path" points="172.529105 0 162.891957 20.5150685 159.26796 12.7417808 155.348674 12.7417808 161.308136 25.4568493 164.475778 25.4568493 176.421546 0"></polygon>
                        <path d="M131.188694,38.0917808 L138.946732,38.0917808 L138.946732,23.9609589 C138.946732,20.7287671 140.825841,18.4582192 143.617661,18.4582192 C146.302104,18.4582192 147.698014,20.3280822 147.698014,23.0260274 L147.698014,38.0917808 L155.456052,38.0917808 L155.456052,21.5568493 C155.456052,15.9472603 152.073655,11.9938356 146.597392,11.9938356 C143.107617,11.9938356 140.664775,13.489726 138.839354,16.2143836 L138.678288,16.2143836 L138.678288,12.7417808 L131.161849,12.7417808 L131.188694,38.0917808 Z M115.941062,12.0472603 C107.834046,12.0472603 102.411473,17.8438356 102.411473,25.4835616 C102.411473,33.069863 107.834046,38.919863 115.941062,38.919863 C124.048077,38.919863 129.470651,33.069863 129.470651,25.4835616 C129.497495,17.8438356 124.048077,12.0472603 115.941062,12.0472603 Z M115.887373,33.2034247 C112.209687,33.2034247 110.250044,30.1315068 110.250044,25.4835616 C110.250044,20.7821918 112.182842,17.7636986 115.887373,17.7636986 C119.565059,17.7636986 121.605235,20.7821918 121.605235,25.4835616 C121.632079,30.1315068 119.591903,33.2034247 115.887373,33.2034247 Z M80.2916683,38.0917808 L102.08934,38.0917808 L102.08934,32.0013699 L89.7409051,32.0013699 L89.7409051,31.8410959 L101.552451,18.6719178 L101.552451,12.7150685 L80.2916683,12.7150685 L80.2916683,18.8321918 L92.2374364,18.8321918 L92.2374364,18.9924658 L80.2916683,32.2684932 L80.2916683,38.0917808 Z M70.3323875,38.0917808 L78.1441145,38.0917808 L78.1441145,12.7417808 L70.3323875,12.7417808 L70.3323875,38.0917808 Z M52.2124022,38.0917808 L59.9972847,38.0917808 L59.9972847,26.4452055 C59.9972847,21.1561644 63.191771,18.8054795 68.0506115,19.4732877 L68.2116781,19.4732877 L68.2116781,12.7952055 C67.8090117,12.6349315 67.3526566,12.6082192 66.6278571,12.6082192 C63.5944374,12.6082192 61.5542613,13.9972603 59.8093738,16.9623288 L59.6483072,16.9623288 L59.6483072,12.7417808 L52.2124022,12.7417808 L52.2124022,38.0917808 Z M37.9311693,33.230137 C34.4950832,33.230137 32.4012182,31.0130137 31.9985519,27.5938356 L50.360137,27.5938356 C50.4138258,22.1445205 48.964227,17.790411 45.9308072,15.0657534 C43.7832534,13.0890411 40.964589,11.9938356 37.3674364,11.9938356 C29.6899315,11.9938356 24.3747358,17.790411 24.3747358,25.3767123 C24.3747358,33.0164384 29.4483317,38.839726 37.8774804,38.839726 C41.0719667,38.839726 43.5953425,37.9849315 45.6892074,36.5691781 C47.9172945,35.0465753 49.5279599,32.8027397 49.9574706,30.5856164 L42.4947211,30.5856164 C41.7699217,32.2417808 40.2129452,33.230137 37.9311693,33.230137 Z M37.5285029,17.5232877 C40.2666341,17.5232877 42.1457436,19.5534247 42.4678767,22.5184932 L32.0522407,22.5184932 C32.6696624,19.5267123 34.3071722,17.5232877 37.5285029,17.5232877 Z M8.85865949,38.0917808 L17.019364,38.0917808 L25.8780235,12.7417808 L18.0662965,12.7417808 L13.1000783,29.0363014 L12.9927006,29.0363014 L8.02648239,12.7417808 L0,12.7417808 L8.85865949,38.0917808 Z M70.3323875,3.7130137 L78.1441145,3.7130137 L78.1441145,10.6047945 L70.3323875,10.6047945 L70.3323875,3.7130137 Z" id="Shape" fill-rule="nonzero"></path>
                    </g>
                </g>
            </g>
        </g>
    </g>
</svg>