<svg height="39" viewBox="0 0 177 39" width="177" xmlns="http://www.w3.org/2000/svg"><g fill="#fff" fill-opacity=".4" fill-rule="evenodd"><path d="m172.529105 0-9.637148 20.5150685-3.623997-7.7732877h-3.919286l5.959462 12.7150685h3.167642l11.945768-25.4568493z"/><path d="m131.188694 38.0917808h7.758038v-14.1308219c0-3.2321918 1.879109-5.5027397 4.670929-5.5027397 2.684443 0 4.080353 1.869863 4.080353 4.5678082v15.0657534h7.758038v-16.5349315c0-5.609589-3.382397-9.5630137-8.85866-9.5630137-3.489775 0-5.932617 1.4958904-7.758038 4.220548h-.161066v-3.4726028h-7.516439zm-15.247632-26.0445205c-8.107016 0-13.529589 5.7965753-13.529589 13.4363013 0 7.5863014 5.422573 13.4363014 13.529589 13.4363014 8.107015 0 13.529589-5.85 13.529589-13.4363014.026844-7.639726-5.422574-13.4363013-13.529589-13.4363013zm-.053689 21.1561644c-3.677686 0-5.637329-3.0719179-5.637329-7.7198631 0-4.7013698 1.932798-7.719863 5.637329-7.719863 3.677686 0 5.717862 3.0184932 5.717862 7.719863.026844 4.6479452-2.013332 7.7198631-5.717862 7.7198631zm-35.5957047 4.8883561h21.7976717v-6.0904109h-12.3484349v-.160274l11.8115459-13.1691781v-5.9568493h-21.2607827v6.1171233h11.9457681v.160274l-11.9457681 13.2760274zm-9.9592808 0h7.811727v-25.35h-7.811727zm-18.1199853 0h7.7848825v-11.6465753c0-5.2890411 3.1944863-7.639726 8.0533268-6.9719178h.1610666v-6.6780822c-.4026664-.160274-.8590215-.1869863-1.583821-.1869863-3.0334197 0-5.0735958 1.3890411-6.8184833 4.3541096h-.1610666v-4.220548h-7.435905zm-14.2812329-4.8616438c-3.4360861 0-5.5299511-2.2171233-5.9326174-5.6363014h18.3615851c.0536888-5.4493151-1.39591-9.8034246-4.4293298-12.5280822-2.1475538-1.9767123-4.9662182-3.0719178-8.5633708-3.0719178-7.6775049 0-12.9927006 5.7965754-12.9927006 13.3828767 0 7.6397261 5.0735959 13.4630137 13.5027446 13.4630137 3.1944863 0 5.7178621-.8547945 7.811727-2.2705479 2.2280871-1.5226028 3.8387525-3.7664384 4.2682632-5.9835617h-7.4627495c-.7247994 1.6561644-2.2817759 2.6445206-4.5635518 2.6445206zm-.4026664-15.7068493c2.7381312 0 4.6172407 2.030137 4.9393738 4.9952055h-10.415636c.6174217-2.9917809 2.2549315-4.9952055 5.4762622-4.9952055zm-28.66984341 20.5684931h8.16070451l8.8586595-25.35h-7.811727l-4.9662182 16.2945206h-.1073777l-4.96621821-16.2945206h-8.02648239zm61.47372801-34.3787671h7.811727v6.8917808h-7.811727z" fill-rule="nonzero"/></g></svg>