<svg height="286" width="512" xmlns="http://www.w3.org/2000/svg"><g fill="none" fill-rule="evenodd"><rect fill="#070834" fill-rule="nonzero" height="286" rx="16" width="512"/><path d="M77.459 119.024L87.504 119c.855-.001 1.474.193 1.858.586.382.392.575 1.027.577 1.904l.06 26.896a47.143 47.143 0 0 1-.16 4.125c-.108 1.271-.454 2.764-1.033 4.473l-3.351 9.436a4.934 4.934 0 0 1-.974 1.77c-.426.487-.998.731-1.717.732l-8.967.02a3.968 3.968 0 0 1-1.957-.479c-.586-.322-.969-.853-1.149-1.594l-3.127-11.289c-.135-.462-.306-.774-.508-.935a1.101 1.101 0 0 0-.708-.242l-.608.002c-.27 0-.504.082-.707.245-.202.162-.37.474-.503.936l-3.144 11.306c-.178.693-.515 1.215-1.008 1.563-.495.347-1.1.522-1.819.524l-8.9.021c-.72.001-1.339-.228-1.857-.69-.517-.46-.89-1.06-1.116-1.798l-3.393-9.559c-.587-1.708-.94-3.198-1.054-4.469a46.356 46.356 0 0 1-.178-4.125L42 121.603c-.002-.877.188-1.513.568-1.908.381-.393 1-.591 1.852-.594l10.385-.023c.853-.003 1.472.194 1.855.584.384.393.576 1.027.578 1.905l.057 25.51 3.892-8.744c.356-.786.828-1.34 1.412-1.667.583-.325 1.302-.49 2.156-.49l2.832-.007c.854-.002 1.573.158 2.158.48.584.323 1.057.877 1.42 1.66l3.93 8.725-.057-25.51c-.002-.877.189-1.512.569-1.906.38-.394.998-.592 1.852-.594M131.596 167.927l-31.078.073c-.848.001-1.463-.19-1.841-.574-.383-.384-.574-1.007-.576-1.868L98 121.524c-.001-.86.187-1.483.566-1.87.378-.385.99-.58 1.84-.581l31.076-.073c.848-.001 1.463.19 1.845.574.379.384.57 1.007.573 1.868l.019 7.95c.002.861-.188 1.484-.564 1.87-.38.386-.996.58-1.842.583l-18.487.042.012 5.233 13.06-.03c.85-.003 1.464.189 1.844.571.38.385.572 1.007.575 1.868l.015 7.271c.002.86-.186 1.486-.564 1.871-.379.386-.993.58-1.84.582l-13.06.03.012 5.844 18.486-.043c.847-.002 1.463.19 1.845.573.377.385.572 1.007.572 1.868l.017 7.95c.002.862-.186 1.484-.563 1.87-.38.387-.994.58-1.841.582" fill="#fff"/><path d="M166.585 133.299l-3.147 10.338 10.59-.024-3.193-10.323c-.182-.409-.371-.702-.575-.884a1.035 1.035 0 0 0-.71-.269l-1.685.003c-.27.001-.507.092-.71.275-.2.181-.393.476-.57.884zm-3.77 32.226c0 .86-.189 1.485-.57 1.87-.381.386-1 .58-1.853.583l-9.916.022c-.855.002-1.475-.188-1.857-.573-.384-.384-.576-1.006-.578-1.868L148 147.614c-.002-1.358.207-2.922.63-4.69s1.08-3.832 1.976-6.189l5.832-15.444c.269-.77.682-1.338 1.245-1.701.56-.364 1.29-.547 2.191-.548L178.02 119c.854-.002 1.563.177 2.127.538.562.361.979.926 1.25 1.696l5.904 15.416c.906 2.354 1.574 4.413 2.006 6.18.43 1.765.648 3.33.652 4.688l.041 17.945c.001.86-.187 1.484-.568 1.87-.383.386-1.001.58-1.855.582l-10.185.023c-.9.002-1.564-.188-1.992-.573-.429-.384-.643-1.006-.646-1.867l-.02-9.515-11.94.027zM233.596 167.922l-34.08.078c-.85.002-1.463-.19-1.842-.574-.381-.384-.572-1.006-.574-1.868l-.1-44.08c-.002-.861.185-1.485.564-1.873.378-.385.991-.58 1.839-.582L209.78 119c.847-.002 1.463.19 1.844.574.38.384.571 1.007.574 1.868l.076 33.672 9.171-.021-.025-11.02c-.001-.86.187-1.485.566-1.872.378-.385.991-.58 1.84-.582l9.708-.022c.848-.002 1.463.189 1.843.574.379.385.572 1.007.573 1.868l.049 21.428c.002.861-.186 1.486-.563 1.872-.38.386-.993.58-1.84.583M278.596 167.92l-34.08.08c-.85.002-1.463-.19-1.842-.574-.381-.384-.572-1.007-.574-1.869l-.1-44.079c-.002-.861.185-1.484.564-1.872.377-.386.991-.58 1.839-.581L254.78 119c.847-.001 1.464.19 1.843.574.38.385.572 1.007.574 1.868l.077 33.671 9.173-.02-.027-11.02c-.001-.861.188-1.485.566-1.872.378-.385.992-.58 1.84-.582l9.708-.024c.848 0 1.463.191 1.843.575.38.385.572 1.008.573 1.87l.049 21.427c.002.861-.186 1.485-.563 1.87-.38.388-.993.581-1.84.583" fill="#606060"/><g fill="#fff"><path d="M327.547 167.962l-16.664.038c-5.691.013-9.918-1.11-12.678-3.372-2.759-2.26-4.143-5.747-4.155-10.463l-.05-21.148c-.012-4.715 1.358-8.22 4.108-10.516 2.748-2.296 6.969-3.45 12.66-3.464l16.665-.037c.865-.001 1.49.19 1.88.575.386.383.581 1.006.583 1.867l.019 8.227c.002.862-.189 1.487-.575 1.874-.387.386-1.012.58-1.876.581l-13.728.032c-1.412.003-2.459.289-3.14.856-.68.57-1.021 1.42-1.019 2.553l.038 16.185c.003 1.134.346 1.96 1.03 2.48.685.52 1.733.78 3.145.776l13.727-.032c.865-.002 1.49.188 1.88.573.387.384.582 1.008.584 1.868l.019 8.093c.001.862-.19 1.485-.576 1.872-.387.386-1.013.58-1.877.582M351.382 152.693c.002.907.34 1.664 1.019 2.276.675.609 2.23.913 4.662.907 2.432-.007 3.984-.316 4.658-.928.673-.615 1.011-1.373 1.009-2.28l-.043-18.292c-.002-.862-.342-1.599-1.018-2.209-.678-.61-2.232-.912-4.664-.906-2.43.004-3.985.314-4.657.929-.676.612-1.01 1.35-1.007 2.211zM378 155.081c.005 2.085-.294 3.977-.898 5.678-.604 1.703-1.682 3.155-3.232 4.362-1.552 1.204-3.69 2.15-6.411 2.834-2.724.687-6.179 1.035-10.367 1.045-4.186.01-7.656-.322-10.403-.996-2.75-.674-4.902-1.609-6.457-2.806-1.557-1.198-2.642-2.646-3.253-4.346-.612-1.698-.92-3.59-.925-5.675L336 131.99c-.003-2.086.296-3.98.9-5.68.602-1.703 1.68-3.167 3.231-4.394 1.551-1.228 3.698-2.185 6.444-2.87 2.745-.688 6.211-1.036 10.4-1.046s7.644.322 10.371.996c2.725.675 4.867 1.622 6.423 2.842s2.641 2.679 3.252 4.38c.613 1.697.92 3.59.925 5.674zM400.4 132.007l.053 23.114 8.059-.019c1.084-.002 1.886-.276 2.402-.82.517-.547.776-1.385.774-2.517l-.04-16.52c-.001-1.133-.265-1.96-.783-2.48-.52-.52-1.323-.78-2.407-.776zm9.97 35.94l-22.824.053c-.859.001-1.48-.19-1.864-.574-.386-.384-.579-1.006-.58-1.868L385 121.505c-.002-.86.187-1.485.571-1.87.383-.386 1.003-.581 1.862-.582l22.825-.053c5.644-.013 9.832 1.111 12.57 3.37 2.737 2.26 4.112 5.746 4.123 10.46l.049 21.21c.012 4.713-1.346 8.208-4.074 10.48s-6.911 3.413-12.555 3.427zM467.594 167.927l-31.076.073c-.848.001-1.463-.19-1.843-.574-.38-.383-.573-1.006-.574-1.867L434 121.522c-.001-.86.187-1.482.566-1.868.377-.386.99-.58 1.84-.583l31.076-.071c.848-.002 1.462.19 1.844.573.379.385.57 1.007.573 1.868l.018 7.95c.003.861-.188 1.485-.565 1.87-.377.387-.994.58-1.841.583l-18.485.043.012 5.232 13.06-.03c.848-.003 1.462.19 1.843.573.38.384.572 1.007.575 1.867l.015 7.27c.002.861-.185 1.487-.564 1.873-.379.385-.993.579-1.84.581l-13.062.03.014 5.844 18.485-.043c.848-.003 1.464.19 1.844.573.38.384.572 1.008.573 1.867l.019 7.952c.001.861-.187 1.484-.564 1.87-.38.386-.994.58-1.842.581"/></g></g></svg>